M48
; DRILL file {KiCad 9.0.1} date 2025-05-27T20:30:26-0400
; FORMAT={-:-/ absolute / metric / decimal}
; #@! TF.CreationDate,2025-05-27T20:30:26-04:00
; #@! TF.GenerationSoftware,Kicad,Pcbnew,9.0.1
; #@! TF.FileFunction,Plated,1,2,PTH
FMAT,2
METRIC
; #@! TA.AperFunction,Plated,PTH,ViaDrill
T1C0.300
; #@! TA.AperFunction,Plated,PTH,ComponentDrill
T2C0.889
; #@! TA.AperFunction,Plated,PTH,ComponentDrill
T3C0.900
; #@! TA.AperFunction,Plated,PTH,ComponentDrill
T4C1.000
; #@! TA.AperFunction,Plated,PTH,ComponentDrill
T5C1.500
%
G90
G05
T1
X49.8Y-85.5
X80.9Y-70.3
X82.4Y-85.7
X90.1Y-58.8
X99.9Y-86.5
X100.0Y-93.8
X100.0Y-102.0
X102.7Y-58.5
X111.0Y-86.6
X111.0Y-91.8
X111.0Y-96.9
X111.0Y-102.0
X113.3Y-74.266
X121.6Y-61.5
T2
X116.205Y-56.674
X116.205Y-71.914
X118.745Y-56.674
X118.745Y-71.914
X121.285Y-56.674
X121.285Y-71.914
X123.825Y-56.674
X123.825Y-71.914
X126.365Y-56.674
X126.365Y-71.914
X128.905Y-56.674
X128.905Y-71.914
X131.445Y-56.674
X131.445Y-71.914
T3
X37.49Y-77.6
X45.11Y-77.6
X48.79Y-77.6
X56.41Y-77.6
X59.68Y-77.7
X67.3Y-77.7
X70.99Y-77.6
X78.61Y-77.6
X82.08Y-77.8
X89.7Y-77.8
X94.164Y-77.6
X101.784Y-77.6
X106.68Y-77.9
X114.3Y-77.9
X118.69Y-78.2
X126.31Y-78.2
X131.1Y-77.3
X131.1Y-84.92
T4
X39.475Y-89.6
X39.475Y-92.1
X39.475Y-94.6
X53.975Y-89.6
X53.975Y-94.6
X95.0Y-88.79
X95.0Y-91.33
X95.0Y-93.87
X95.0Y-96.41
T5
X41.434Y-40.322
X41.434Y-59.372
X47.784Y-37.782
X47.784Y-56.832
X60.484Y-40.322
X60.484Y-59.372
X66.834Y-37.782
X66.834Y-56.832
X79.534Y-40.322
X79.534Y-59.372
X85.884Y-37.782
X85.884Y-56.832
X98.584Y-40.322
X98.584Y-59.372
X104.934Y-37.782
X104.934Y-56.832
X117.634Y-40.322
X123.984Y-37.782
T5
G00X46.325Y-86.5
M15
G01X47.625Y-86.5
M16
G05
G00X46.325Y-97.7
M15
G01X47.625Y-97.7
M16
G05
M30
