%TF.GenerationSoftware,KiCad,Pcbnew,9.0.1*%
%TF.CreationDate,2025-05-27T18:47:11-04:00*%
%TF.ProjectId,hackpad,6861636b-7061-4642-9e6b-696361645f70,rev?*%
%TF.SameCoordinates,Original*%
%TF.FileFunction,Legend,Top*%
%TF.FilePolarity,Positive*%
%FSLAX46Y46*%
G04 Gerber Fmt 4.6, Leading zero omitted, Abs format (unit mm)*
G04 Created by KiCad (PCBNEW 9.0.1) date 2025-05-27 18:47:11*
%MOMM*%
%LPD*%
G01*
G04 APERTURE LIST*
%ADD10C,0.150000*%
%ADD11C,0.120000*%
%ADD12C,0.040000*%
G04 APERTURE END LIST*
D10*
X74061905Y-75584819D02*
X74061905Y-74584819D01*
X74061905Y-74584819D02*
X74300000Y-74584819D01*
X74300000Y-74584819D02*
X74442857Y-74632438D01*
X74442857Y-74632438D02*
X74538095Y-74727676D01*
X74538095Y-74727676D02*
X74585714Y-74822914D01*
X74585714Y-74822914D02*
X74633333Y-75013390D01*
X74633333Y-75013390D02*
X74633333Y-75156247D01*
X74633333Y-75156247D02*
X74585714Y-75346723D01*
X74585714Y-75346723D02*
X74538095Y-75441961D01*
X74538095Y-75441961D02*
X74442857Y-75537200D01*
X74442857Y-75537200D02*
X74300000Y-75584819D01*
X74300000Y-75584819D02*
X74061905Y-75584819D01*
X74966667Y-74584819D02*
X75633333Y-74584819D01*
X75633333Y-74584819D02*
X75204762Y-75584819D01*
X70728095Y-76154819D02*
X70728095Y-75154819D01*
X71299523Y-76154819D02*
X70870952Y-75583390D01*
X71299523Y-75154819D02*
X70728095Y-75726247D01*
X120110417Y-35395700D02*
X120253274Y-35443319D01*
X120253274Y-35443319D02*
X120491369Y-35443319D01*
X120491369Y-35443319D02*
X120586607Y-35395700D01*
X120586607Y-35395700D02*
X120634226Y-35348080D01*
X120634226Y-35348080D02*
X120681845Y-35252842D01*
X120681845Y-35252842D02*
X120681845Y-35157604D01*
X120681845Y-35157604D02*
X120634226Y-35062366D01*
X120634226Y-35062366D02*
X120586607Y-35014747D01*
X120586607Y-35014747D02*
X120491369Y-34967128D01*
X120491369Y-34967128D02*
X120300893Y-34919509D01*
X120300893Y-34919509D02*
X120205655Y-34871890D01*
X120205655Y-34871890D02*
X120158036Y-34824271D01*
X120158036Y-34824271D02*
X120110417Y-34729033D01*
X120110417Y-34729033D02*
X120110417Y-34633795D01*
X120110417Y-34633795D02*
X120158036Y-34538557D01*
X120158036Y-34538557D02*
X120205655Y-34490938D01*
X120205655Y-34490938D02*
X120300893Y-34443319D01*
X120300893Y-34443319D02*
X120538988Y-34443319D01*
X120538988Y-34443319D02*
X120681845Y-34490938D01*
X121015179Y-34443319D02*
X121253274Y-35443319D01*
X121253274Y-35443319D02*
X121443750Y-34729033D01*
X121443750Y-34729033D02*
X121634226Y-35443319D01*
X121634226Y-35443319D02*
X121872322Y-34443319D01*
X122729464Y-34443319D02*
X122253274Y-34443319D01*
X122253274Y-34443319D02*
X122205655Y-34919509D01*
X122205655Y-34919509D02*
X122253274Y-34871890D01*
X122253274Y-34871890D02*
X122348512Y-34824271D01*
X122348512Y-34824271D02*
X122586607Y-34824271D01*
X122586607Y-34824271D02*
X122681845Y-34871890D01*
X122681845Y-34871890D02*
X122729464Y-34919509D01*
X122729464Y-34919509D02*
X122777083Y-35014747D01*
X122777083Y-35014747D02*
X122777083Y-35252842D01*
X122777083Y-35252842D02*
X122729464Y-35348080D01*
X122729464Y-35348080D02*
X122681845Y-35395700D01*
X122681845Y-35395700D02*
X122586607Y-35443319D01*
X122586607Y-35443319D02*
X122348512Y-35443319D01*
X122348512Y-35443319D02*
X122253274Y-35395700D01*
X122253274Y-35395700D02*
X122205655Y-35348080D01*
X115111905Y-93609819D02*
X115111905Y-92609819D01*
X115111905Y-92609819D02*
X115350000Y-92609819D01*
X115350000Y-92609819D02*
X115492857Y-92657438D01*
X115492857Y-92657438D02*
X115588095Y-92752676D01*
X115588095Y-92752676D02*
X115635714Y-92847914D01*
X115635714Y-92847914D02*
X115683333Y-93038390D01*
X115683333Y-93038390D02*
X115683333Y-93181247D01*
X115683333Y-93181247D02*
X115635714Y-93371723D01*
X115635714Y-93371723D02*
X115588095Y-93466961D01*
X115588095Y-93466961D02*
X115492857Y-93562200D01*
X115492857Y-93562200D02*
X115350000Y-93609819D01*
X115350000Y-93609819D02*
X115111905Y-93609819D01*
X116016667Y-92609819D02*
X116635714Y-92609819D01*
X116635714Y-92609819D02*
X116302381Y-92990771D01*
X116302381Y-92990771D02*
X116445238Y-92990771D01*
X116445238Y-92990771D02*
X116540476Y-93038390D01*
X116540476Y-93038390D02*
X116588095Y-93086009D01*
X116588095Y-93086009D02*
X116635714Y-93181247D01*
X116635714Y-93181247D02*
X116635714Y-93419342D01*
X116635714Y-93419342D02*
X116588095Y-93514580D01*
X116588095Y-93514580D02*
X116540476Y-93562200D01*
X116540476Y-93562200D02*
X116445238Y-93609819D01*
X116445238Y-93609819D02*
X116159524Y-93609819D01*
X116159524Y-93609819D02*
X116064286Y-93562200D01*
X116064286Y-93562200D02*
X116016667Y-93514580D01*
X112878571Y-95392295D02*
X112421428Y-95392295D01*
X112650000Y-95392295D02*
X112650000Y-94592295D01*
X112650000Y-94592295D02*
X112573809Y-94706580D01*
X112573809Y-94706580D02*
X112497619Y-94782771D01*
X112497619Y-94782771D02*
X112421428Y-94820866D01*
X51385714Y-75584819D02*
X51385714Y-74584819D01*
X51385714Y-74584819D02*
X51623809Y-74584819D01*
X51623809Y-74584819D02*
X51766666Y-74632438D01*
X51766666Y-74632438D02*
X51861904Y-74727676D01*
X51861904Y-74727676D02*
X51909523Y-74822914D01*
X51909523Y-74822914D02*
X51957142Y-75013390D01*
X51957142Y-75013390D02*
X51957142Y-75156247D01*
X51957142Y-75156247D02*
X51909523Y-75346723D01*
X51909523Y-75346723D02*
X51861904Y-75441961D01*
X51861904Y-75441961D02*
X51766666Y-75537200D01*
X51766666Y-75537200D02*
X51623809Y-75584819D01*
X51623809Y-75584819D02*
X51385714Y-75584819D01*
X52909523Y-75584819D02*
X52338095Y-75584819D01*
X52623809Y-75584819D02*
X52623809Y-74584819D01*
X52623809Y-74584819D02*
X52528571Y-74727676D01*
X52528571Y-74727676D02*
X52433333Y-74822914D01*
X52433333Y-74822914D02*
X52338095Y-74870533D01*
X53290476Y-74680057D02*
X53338095Y-74632438D01*
X53338095Y-74632438D02*
X53433333Y-74584819D01*
X53433333Y-74584819D02*
X53671428Y-74584819D01*
X53671428Y-74584819D02*
X53766666Y-74632438D01*
X53766666Y-74632438D02*
X53814285Y-74680057D01*
X53814285Y-74680057D02*
X53861904Y-74775295D01*
X53861904Y-74775295D02*
X53861904Y-74870533D01*
X53861904Y-74870533D02*
X53814285Y-75013390D01*
X53814285Y-75013390D02*
X53242857Y-75584819D01*
X53242857Y-75584819D02*
X53861904Y-75584819D01*
X48528095Y-76154819D02*
X48528095Y-75154819D01*
X49099523Y-76154819D02*
X48670952Y-75583390D01*
X49099523Y-75154819D02*
X48528095Y-75726247D01*
X96759464Y-75584819D02*
X96759464Y-74584819D01*
X96759464Y-74584819D02*
X96997559Y-74584819D01*
X96997559Y-74584819D02*
X97140416Y-74632438D01*
X97140416Y-74632438D02*
X97235654Y-74727676D01*
X97235654Y-74727676D02*
X97283273Y-74822914D01*
X97283273Y-74822914D02*
X97330892Y-75013390D01*
X97330892Y-75013390D02*
X97330892Y-75156247D01*
X97330892Y-75156247D02*
X97283273Y-75346723D01*
X97283273Y-75346723D02*
X97235654Y-75441961D01*
X97235654Y-75441961D02*
X97140416Y-75537200D01*
X97140416Y-75537200D02*
X96997559Y-75584819D01*
X96997559Y-75584819D02*
X96759464Y-75584819D01*
X98283273Y-75584819D02*
X97711845Y-75584819D01*
X97997559Y-75584819D02*
X97997559Y-74584819D01*
X97997559Y-74584819D02*
X97902321Y-74727676D01*
X97902321Y-74727676D02*
X97807083Y-74822914D01*
X97807083Y-74822914D02*
X97711845Y-74870533D01*
X98902321Y-74584819D02*
X98997559Y-74584819D01*
X98997559Y-74584819D02*
X99092797Y-74632438D01*
X99092797Y-74632438D02*
X99140416Y-74680057D01*
X99140416Y-74680057D02*
X99188035Y-74775295D01*
X99188035Y-74775295D02*
X99235654Y-74965771D01*
X99235654Y-74965771D02*
X99235654Y-75203866D01*
X99235654Y-75203866D02*
X99188035Y-75394342D01*
X99188035Y-75394342D02*
X99140416Y-75489580D01*
X99140416Y-75489580D02*
X99092797Y-75537200D01*
X99092797Y-75537200D02*
X98997559Y-75584819D01*
X98997559Y-75584819D02*
X98902321Y-75584819D01*
X98902321Y-75584819D02*
X98807083Y-75537200D01*
X98807083Y-75537200D02*
X98759464Y-75489580D01*
X98759464Y-75489580D02*
X98711845Y-75394342D01*
X98711845Y-75394342D02*
X98664226Y-75203866D01*
X98664226Y-75203866D02*
X98664226Y-74965771D01*
X98664226Y-74965771D02*
X98711845Y-74775295D01*
X98711845Y-74775295D02*
X98759464Y-74680057D01*
X98759464Y-74680057D02*
X98807083Y-74632438D01*
X98807083Y-74632438D02*
X98902321Y-74584819D01*
X93901845Y-76154819D02*
X93901845Y-75154819D01*
X94473273Y-76154819D02*
X94044702Y-75583390D01*
X94473273Y-75154819D02*
X93901845Y-75726247D01*
X101060417Y-54445700D02*
X101203274Y-54493319D01*
X101203274Y-54493319D02*
X101441369Y-54493319D01*
X101441369Y-54493319D02*
X101536607Y-54445700D01*
X101536607Y-54445700D02*
X101584226Y-54398080D01*
X101584226Y-54398080D02*
X101631845Y-54302842D01*
X101631845Y-54302842D02*
X101631845Y-54207604D01*
X101631845Y-54207604D02*
X101584226Y-54112366D01*
X101584226Y-54112366D02*
X101536607Y-54064747D01*
X101536607Y-54064747D02*
X101441369Y-54017128D01*
X101441369Y-54017128D02*
X101250893Y-53969509D01*
X101250893Y-53969509D02*
X101155655Y-53921890D01*
X101155655Y-53921890D02*
X101108036Y-53874271D01*
X101108036Y-53874271D02*
X101060417Y-53779033D01*
X101060417Y-53779033D02*
X101060417Y-53683795D01*
X101060417Y-53683795D02*
X101108036Y-53588557D01*
X101108036Y-53588557D02*
X101155655Y-53540938D01*
X101155655Y-53540938D02*
X101250893Y-53493319D01*
X101250893Y-53493319D02*
X101488988Y-53493319D01*
X101488988Y-53493319D02*
X101631845Y-53540938D01*
X101965179Y-53493319D02*
X102203274Y-54493319D01*
X102203274Y-54493319D02*
X102393750Y-53779033D01*
X102393750Y-53779033D02*
X102584226Y-54493319D01*
X102584226Y-54493319D02*
X102822322Y-53493319D01*
X103250893Y-54493319D02*
X103441369Y-54493319D01*
X103441369Y-54493319D02*
X103536607Y-54445700D01*
X103536607Y-54445700D02*
X103584226Y-54398080D01*
X103584226Y-54398080D02*
X103679464Y-54255223D01*
X103679464Y-54255223D02*
X103727083Y-54064747D01*
X103727083Y-54064747D02*
X103727083Y-53683795D01*
X103727083Y-53683795D02*
X103679464Y-53588557D01*
X103679464Y-53588557D02*
X103631845Y-53540938D01*
X103631845Y-53540938D02*
X103536607Y-53493319D01*
X103536607Y-53493319D02*
X103346131Y-53493319D01*
X103346131Y-53493319D02*
X103250893Y-53540938D01*
X103250893Y-53540938D02*
X103203274Y-53588557D01*
X103203274Y-53588557D02*
X103155655Y-53683795D01*
X103155655Y-53683795D02*
X103155655Y-53921890D01*
X103155655Y-53921890D02*
X103203274Y-54017128D01*
X103203274Y-54017128D02*
X103250893Y-54064747D01*
X103250893Y-54064747D02*
X103346131Y-54112366D01*
X103346131Y-54112366D02*
X103536607Y-54112366D01*
X103536607Y-54112366D02*
X103631845Y-54064747D01*
X103631845Y-54064747D02*
X103679464Y-54017128D01*
X103679464Y-54017128D02*
X103727083Y-53921890D01*
X84675714Y-75784819D02*
X84675714Y-74784819D01*
X84675714Y-74784819D02*
X84913809Y-74784819D01*
X84913809Y-74784819D02*
X85056666Y-74832438D01*
X85056666Y-74832438D02*
X85151904Y-74927676D01*
X85151904Y-74927676D02*
X85199523Y-75022914D01*
X85199523Y-75022914D02*
X85247142Y-75213390D01*
X85247142Y-75213390D02*
X85247142Y-75356247D01*
X85247142Y-75356247D02*
X85199523Y-75546723D01*
X85199523Y-75546723D02*
X85151904Y-75641961D01*
X85151904Y-75641961D02*
X85056666Y-75737200D01*
X85056666Y-75737200D02*
X84913809Y-75784819D01*
X84913809Y-75784819D02*
X84675714Y-75784819D01*
X86199523Y-75784819D02*
X85628095Y-75784819D01*
X85913809Y-75784819D02*
X85913809Y-74784819D01*
X85913809Y-74784819D02*
X85818571Y-74927676D01*
X85818571Y-74927676D02*
X85723333Y-75022914D01*
X85723333Y-75022914D02*
X85628095Y-75070533D01*
X87151904Y-75784819D02*
X86580476Y-75784819D01*
X86866190Y-75784819D02*
X86866190Y-74784819D01*
X86866190Y-74784819D02*
X86770952Y-74927676D01*
X86770952Y-74927676D02*
X86675714Y-75022914D01*
X86675714Y-75022914D02*
X86580476Y-75070533D01*
X81818095Y-76354819D02*
X81818095Y-75354819D01*
X82389523Y-76354819D02*
X81960952Y-75783390D01*
X82389523Y-75354819D02*
X81818095Y-75926247D01*
X62960417Y-35395700D02*
X63103274Y-35443319D01*
X63103274Y-35443319D02*
X63341369Y-35443319D01*
X63341369Y-35443319D02*
X63436607Y-35395700D01*
X63436607Y-35395700D02*
X63484226Y-35348080D01*
X63484226Y-35348080D02*
X63531845Y-35252842D01*
X63531845Y-35252842D02*
X63531845Y-35157604D01*
X63531845Y-35157604D02*
X63484226Y-35062366D01*
X63484226Y-35062366D02*
X63436607Y-35014747D01*
X63436607Y-35014747D02*
X63341369Y-34967128D01*
X63341369Y-34967128D02*
X63150893Y-34919509D01*
X63150893Y-34919509D02*
X63055655Y-34871890D01*
X63055655Y-34871890D02*
X63008036Y-34824271D01*
X63008036Y-34824271D02*
X62960417Y-34729033D01*
X62960417Y-34729033D02*
X62960417Y-34633795D01*
X62960417Y-34633795D02*
X63008036Y-34538557D01*
X63008036Y-34538557D02*
X63055655Y-34490938D01*
X63055655Y-34490938D02*
X63150893Y-34443319D01*
X63150893Y-34443319D02*
X63388988Y-34443319D01*
X63388988Y-34443319D02*
X63531845Y-34490938D01*
X63865179Y-34443319D02*
X64103274Y-35443319D01*
X64103274Y-35443319D02*
X64293750Y-34729033D01*
X64293750Y-34729033D02*
X64484226Y-35443319D01*
X64484226Y-35443319D02*
X64722322Y-34443319D01*
X65055655Y-34538557D02*
X65103274Y-34490938D01*
X65103274Y-34490938D02*
X65198512Y-34443319D01*
X65198512Y-34443319D02*
X65436607Y-34443319D01*
X65436607Y-34443319D02*
X65531845Y-34490938D01*
X65531845Y-34490938D02*
X65579464Y-34538557D01*
X65579464Y-34538557D02*
X65627083Y-34633795D01*
X65627083Y-34633795D02*
X65627083Y-34729033D01*
X65627083Y-34729033D02*
X65579464Y-34871890D01*
X65579464Y-34871890D02*
X65008036Y-35443319D01*
X65008036Y-35443319D02*
X65627083Y-35443319D01*
X59854819Y-92843333D02*
X60569104Y-92843333D01*
X60569104Y-92843333D02*
X60711961Y-92890952D01*
X60711961Y-92890952D02*
X60807200Y-92986190D01*
X60807200Y-92986190D02*
X60854819Y-93129047D01*
X60854819Y-93129047D02*
X60854819Y-93224285D01*
X60854819Y-91843333D02*
X60854819Y-92414761D01*
X60854819Y-92129047D02*
X59854819Y-92129047D01*
X59854819Y-92129047D02*
X59997676Y-92224285D01*
X59997676Y-92224285D02*
X60092914Y-92319523D01*
X60092914Y-92319523D02*
X60140533Y-92414761D01*
X93303450Y-94762856D02*
X93339164Y-94655714D01*
X93339164Y-94655714D02*
X93339164Y-94477142D01*
X93339164Y-94477142D02*
X93303450Y-94405714D01*
X93303450Y-94405714D02*
X93267735Y-94369999D01*
X93267735Y-94369999D02*
X93196307Y-94334285D01*
X93196307Y-94334285D02*
X93124878Y-94334285D01*
X93124878Y-94334285D02*
X93053450Y-94369999D01*
X93053450Y-94369999D02*
X93017735Y-94405714D01*
X93017735Y-94405714D02*
X92982021Y-94477142D01*
X92982021Y-94477142D02*
X92946307Y-94619999D01*
X92946307Y-94619999D02*
X92910592Y-94691428D01*
X92910592Y-94691428D02*
X92874878Y-94727142D01*
X92874878Y-94727142D02*
X92803450Y-94762856D01*
X92803450Y-94762856D02*
X92732021Y-94762856D01*
X92732021Y-94762856D02*
X92660592Y-94727142D01*
X92660592Y-94727142D02*
X92624878Y-94691428D01*
X92624878Y-94691428D02*
X92589164Y-94619999D01*
X92589164Y-94619999D02*
X92589164Y-94441428D01*
X92589164Y-94441428D02*
X92624878Y-94334285D01*
X93267735Y-93584285D02*
X93303450Y-93619999D01*
X93303450Y-93619999D02*
X93339164Y-93727142D01*
X93339164Y-93727142D02*
X93339164Y-93798570D01*
X93339164Y-93798570D02*
X93303450Y-93905713D01*
X93303450Y-93905713D02*
X93232021Y-93977142D01*
X93232021Y-93977142D02*
X93160592Y-94012856D01*
X93160592Y-94012856D02*
X93017735Y-94048570D01*
X93017735Y-94048570D02*
X92910592Y-94048570D01*
X92910592Y-94048570D02*
X92767735Y-94012856D01*
X92767735Y-94012856D02*
X92696307Y-93977142D01*
X92696307Y-93977142D02*
X92624878Y-93905713D01*
X92624878Y-93905713D02*
X92589164Y-93798570D01*
X92589164Y-93798570D02*
X92589164Y-93727142D01*
X92589164Y-93727142D02*
X92624878Y-93619999D01*
X92624878Y-93619999D02*
X92660592Y-93584285D01*
X93339164Y-92905713D02*
X93339164Y-93262856D01*
X93339164Y-93262856D02*
X92589164Y-93262856D01*
X92624878Y-89361428D02*
X92589164Y-89432857D01*
X92589164Y-89432857D02*
X92589164Y-89539999D01*
X92589164Y-89539999D02*
X92624878Y-89647142D01*
X92624878Y-89647142D02*
X92696307Y-89718571D01*
X92696307Y-89718571D02*
X92767735Y-89754285D01*
X92767735Y-89754285D02*
X92910592Y-89789999D01*
X92910592Y-89789999D02*
X93017735Y-89789999D01*
X93017735Y-89789999D02*
X93160592Y-89754285D01*
X93160592Y-89754285D02*
X93232021Y-89718571D01*
X93232021Y-89718571D02*
X93303450Y-89647142D01*
X93303450Y-89647142D02*
X93339164Y-89539999D01*
X93339164Y-89539999D02*
X93339164Y-89468571D01*
X93339164Y-89468571D02*
X93303450Y-89361428D01*
X93303450Y-89361428D02*
X93267735Y-89325714D01*
X93267735Y-89325714D02*
X93017735Y-89325714D01*
X93017735Y-89325714D02*
X93017735Y-89468571D01*
X93339164Y-89004285D02*
X92589164Y-89004285D01*
X92589164Y-89004285D02*
X93339164Y-88575714D01*
X93339164Y-88575714D02*
X92589164Y-88575714D01*
X93339164Y-88218571D02*
X92589164Y-88218571D01*
X92589164Y-88218571D02*
X92589164Y-88040000D01*
X92589164Y-88040000D02*
X92624878Y-87932857D01*
X92624878Y-87932857D02*
X92696307Y-87861428D01*
X92696307Y-87861428D02*
X92767735Y-87825714D01*
X92767735Y-87825714D02*
X92910592Y-87790000D01*
X92910592Y-87790000D02*
X93017735Y-87790000D01*
X93017735Y-87790000D02*
X93160592Y-87825714D01*
X93160592Y-87825714D02*
X93232021Y-87861428D01*
X93232021Y-87861428D02*
X93303450Y-87932857D01*
X93303450Y-87932857D02*
X93339164Y-88040000D01*
X93339164Y-88040000D02*
X93339164Y-88218571D01*
X93303450Y-97320713D02*
X93339164Y-97213571D01*
X93339164Y-97213571D02*
X93339164Y-97034999D01*
X93339164Y-97034999D02*
X93303450Y-96963571D01*
X93303450Y-96963571D02*
X93267735Y-96927856D01*
X93267735Y-96927856D02*
X93196307Y-96892142D01*
X93196307Y-96892142D02*
X93124878Y-96892142D01*
X93124878Y-96892142D02*
X93053450Y-96927856D01*
X93053450Y-96927856D02*
X93017735Y-96963571D01*
X93017735Y-96963571D02*
X92982021Y-97034999D01*
X92982021Y-97034999D02*
X92946307Y-97177856D01*
X92946307Y-97177856D02*
X92910592Y-97249285D01*
X92910592Y-97249285D02*
X92874878Y-97284999D01*
X92874878Y-97284999D02*
X92803450Y-97320713D01*
X92803450Y-97320713D02*
X92732021Y-97320713D01*
X92732021Y-97320713D02*
X92660592Y-97284999D01*
X92660592Y-97284999D02*
X92624878Y-97249285D01*
X92624878Y-97249285D02*
X92589164Y-97177856D01*
X92589164Y-97177856D02*
X92589164Y-96999285D01*
X92589164Y-96999285D02*
X92624878Y-96892142D01*
X93339164Y-96570713D02*
X92589164Y-96570713D01*
X92589164Y-96570713D02*
X92589164Y-96392142D01*
X92589164Y-96392142D02*
X92624878Y-96284999D01*
X92624878Y-96284999D02*
X92696307Y-96213570D01*
X92696307Y-96213570D02*
X92767735Y-96177856D01*
X92767735Y-96177856D02*
X92910592Y-96142142D01*
X92910592Y-96142142D02*
X93017735Y-96142142D01*
X93017735Y-96142142D02*
X93160592Y-96177856D01*
X93160592Y-96177856D02*
X93232021Y-96213570D01*
X93232021Y-96213570D02*
X93303450Y-96284999D01*
X93303450Y-96284999D02*
X93339164Y-96392142D01*
X93339164Y-96392142D02*
X93339164Y-96570713D01*
X93124878Y-95856427D02*
X93124878Y-95499285D01*
X93339164Y-95927856D02*
X92589164Y-95677856D01*
X92589164Y-95677856D02*
X93339164Y-95427856D01*
X73571428Y-92054819D02*
X73761904Y-92054819D01*
X73761904Y-92054819D02*
X73857142Y-92102438D01*
X73857142Y-92102438D02*
X73952380Y-92197676D01*
X73952380Y-92197676D02*
X73999999Y-92388152D01*
X73999999Y-92388152D02*
X73999999Y-92721485D01*
X73999999Y-92721485D02*
X73952380Y-92911961D01*
X73952380Y-92911961D02*
X73857142Y-93007200D01*
X73857142Y-93007200D02*
X73761904Y-93054819D01*
X73761904Y-93054819D02*
X73571428Y-93054819D01*
X73571428Y-93054819D02*
X73476190Y-93007200D01*
X73476190Y-93007200D02*
X73380952Y-92911961D01*
X73380952Y-92911961D02*
X73333333Y-92721485D01*
X73333333Y-92721485D02*
X73333333Y-92388152D01*
X73333333Y-92388152D02*
X73380952Y-92197676D01*
X73380952Y-92197676D02*
X73476190Y-92102438D01*
X73476190Y-92102438D02*
X73571428Y-92054819D01*
X74904761Y-93054819D02*
X74428571Y-93054819D01*
X74428571Y-93054819D02*
X74428571Y-92054819D01*
X75238095Y-92531009D02*
X75571428Y-92531009D01*
X75714285Y-93054819D02*
X75238095Y-93054819D01*
X75238095Y-93054819D02*
X75238095Y-92054819D01*
X75238095Y-92054819D02*
X75714285Y-92054819D01*
X76142857Y-93054819D02*
X76142857Y-92054819D01*
X76142857Y-92054819D02*
X76380952Y-92054819D01*
X76380952Y-92054819D02*
X76523809Y-92102438D01*
X76523809Y-92102438D02*
X76619047Y-92197676D01*
X76619047Y-92197676D02*
X76666666Y-92292914D01*
X76666666Y-92292914D02*
X76714285Y-92483390D01*
X76714285Y-92483390D02*
X76714285Y-92626247D01*
X76714285Y-92626247D02*
X76666666Y-92816723D01*
X76666666Y-92816723D02*
X76619047Y-92911961D01*
X76619047Y-92911961D02*
X76523809Y-93007200D01*
X76523809Y-93007200D02*
X76380952Y-93054819D01*
X76380952Y-93054819D02*
X76142857Y-93054819D01*
X77904762Y-93054819D02*
X77904762Y-92054819D01*
X77904762Y-92054819D02*
X78285714Y-92054819D01*
X78285714Y-92054819D02*
X78380952Y-92102438D01*
X78380952Y-92102438D02*
X78428571Y-92150057D01*
X78428571Y-92150057D02*
X78476190Y-92245295D01*
X78476190Y-92245295D02*
X78476190Y-92388152D01*
X78476190Y-92388152D02*
X78428571Y-92483390D01*
X78428571Y-92483390D02*
X78380952Y-92531009D01*
X78380952Y-92531009D02*
X78285714Y-92578628D01*
X78285714Y-92578628D02*
X77904762Y-92578628D01*
X79333333Y-93054819D02*
X79333333Y-92531009D01*
X79333333Y-92531009D02*
X79285714Y-92435771D01*
X79285714Y-92435771D02*
X79190476Y-92388152D01*
X79190476Y-92388152D02*
X79000000Y-92388152D01*
X79000000Y-92388152D02*
X78904762Y-92435771D01*
X79333333Y-93007200D02*
X79238095Y-93054819D01*
X79238095Y-93054819D02*
X79000000Y-93054819D01*
X79000000Y-93054819D02*
X78904762Y-93007200D01*
X78904762Y-93007200D02*
X78857143Y-92911961D01*
X78857143Y-92911961D02*
X78857143Y-92816723D01*
X78857143Y-92816723D02*
X78904762Y-92721485D01*
X78904762Y-92721485D02*
X79000000Y-92673866D01*
X79000000Y-92673866D02*
X79238095Y-92673866D01*
X79238095Y-92673866D02*
X79333333Y-92626247D01*
X79809524Y-92388152D02*
X79809524Y-93054819D01*
X79809524Y-92483390D02*
X79857143Y-92435771D01*
X79857143Y-92435771D02*
X79952381Y-92388152D01*
X79952381Y-92388152D02*
X80095238Y-92388152D01*
X80095238Y-92388152D02*
X80190476Y-92435771D01*
X80190476Y-92435771D02*
X80238095Y-92531009D01*
X80238095Y-92531009D02*
X80238095Y-93054819D01*
X81095238Y-93007200D02*
X81000000Y-93054819D01*
X81000000Y-93054819D02*
X80809524Y-93054819D01*
X80809524Y-93054819D02*
X80714286Y-93007200D01*
X80714286Y-93007200D02*
X80666667Y-92911961D01*
X80666667Y-92911961D02*
X80666667Y-92531009D01*
X80666667Y-92531009D02*
X80714286Y-92435771D01*
X80714286Y-92435771D02*
X80809524Y-92388152D01*
X80809524Y-92388152D02*
X81000000Y-92388152D01*
X81000000Y-92388152D02*
X81095238Y-92435771D01*
X81095238Y-92435771D02*
X81142857Y-92531009D01*
X81142857Y-92531009D02*
X81142857Y-92626247D01*
X81142857Y-92626247D02*
X80666667Y-92721485D01*
X81714286Y-93054819D02*
X81619048Y-93007200D01*
X81619048Y-93007200D02*
X81571429Y-92911961D01*
X81571429Y-92911961D02*
X81571429Y-92054819D01*
X92589164Y-92329999D02*
X93339164Y-92079999D01*
X93339164Y-92079999D02*
X92589164Y-91829999D01*
X93267735Y-91151428D02*
X93303450Y-91187142D01*
X93303450Y-91187142D02*
X93339164Y-91294285D01*
X93339164Y-91294285D02*
X93339164Y-91365713D01*
X93339164Y-91365713D02*
X93303450Y-91472856D01*
X93303450Y-91472856D02*
X93232021Y-91544285D01*
X93232021Y-91544285D02*
X93160592Y-91579999D01*
X93160592Y-91579999D02*
X93017735Y-91615713D01*
X93017735Y-91615713D02*
X92910592Y-91615713D01*
X92910592Y-91615713D02*
X92767735Y-91579999D01*
X92767735Y-91579999D02*
X92696307Y-91544285D01*
X92696307Y-91544285D02*
X92624878Y-91472856D01*
X92624878Y-91472856D02*
X92589164Y-91365713D01*
X92589164Y-91365713D02*
X92589164Y-91294285D01*
X92589164Y-91294285D02*
X92624878Y-91187142D01*
X92624878Y-91187142D02*
X92660592Y-91151428D01*
X93267735Y-90401428D02*
X93303450Y-90437142D01*
X93303450Y-90437142D02*
X93339164Y-90544285D01*
X93339164Y-90544285D02*
X93339164Y-90615713D01*
X93339164Y-90615713D02*
X93303450Y-90722856D01*
X93303450Y-90722856D02*
X93232021Y-90794285D01*
X93232021Y-90794285D02*
X93160592Y-90829999D01*
X93160592Y-90829999D02*
X93017735Y-90865713D01*
X93017735Y-90865713D02*
X92910592Y-90865713D01*
X92910592Y-90865713D02*
X92767735Y-90829999D01*
X92767735Y-90829999D02*
X92696307Y-90794285D01*
X92696307Y-90794285D02*
X92624878Y-90722856D01*
X92624878Y-90722856D02*
X92589164Y-90615713D01*
X92589164Y-90615713D02*
X92589164Y-90544285D01*
X92589164Y-90544285D02*
X92624878Y-90437142D01*
X92624878Y-90437142D02*
X92660592Y-90401428D01*
X121761905Y-76184819D02*
X121761905Y-75184819D01*
X121761905Y-75184819D02*
X122000000Y-75184819D01*
X122000000Y-75184819D02*
X122142857Y-75232438D01*
X122142857Y-75232438D02*
X122238095Y-75327676D01*
X122238095Y-75327676D02*
X122285714Y-75422914D01*
X122285714Y-75422914D02*
X122333333Y-75613390D01*
X122333333Y-75613390D02*
X122333333Y-75756247D01*
X122333333Y-75756247D02*
X122285714Y-75946723D01*
X122285714Y-75946723D02*
X122238095Y-76041961D01*
X122238095Y-76041961D02*
X122142857Y-76137200D01*
X122142857Y-76137200D02*
X122000000Y-76184819D01*
X122000000Y-76184819D02*
X121761905Y-76184819D01*
X122809524Y-76184819D02*
X123000000Y-76184819D01*
X123000000Y-76184819D02*
X123095238Y-76137200D01*
X123095238Y-76137200D02*
X123142857Y-76089580D01*
X123142857Y-76089580D02*
X123238095Y-75946723D01*
X123238095Y-75946723D02*
X123285714Y-75756247D01*
X123285714Y-75756247D02*
X123285714Y-75375295D01*
X123285714Y-75375295D02*
X123238095Y-75280057D01*
X123238095Y-75280057D02*
X123190476Y-75232438D01*
X123190476Y-75232438D02*
X123095238Y-75184819D01*
X123095238Y-75184819D02*
X122904762Y-75184819D01*
X122904762Y-75184819D02*
X122809524Y-75232438D01*
X122809524Y-75232438D02*
X122761905Y-75280057D01*
X122761905Y-75280057D02*
X122714286Y-75375295D01*
X122714286Y-75375295D02*
X122714286Y-75613390D01*
X122714286Y-75613390D02*
X122761905Y-75708628D01*
X122761905Y-75708628D02*
X122809524Y-75756247D01*
X122809524Y-75756247D02*
X122904762Y-75803866D01*
X122904762Y-75803866D02*
X123095238Y-75803866D01*
X123095238Y-75803866D02*
X123190476Y-75756247D01*
X123190476Y-75756247D02*
X123238095Y-75708628D01*
X123238095Y-75708628D02*
X123285714Y-75613390D01*
X118428095Y-76754819D02*
X118428095Y-75754819D01*
X118999523Y-76754819D02*
X118570952Y-76183390D01*
X118999523Y-75754819D02*
X118428095Y-76326247D01*
X82010417Y-35395700D02*
X82153274Y-35443319D01*
X82153274Y-35443319D02*
X82391369Y-35443319D01*
X82391369Y-35443319D02*
X82486607Y-35395700D01*
X82486607Y-35395700D02*
X82534226Y-35348080D01*
X82534226Y-35348080D02*
X82581845Y-35252842D01*
X82581845Y-35252842D02*
X82581845Y-35157604D01*
X82581845Y-35157604D02*
X82534226Y-35062366D01*
X82534226Y-35062366D02*
X82486607Y-35014747D01*
X82486607Y-35014747D02*
X82391369Y-34967128D01*
X82391369Y-34967128D02*
X82200893Y-34919509D01*
X82200893Y-34919509D02*
X82105655Y-34871890D01*
X82105655Y-34871890D02*
X82058036Y-34824271D01*
X82058036Y-34824271D02*
X82010417Y-34729033D01*
X82010417Y-34729033D02*
X82010417Y-34633795D01*
X82010417Y-34633795D02*
X82058036Y-34538557D01*
X82058036Y-34538557D02*
X82105655Y-34490938D01*
X82105655Y-34490938D02*
X82200893Y-34443319D01*
X82200893Y-34443319D02*
X82438988Y-34443319D01*
X82438988Y-34443319D02*
X82581845Y-34490938D01*
X82915179Y-34443319D02*
X83153274Y-35443319D01*
X83153274Y-35443319D02*
X83343750Y-34729033D01*
X83343750Y-34729033D02*
X83534226Y-35443319D01*
X83534226Y-35443319D02*
X83772322Y-34443319D01*
X84058036Y-34443319D02*
X84677083Y-34443319D01*
X84677083Y-34443319D02*
X84343750Y-34824271D01*
X84343750Y-34824271D02*
X84486607Y-34824271D01*
X84486607Y-34824271D02*
X84581845Y-34871890D01*
X84581845Y-34871890D02*
X84629464Y-34919509D01*
X84629464Y-34919509D02*
X84677083Y-35014747D01*
X84677083Y-35014747D02*
X84677083Y-35252842D01*
X84677083Y-35252842D02*
X84629464Y-35348080D01*
X84629464Y-35348080D02*
X84581845Y-35395700D01*
X84581845Y-35395700D02*
X84486607Y-35443319D01*
X84486607Y-35443319D02*
X84200893Y-35443319D01*
X84200893Y-35443319D02*
X84105655Y-35395700D01*
X84105655Y-35395700D02*
X84058036Y-35348080D01*
X43910417Y-35395700D02*
X44053274Y-35443319D01*
X44053274Y-35443319D02*
X44291369Y-35443319D01*
X44291369Y-35443319D02*
X44386607Y-35395700D01*
X44386607Y-35395700D02*
X44434226Y-35348080D01*
X44434226Y-35348080D02*
X44481845Y-35252842D01*
X44481845Y-35252842D02*
X44481845Y-35157604D01*
X44481845Y-35157604D02*
X44434226Y-35062366D01*
X44434226Y-35062366D02*
X44386607Y-35014747D01*
X44386607Y-35014747D02*
X44291369Y-34967128D01*
X44291369Y-34967128D02*
X44100893Y-34919509D01*
X44100893Y-34919509D02*
X44005655Y-34871890D01*
X44005655Y-34871890D02*
X43958036Y-34824271D01*
X43958036Y-34824271D02*
X43910417Y-34729033D01*
X43910417Y-34729033D02*
X43910417Y-34633795D01*
X43910417Y-34633795D02*
X43958036Y-34538557D01*
X43958036Y-34538557D02*
X44005655Y-34490938D01*
X44005655Y-34490938D02*
X44100893Y-34443319D01*
X44100893Y-34443319D02*
X44338988Y-34443319D01*
X44338988Y-34443319D02*
X44481845Y-34490938D01*
X44815179Y-34443319D02*
X45053274Y-35443319D01*
X45053274Y-35443319D02*
X45243750Y-34729033D01*
X45243750Y-34729033D02*
X45434226Y-35443319D01*
X45434226Y-35443319D02*
X45672322Y-34443319D01*
X46577083Y-35443319D02*
X46005655Y-35443319D01*
X46291369Y-35443319D02*
X46291369Y-34443319D01*
X46291369Y-34443319D02*
X46196131Y-34586176D01*
X46196131Y-34586176D02*
X46100893Y-34681414D01*
X46100893Y-34681414D02*
X46005655Y-34729033D01*
X62960417Y-54445700D02*
X63103274Y-54493319D01*
X63103274Y-54493319D02*
X63341369Y-54493319D01*
X63341369Y-54493319D02*
X63436607Y-54445700D01*
X63436607Y-54445700D02*
X63484226Y-54398080D01*
X63484226Y-54398080D02*
X63531845Y-54302842D01*
X63531845Y-54302842D02*
X63531845Y-54207604D01*
X63531845Y-54207604D02*
X63484226Y-54112366D01*
X63484226Y-54112366D02*
X63436607Y-54064747D01*
X63436607Y-54064747D02*
X63341369Y-54017128D01*
X63341369Y-54017128D02*
X63150893Y-53969509D01*
X63150893Y-53969509D02*
X63055655Y-53921890D01*
X63055655Y-53921890D02*
X63008036Y-53874271D01*
X63008036Y-53874271D02*
X62960417Y-53779033D01*
X62960417Y-53779033D02*
X62960417Y-53683795D01*
X62960417Y-53683795D02*
X63008036Y-53588557D01*
X63008036Y-53588557D02*
X63055655Y-53540938D01*
X63055655Y-53540938D02*
X63150893Y-53493319D01*
X63150893Y-53493319D02*
X63388988Y-53493319D01*
X63388988Y-53493319D02*
X63531845Y-53540938D01*
X63865179Y-53493319D02*
X64103274Y-54493319D01*
X64103274Y-54493319D02*
X64293750Y-53779033D01*
X64293750Y-53779033D02*
X64484226Y-54493319D01*
X64484226Y-54493319D02*
X64722322Y-53493319D01*
X65008036Y-53493319D02*
X65674702Y-53493319D01*
X65674702Y-53493319D02*
X65246131Y-54493319D01*
X115111905Y-88489819D02*
X115111905Y-87489819D01*
X115111905Y-87489819D02*
X115350000Y-87489819D01*
X115350000Y-87489819D02*
X115492857Y-87537438D01*
X115492857Y-87537438D02*
X115588095Y-87632676D01*
X115588095Y-87632676D02*
X115635714Y-87727914D01*
X115635714Y-87727914D02*
X115683333Y-87918390D01*
X115683333Y-87918390D02*
X115683333Y-88061247D01*
X115683333Y-88061247D02*
X115635714Y-88251723D01*
X115635714Y-88251723D02*
X115588095Y-88346961D01*
X115588095Y-88346961D02*
X115492857Y-88442200D01*
X115492857Y-88442200D02*
X115350000Y-88489819D01*
X115350000Y-88489819D02*
X115111905Y-88489819D01*
X116064286Y-87585057D02*
X116111905Y-87537438D01*
X116111905Y-87537438D02*
X116207143Y-87489819D01*
X116207143Y-87489819D02*
X116445238Y-87489819D01*
X116445238Y-87489819D02*
X116540476Y-87537438D01*
X116540476Y-87537438D02*
X116588095Y-87585057D01*
X116588095Y-87585057D02*
X116635714Y-87680295D01*
X116635714Y-87680295D02*
X116635714Y-87775533D01*
X116635714Y-87775533D02*
X116588095Y-87918390D01*
X116588095Y-87918390D02*
X116016667Y-88489819D01*
X116016667Y-88489819D02*
X116635714Y-88489819D01*
X112878571Y-90272295D02*
X112421428Y-90272295D01*
X112650000Y-90272295D02*
X112650000Y-89472295D01*
X112650000Y-89472295D02*
X112573809Y-89586580D01*
X112573809Y-89586580D02*
X112497619Y-89662771D01*
X112497619Y-89662771D02*
X112421428Y-89700866D01*
X103185714Y-83404819D02*
X103185714Y-82404819D01*
X103185714Y-82404819D02*
X103423809Y-82404819D01*
X103423809Y-82404819D02*
X103566666Y-82452438D01*
X103566666Y-82452438D02*
X103661904Y-82547676D01*
X103661904Y-82547676D02*
X103709523Y-82642914D01*
X103709523Y-82642914D02*
X103757142Y-82833390D01*
X103757142Y-82833390D02*
X103757142Y-82976247D01*
X103757142Y-82976247D02*
X103709523Y-83166723D01*
X103709523Y-83166723D02*
X103661904Y-83261961D01*
X103661904Y-83261961D02*
X103566666Y-83357200D01*
X103566666Y-83357200D02*
X103423809Y-83404819D01*
X103423809Y-83404819D02*
X103185714Y-83404819D01*
X104709523Y-83404819D02*
X104138095Y-83404819D01*
X104423809Y-83404819D02*
X104423809Y-82404819D01*
X104423809Y-82404819D02*
X104328571Y-82547676D01*
X104328571Y-82547676D02*
X104233333Y-82642914D01*
X104233333Y-82642914D02*
X104138095Y-82690533D01*
X105566666Y-82738152D02*
X105566666Y-83404819D01*
X105328571Y-82357200D02*
X105090476Y-83071485D01*
X105090476Y-83071485D02*
X105709523Y-83071485D01*
X101428571Y-85187295D02*
X100971428Y-85187295D01*
X101200000Y-85187295D02*
X101200000Y-84387295D01*
X101200000Y-84387295D02*
X101123809Y-84501580D01*
X101123809Y-84501580D02*
X101047619Y-84577771D01*
X101047619Y-84577771D02*
X100971428Y-84615866D01*
X134024819Y-82324285D02*
X133024819Y-82324285D01*
X133024819Y-82324285D02*
X133024819Y-82086190D01*
X133024819Y-82086190D02*
X133072438Y-81943333D01*
X133072438Y-81943333D02*
X133167676Y-81848095D01*
X133167676Y-81848095D02*
X133262914Y-81800476D01*
X133262914Y-81800476D02*
X133453390Y-81752857D01*
X133453390Y-81752857D02*
X133596247Y-81752857D01*
X133596247Y-81752857D02*
X133786723Y-81800476D01*
X133786723Y-81800476D02*
X133881961Y-81848095D01*
X133881961Y-81848095D02*
X133977200Y-81943333D01*
X133977200Y-81943333D02*
X134024819Y-82086190D01*
X134024819Y-82086190D02*
X134024819Y-82324285D01*
X134024819Y-80800476D02*
X134024819Y-81371904D01*
X134024819Y-81086190D02*
X133024819Y-81086190D01*
X133024819Y-81086190D02*
X133167676Y-81181428D01*
X133167676Y-81181428D02*
X133262914Y-81276666D01*
X133262914Y-81276666D02*
X133310533Y-81371904D01*
X133024819Y-80467142D02*
X133024819Y-79848095D01*
X133024819Y-79848095D02*
X133405771Y-80181428D01*
X133405771Y-80181428D02*
X133405771Y-80038571D01*
X133405771Y-80038571D02*
X133453390Y-79943333D01*
X133453390Y-79943333D02*
X133501009Y-79895714D01*
X133501009Y-79895714D02*
X133596247Y-79848095D01*
X133596247Y-79848095D02*
X133834342Y-79848095D01*
X133834342Y-79848095D02*
X133929580Y-79895714D01*
X133929580Y-79895714D02*
X133977200Y-79943333D01*
X133977200Y-79943333D02*
X134024819Y-80038571D01*
X134024819Y-80038571D02*
X134024819Y-80324285D01*
X134024819Y-80324285D02*
X133977200Y-80419523D01*
X133977200Y-80419523D02*
X133929580Y-80467142D01*
X133454819Y-77561904D02*
X132454819Y-77561904D01*
X133454819Y-76990476D02*
X132883390Y-77419047D01*
X132454819Y-76990476D02*
X133026247Y-77561904D01*
X103185714Y-98804819D02*
X103185714Y-97804819D01*
X103185714Y-97804819D02*
X103423809Y-97804819D01*
X103423809Y-97804819D02*
X103566666Y-97852438D01*
X103566666Y-97852438D02*
X103661904Y-97947676D01*
X103661904Y-97947676D02*
X103709523Y-98042914D01*
X103709523Y-98042914D02*
X103757142Y-98233390D01*
X103757142Y-98233390D02*
X103757142Y-98376247D01*
X103757142Y-98376247D02*
X103709523Y-98566723D01*
X103709523Y-98566723D02*
X103661904Y-98661961D01*
X103661904Y-98661961D02*
X103566666Y-98757200D01*
X103566666Y-98757200D02*
X103423809Y-98804819D01*
X103423809Y-98804819D02*
X103185714Y-98804819D01*
X104709523Y-98804819D02*
X104138095Y-98804819D01*
X104423809Y-98804819D02*
X104423809Y-97804819D01*
X104423809Y-97804819D02*
X104328571Y-97947676D01*
X104328571Y-97947676D02*
X104233333Y-98042914D01*
X104233333Y-98042914D02*
X104138095Y-98090533D01*
X105566666Y-97804819D02*
X105376190Y-97804819D01*
X105376190Y-97804819D02*
X105280952Y-97852438D01*
X105280952Y-97852438D02*
X105233333Y-97900057D01*
X105233333Y-97900057D02*
X105138095Y-98042914D01*
X105138095Y-98042914D02*
X105090476Y-98233390D01*
X105090476Y-98233390D02*
X105090476Y-98614342D01*
X105090476Y-98614342D02*
X105138095Y-98709580D01*
X105138095Y-98709580D02*
X105185714Y-98757200D01*
X105185714Y-98757200D02*
X105280952Y-98804819D01*
X105280952Y-98804819D02*
X105471428Y-98804819D01*
X105471428Y-98804819D02*
X105566666Y-98757200D01*
X105566666Y-98757200D02*
X105614285Y-98709580D01*
X105614285Y-98709580D02*
X105661904Y-98614342D01*
X105661904Y-98614342D02*
X105661904Y-98376247D01*
X105661904Y-98376247D02*
X105614285Y-98281009D01*
X105614285Y-98281009D02*
X105566666Y-98233390D01*
X105566666Y-98233390D02*
X105471428Y-98185771D01*
X105471428Y-98185771D02*
X105280952Y-98185771D01*
X105280952Y-98185771D02*
X105185714Y-98233390D01*
X105185714Y-98233390D02*
X105138095Y-98281009D01*
X105138095Y-98281009D02*
X105090476Y-98376247D01*
X101428571Y-100587295D02*
X100971428Y-100587295D01*
X101200000Y-100587295D02*
X101200000Y-99787295D01*
X101200000Y-99787295D02*
X101123809Y-99901580D01*
X101123809Y-99901580D02*
X101047619Y-99977771D01*
X101047619Y-99977771D02*
X100971428Y-100015866D01*
X101060417Y-35395700D02*
X101203274Y-35443319D01*
X101203274Y-35443319D02*
X101441369Y-35443319D01*
X101441369Y-35443319D02*
X101536607Y-35395700D01*
X101536607Y-35395700D02*
X101584226Y-35348080D01*
X101584226Y-35348080D02*
X101631845Y-35252842D01*
X101631845Y-35252842D02*
X101631845Y-35157604D01*
X101631845Y-35157604D02*
X101584226Y-35062366D01*
X101584226Y-35062366D02*
X101536607Y-35014747D01*
X101536607Y-35014747D02*
X101441369Y-34967128D01*
X101441369Y-34967128D02*
X101250893Y-34919509D01*
X101250893Y-34919509D02*
X101155655Y-34871890D01*
X101155655Y-34871890D02*
X101108036Y-34824271D01*
X101108036Y-34824271D02*
X101060417Y-34729033D01*
X101060417Y-34729033D02*
X101060417Y-34633795D01*
X101060417Y-34633795D02*
X101108036Y-34538557D01*
X101108036Y-34538557D02*
X101155655Y-34490938D01*
X101155655Y-34490938D02*
X101250893Y-34443319D01*
X101250893Y-34443319D02*
X101488988Y-34443319D01*
X101488988Y-34443319D02*
X101631845Y-34490938D01*
X101965179Y-34443319D02*
X102203274Y-35443319D01*
X102203274Y-35443319D02*
X102393750Y-34729033D01*
X102393750Y-34729033D02*
X102584226Y-35443319D01*
X102584226Y-35443319D02*
X102822322Y-34443319D01*
X103631845Y-34776652D02*
X103631845Y-35443319D01*
X103393750Y-34395700D02*
X103155655Y-35109985D01*
X103155655Y-35109985D02*
X103774702Y-35109985D01*
X103235714Y-90809819D02*
X103235714Y-89809819D01*
X103235714Y-89809819D02*
X103473809Y-89809819D01*
X103473809Y-89809819D02*
X103616666Y-89857438D01*
X103616666Y-89857438D02*
X103711904Y-89952676D01*
X103711904Y-89952676D02*
X103759523Y-90047914D01*
X103759523Y-90047914D02*
X103807142Y-90238390D01*
X103807142Y-90238390D02*
X103807142Y-90381247D01*
X103807142Y-90381247D02*
X103759523Y-90571723D01*
X103759523Y-90571723D02*
X103711904Y-90666961D01*
X103711904Y-90666961D02*
X103616666Y-90762200D01*
X103616666Y-90762200D02*
X103473809Y-90809819D01*
X103473809Y-90809819D02*
X103235714Y-90809819D01*
X104759523Y-90809819D02*
X104188095Y-90809819D01*
X104473809Y-90809819D02*
X104473809Y-89809819D01*
X104473809Y-89809819D02*
X104378571Y-89952676D01*
X104378571Y-89952676D02*
X104283333Y-90047914D01*
X104283333Y-90047914D02*
X104188095Y-90095533D01*
X105664285Y-89809819D02*
X105188095Y-89809819D01*
X105188095Y-89809819D02*
X105140476Y-90286009D01*
X105140476Y-90286009D02*
X105188095Y-90238390D01*
X105188095Y-90238390D02*
X105283333Y-90190771D01*
X105283333Y-90190771D02*
X105521428Y-90190771D01*
X105521428Y-90190771D02*
X105616666Y-90238390D01*
X105616666Y-90238390D02*
X105664285Y-90286009D01*
X105664285Y-90286009D02*
X105711904Y-90381247D01*
X105711904Y-90381247D02*
X105711904Y-90619342D01*
X105711904Y-90619342D02*
X105664285Y-90714580D01*
X105664285Y-90714580D02*
X105616666Y-90762200D01*
X105616666Y-90762200D02*
X105521428Y-90809819D01*
X105521428Y-90809819D02*
X105283333Y-90809819D01*
X105283333Y-90809819D02*
X105188095Y-90762200D01*
X105188095Y-90762200D02*
X105140476Y-90714580D01*
X101478571Y-92592295D02*
X101021428Y-92592295D01*
X101250000Y-92592295D02*
X101250000Y-91792295D01*
X101250000Y-91792295D02*
X101173809Y-91906580D01*
X101173809Y-91906580D02*
X101097619Y-91982771D01*
X101097619Y-91982771D02*
X101021428Y-92020866D01*
X82010417Y-54445700D02*
X82153274Y-54493319D01*
X82153274Y-54493319D02*
X82391369Y-54493319D01*
X82391369Y-54493319D02*
X82486607Y-54445700D01*
X82486607Y-54445700D02*
X82534226Y-54398080D01*
X82534226Y-54398080D02*
X82581845Y-54302842D01*
X82581845Y-54302842D02*
X82581845Y-54207604D01*
X82581845Y-54207604D02*
X82534226Y-54112366D01*
X82534226Y-54112366D02*
X82486607Y-54064747D01*
X82486607Y-54064747D02*
X82391369Y-54017128D01*
X82391369Y-54017128D02*
X82200893Y-53969509D01*
X82200893Y-53969509D02*
X82105655Y-53921890D01*
X82105655Y-53921890D02*
X82058036Y-53874271D01*
X82058036Y-53874271D02*
X82010417Y-53779033D01*
X82010417Y-53779033D02*
X82010417Y-53683795D01*
X82010417Y-53683795D02*
X82058036Y-53588557D01*
X82058036Y-53588557D02*
X82105655Y-53540938D01*
X82105655Y-53540938D02*
X82200893Y-53493319D01*
X82200893Y-53493319D02*
X82438988Y-53493319D01*
X82438988Y-53493319D02*
X82581845Y-53540938D01*
X82915179Y-53493319D02*
X83153274Y-54493319D01*
X83153274Y-54493319D02*
X83343750Y-53779033D01*
X83343750Y-53779033D02*
X83534226Y-54493319D01*
X83534226Y-54493319D02*
X83772322Y-53493319D01*
X84296131Y-53921890D02*
X84200893Y-53874271D01*
X84200893Y-53874271D02*
X84153274Y-53826652D01*
X84153274Y-53826652D02*
X84105655Y-53731414D01*
X84105655Y-53731414D02*
X84105655Y-53683795D01*
X84105655Y-53683795D02*
X84153274Y-53588557D01*
X84153274Y-53588557D02*
X84200893Y-53540938D01*
X84200893Y-53540938D02*
X84296131Y-53493319D01*
X84296131Y-53493319D02*
X84486607Y-53493319D01*
X84486607Y-53493319D02*
X84581845Y-53540938D01*
X84581845Y-53540938D02*
X84629464Y-53588557D01*
X84629464Y-53588557D02*
X84677083Y-53683795D01*
X84677083Y-53683795D02*
X84677083Y-53731414D01*
X84677083Y-53731414D02*
X84629464Y-53826652D01*
X84629464Y-53826652D02*
X84581845Y-53874271D01*
X84581845Y-53874271D02*
X84486607Y-53921890D01*
X84486607Y-53921890D02*
X84296131Y-53921890D01*
X84296131Y-53921890D02*
X84200893Y-53969509D01*
X84200893Y-53969509D02*
X84153274Y-54017128D01*
X84153274Y-54017128D02*
X84105655Y-54112366D01*
X84105655Y-54112366D02*
X84105655Y-54302842D01*
X84105655Y-54302842D02*
X84153274Y-54398080D01*
X84153274Y-54398080D02*
X84200893Y-54445700D01*
X84200893Y-54445700D02*
X84296131Y-54493319D01*
X84296131Y-54493319D02*
X84486607Y-54493319D01*
X84486607Y-54493319D02*
X84581845Y-54445700D01*
X84581845Y-54445700D02*
X84629464Y-54398080D01*
X84629464Y-54398080D02*
X84677083Y-54302842D01*
X84677083Y-54302842D02*
X84677083Y-54112366D01*
X84677083Y-54112366D02*
X84629464Y-54017128D01*
X84629464Y-54017128D02*
X84581845Y-53969509D01*
X84581845Y-53969509D02*
X84486607Y-53921890D01*
X109751905Y-75884819D02*
X109751905Y-74884819D01*
X109751905Y-74884819D02*
X109990000Y-74884819D01*
X109990000Y-74884819D02*
X110132857Y-74932438D01*
X110132857Y-74932438D02*
X110228095Y-75027676D01*
X110228095Y-75027676D02*
X110275714Y-75122914D01*
X110275714Y-75122914D02*
X110323333Y-75313390D01*
X110323333Y-75313390D02*
X110323333Y-75456247D01*
X110323333Y-75456247D02*
X110275714Y-75646723D01*
X110275714Y-75646723D02*
X110228095Y-75741961D01*
X110228095Y-75741961D02*
X110132857Y-75837200D01*
X110132857Y-75837200D02*
X109990000Y-75884819D01*
X109990000Y-75884819D02*
X109751905Y-75884819D01*
X111180476Y-74884819D02*
X110990000Y-74884819D01*
X110990000Y-74884819D02*
X110894762Y-74932438D01*
X110894762Y-74932438D02*
X110847143Y-74980057D01*
X110847143Y-74980057D02*
X110751905Y-75122914D01*
X110751905Y-75122914D02*
X110704286Y-75313390D01*
X110704286Y-75313390D02*
X110704286Y-75694342D01*
X110704286Y-75694342D02*
X110751905Y-75789580D01*
X110751905Y-75789580D02*
X110799524Y-75837200D01*
X110799524Y-75837200D02*
X110894762Y-75884819D01*
X110894762Y-75884819D02*
X111085238Y-75884819D01*
X111085238Y-75884819D02*
X111180476Y-75837200D01*
X111180476Y-75837200D02*
X111228095Y-75789580D01*
X111228095Y-75789580D02*
X111275714Y-75694342D01*
X111275714Y-75694342D02*
X111275714Y-75456247D01*
X111275714Y-75456247D02*
X111228095Y-75361009D01*
X111228095Y-75361009D02*
X111180476Y-75313390D01*
X111180476Y-75313390D02*
X111085238Y-75265771D01*
X111085238Y-75265771D02*
X110894762Y-75265771D01*
X110894762Y-75265771D02*
X110799524Y-75313390D01*
X110799524Y-75313390D02*
X110751905Y-75361009D01*
X110751905Y-75361009D02*
X110704286Y-75456247D01*
X106418095Y-76454819D02*
X106418095Y-75454819D01*
X106989523Y-76454819D02*
X106560952Y-75883390D01*
X106989523Y-75454819D02*
X106418095Y-76026247D01*
X40561905Y-75584819D02*
X40561905Y-74584819D01*
X40561905Y-74584819D02*
X40800000Y-74584819D01*
X40800000Y-74584819D02*
X40942857Y-74632438D01*
X40942857Y-74632438D02*
X41038095Y-74727676D01*
X41038095Y-74727676D02*
X41085714Y-74822914D01*
X41085714Y-74822914D02*
X41133333Y-75013390D01*
X41133333Y-75013390D02*
X41133333Y-75156247D01*
X41133333Y-75156247D02*
X41085714Y-75346723D01*
X41085714Y-75346723D02*
X41038095Y-75441961D01*
X41038095Y-75441961D02*
X40942857Y-75537200D01*
X40942857Y-75537200D02*
X40800000Y-75584819D01*
X40800000Y-75584819D02*
X40561905Y-75584819D01*
X42038095Y-74584819D02*
X41561905Y-74584819D01*
X41561905Y-74584819D02*
X41514286Y-75061009D01*
X41514286Y-75061009D02*
X41561905Y-75013390D01*
X41561905Y-75013390D02*
X41657143Y-74965771D01*
X41657143Y-74965771D02*
X41895238Y-74965771D01*
X41895238Y-74965771D02*
X41990476Y-75013390D01*
X41990476Y-75013390D02*
X42038095Y-75061009D01*
X42038095Y-75061009D02*
X42085714Y-75156247D01*
X42085714Y-75156247D02*
X42085714Y-75394342D01*
X42085714Y-75394342D02*
X42038095Y-75489580D01*
X42038095Y-75489580D02*
X41990476Y-75537200D01*
X41990476Y-75537200D02*
X41895238Y-75584819D01*
X41895238Y-75584819D02*
X41657143Y-75584819D01*
X41657143Y-75584819D02*
X41561905Y-75537200D01*
X41561905Y-75537200D02*
X41514286Y-75489580D01*
X37228095Y-76154819D02*
X37228095Y-75154819D01*
X37799523Y-76154819D02*
X37370952Y-75583390D01*
X37799523Y-75154819D02*
X37228095Y-75726247D01*
X40465476Y-85307200D02*
X40608333Y-85354819D01*
X40608333Y-85354819D02*
X40846428Y-85354819D01*
X40846428Y-85354819D02*
X40941666Y-85307200D01*
X40941666Y-85307200D02*
X40989285Y-85259580D01*
X40989285Y-85259580D02*
X41036904Y-85164342D01*
X41036904Y-85164342D02*
X41036904Y-85069104D01*
X41036904Y-85069104D02*
X40989285Y-84973866D01*
X40989285Y-84973866D02*
X40941666Y-84926247D01*
X40941666Y-84926247D02*
X40846428Y-84878628D01*
X40846428Y-84878628D02*
X40655952Y-84831009D01*
X40655952Y-84831009D02*
X40560714Y-84783390D01*
X40560714Y-84783390D02*
X40513095Y-84735771D01*
X40513095Y-84735771D02*
X40465476Y-84640533D01*
X40465476Y-84640533D02*
X40465476Y-84545295D01*
X40465476Y-84545295D02*
X40513095Y-84450057D01*
X40513095Y-84450057D02*
X40560714Y-84402438D01*
X40560714Y-84402438D02*
X40655952Y-84354819D01*
X40655952Y-84354819D02*
X40894047Y-84354819D01*
X40894047Y-84354819D02*
X41036904Y-84402438D01*
X41370238Y-84354819D02*
X41608333Y-85354819D01*
X41608333Y-85354819D02*
X41798809Y-84640533D01*
X41798809Y-84640533D02*
X41989285Y-85354819D01*
X41989285Y-85354819D02*
X42227381Y-84354819D01*
X43132142Y-85354819D02*
X42560714Y-85354819D01*
X42846428Y-85354819D02*
X42846428Y-84354819D01*
X42846428Y-84354819D02*
X42751190Y-84497676D01*
X42751190Y-84497676D02*
X42655952Y-84592914D01*
X42655952Y-84592914D02*
X42560714Y-84640533D01*
X43751190Y-84354819D02*
X43846428Y-84354819D01*
X43846428Y-84354819D02*
X43941666Y-84402438D01*
X43941666Y-84402438D02*
X43989285Y-84450057D01*
X43989285Y-84450057D02*
X44036904Y-84545295D01*
X44036904Y-84545295D02*
X44084523Y-84735771D01*
X44084523Y-84735771D02*
X44084523Y-84973866D01*
X44084523Y-84973866D02*
X44036904Y-85164342D01*
X44036904Y-85164342D02*
X43989285Y-85259580D01*
X43989285Y-85259580D02*
X43941666Y-85307200D01*
X43941666Y-85307200D02*
X43846428Y-85354819D01*
X43846428Y-85354819D02*
X43751190Y-85354819D01*
X43751190Y-85354819D02*
X43655952Y-85307200D01*
X43655952Y-85307200D02*
X43608333Y-85259580D01*
X43608333Y-85259580D02*
X43560714Y-85164342D01*
X43560714Y-85164342D02*
X43513095Y-84973866D01*
X43513095Y-84973866D02*
X43513095Y-84735771D01*
X43513095Y-84735771D02*
X43560714Y-84545295D01*
X43560714Y-84545295D02*
X43608333Y-84450057D01*
X43608333Y-84450057D02*
X43655952Y-84402438D01*
X43655952Y-84402438D02*
X43751190Y-84354819D01*
X115111905Y-83369819D02*
X115111905Y-82369819D01*
X115111905Y-82369819D02*
X115350000Y-82369819D01*
X115350000Y-82369819D02*
X115492857Y-82417438D01*
X115492857Y-82417438D02*
X115588095Y-82512676D01*
X115588095Y-82512676D02*
X115635714Y-82607914D01*
X115635714Y-82607914D02*
X115683333Y-82798390D01*
X115683333Y-82798390D02*
X115683333Y-82941247D01*
X115683333Y-82941247D02*
X115635714Y-83131723D01*
X115635714Y-83131723D02*
X115588095Y-83226961D01*
X115588095Y-83226961D02*
X115492857Y-83322200D01*
X115492857Y-83322200D02*
X115350000Y-83369819D01*
X115350000Y-83369819D02*
X115111905Y-83369819D01*
X116635714Y-83369819D02*
X116064286Y-83369819D01*
X116350000Y-83369819D02*
X116350000Y-82369819D01*
X116350000Y-82369819D02*
X116254762Y-82512676D01*
X116254762Y-82512676D02*
X116159524Y-82607914D01*
X116159524Y-82607914D02*
X116064286Y-82655533D01*
X112878571Y-85152295D02*
X112421428Y-85152295D01*
X112650000Y-85152295D02*
X112650000Y-84352295D01*
X112650000Y-84352295D02*
X112573809Y-84466580D01*
X112573809Y-84466580D02*
X112497619Y-84542771D01*
X112497619Y-84542771D02*
X112421428Y-84580866D01*
X115111905Y-98729819D02*
X115111905Y-97729819D01*
X115111905Y-97729819D02*
X115350000Y-97729819D01*
X115350000Y-97729819D02*
X115492857Y-97777438D01*
X115492857Y-97777438D02*
X115588095Y-97872676D01*
X115588095Y-97872676D02*
X115635714Y-97967914D01*
X115635714Y-97967914D02*
X115683333Y-98158390D01*
X115683333Y-98158390D02*
X115683333Y-98301247D01*
X115683333Y-98301247D02*
X115635714Y-98491723D01*
X115635714Y-98491723D02*
X115588095Y-98586961D01*
X115588095Y-98586961D02*
X115492857Y-98682200D01*
X115492857Y-98682200D02*
X115350000Y-98729819D01*
X115350000Y-98729819D02*
X115111905Y-98729819D01*
X116540476Y-98063152D02*
X116540476Y-98729819D01*
X116302381Y-97682200D02*
X116064286Y-98396485D01*
X116064286Y-98396485D02*
X116683333Y-98396485D01*
X112878571Y-100512295D02*
X112421428Y-100512295D01*
X112650000Y-100512295D02*
X112650000Y-99712295D01*
X112650000Y-99712295D02*
X112573809Y-99826580D01*
X112573809Y-99826580D02*
X112497619Y-99902771D01*
X112497619Y-99902771D02*
X112421428Y-99940866D01*
X43910417Y-54445700D02*
X44053274Y-54493319D01*
X44053274Y-54493319D02*
X44291369Y-54493319D01*
X44291369Y-54493319D02*
X44386607Y-54445700D01*
X44386607Y-54445700D02*
X44434226Y-54398080D01*
X44434226Y-54398080D02*
X44481845Y-54302842D01*
X44481845Y-54302842D02*
X44481845Y-54207604D01*
X44481845Y-54207604D02*
X44434226Y-54112366D01*
X44434226Y-54112366D02*
X44386607Y-54064747D01*
X44386607Y-54064747D02*
X44291369Y-54017128D01*
X44291369Y-54017128D02*
X44100893Y-53969509D01*
X44100893Y-53969509D02*
X44005655Y-53921890D01*
X44005655Y-53921890D02*
X43958036Y-53874271D01*
X43958036Y-53874271D02*
X43910417Y-53779033D01*
X43910417Y-53779033D02*
X43910417Y-53683795D01*
X43910417Y-53683795D02*
X43958036Y-53588557D01*
X43958036Y-53588557D02*
X44005655Y-53540938D01*
X44005655Y-53540938D02*
X44100893Y-53493319D01*
X44100893Y-53493319D02*
X44338988Y-53493319D01*
X44338988Y-53493319D02*
X44481845Y-53540938D01*
X44815179Y-53493319D02*
X45053274Y-54493319D01*
X45053274Y-54493319D02*
X45243750Y-53779033D01*
X45243750Y-53779033D02*
X45434226Y-54493319D01*
X45434226Y-54493319D02*
X45672322Y-53493319D01*
X46481845Y-53493319D02*
X46291369Y-53493319D01*
X46291369Y-53493319D02*
X46196131Y-53540938D01*
X46196131Y-53540938D02*
X46148512Y-53588557D01*
X46148512Y-53588557D02*
X46053274Y-53731414D01*
X46053274Y-53731414D02*
X46005655Y-53921890D01*
X46005655Y-53921890D02*
X46005655Y-54302842D01*
X46005655Y-54302842D02*
X46053274Y-54398080D01*
X46053274Y-54398080D02*
X46100893Y-54445700D01*
X46100893Y-54445700D02*
X46196131Y-54493319D01*
X46196131Y-54493319D02*
X46386607Y-54493319D01*
X46386607Y-54493319D02*
X46481845Y-54445700D01*
X46481845Y-54445700D02*
X46529464Y-54398080D01*
X46529464Y-54398080D02*
X46577083Y-54302842D01*
X46577083Y-54302842D02*
X46577083Y-54064747D01*
X46577083Y-54064747D02*
X46529464Y-53969509D01*
X46529464Y-53969509D02*
X46481845Y-53921890D01*
X46481845Y-53921890D02*
X46386607Y-53874271D01*
X46386607Y-53874271D02*
X46196131Y-53874271D01*
X46196131Y-53874271D02*
X46100893Y-53921890D01*
X46100893Y-53921890D02*
X46053274Y-53969509D01*
X46053274Y-53969509D02*
X46005655Y-54064747D01*
X62751905Y-75684819D02*
X62751905Y-74684819D01*
X62751905Y-74684819D02*
X62990000Y-74684819D01*
X62990000Y-74684819D02*
X63132857Y-74732438D01*
X63132857Y-74732438D02*
X63228095Y-74827676D01*
X63228095Y-74827676D02*
X63275714Y-74922914D01*
X63275714Y-74922914D02*
X63323333Y-75113390D01*
X63323333Y-75113390D02*
X63323333Y-75256247D01*
X63323333Y-75256247D02*
X63275714Y-75446723D01*
X63275714Y-75446723D02*
X63228095Y-75541961D01*
X63228095Y-75541961D02*
X63132857Y-75637200D01*
X63132857Y-75637200D02*
X62990000Y-75684819D01*
X62990000Y-75684819D02*
X62751905Y-75684819D01*
X63894762Y-75113390D02*
X63799524Y-75065771D01*
X63799524Y-75065771D02*
X63751905Y-75018152D01*
X63751905Y-75018152D02*
X63704286Y-74922914D01*
X63704286Y-74922914D02*
X63704286Y-74875295D01*
X63704286Y-74875295D02*
X63751905Y-74780057D01*
X63751905Y-74780057D02*
X63799524Y-74732438D01*
X63799524Y-74732438D02*
X63894762Y-74684819D01*
X63894762Y-74684819D02*
X64085238Y-74684819D01*
X64085238Y-74684819D02*
X64180476Y-74732438D01*
X64180476Y-74732438D02*
X64228095Y-74780057D01*
X64228095Y-74780057D02*
X64275714Y-74875295D01*
X64275714Y-74875295D02*
X64275714Y-74922914D01*
X64275714Y-74922914D02*
X64228095Y-75018152D01*
X64228095Y-75018152D02*
X64180476Y-75065771D01*
X64180476Y-75065771D02*
X64085238Y-75113390D01*
X64085238Y-75113390D02*
X63894762Y-75113390D01*
X63894762Y-75113390D02*
X63799524Y-75161009D01*
X63799524Y-75161009D02*
X63751905Y-75208628D01*
X63751905Y-75208628D02*
X63704286Y-75303866D01*
X63704286Y-75303866D02*
X63704286Y-75494342D01*
X63704286Y-75494342D02*
X63751905Y-75589580D01*
X63751905Y-75589580D02*
X63799524Y-75637200D01*
X63799524Y-75637200D02*
X63894762Y-75684819D01*
X63894762Y-75684819D02*
X64085238Y-75684819D01*
X64085238Y-75684819D02*
X64180476Y-75637200D01*
X64180476Y-75637200D02*
X64228095Y-75589580D01*
X64228095Y-75589580D02*
X64275714Y-75494342D01*
X64275714Y-75494342D02*
X64275714Y-75303866D01*
X64275714Y-75303866D02*
X64228095Y-75208628D01*
X64228095Y-75208628D02*
X64180476Y-75161009D01*
X64180476Y-75161009D02*
X64085238Y-75113390D01*
X59418095Y-76254819D02*
X59418095Y-75254819D01*
X59989523Y-76254819D02*
X59560952Y-75683390D01*
X59989523Y-75254819D02*
X59418095Y-75826247D01*
D11*
%TO.C,D7*%
X72080000Y-76130000D02*
X77520000Y-76130000D01*
X72080000Y-76460000D02*
X72080000Y-76130000D01*
X72080000Y-78740000D02*
X72080000Y-79070000D01*
X72080000Y-79070000D02*
X77520000Y-79070000D01*
X72860000Y-76130000D02*
X72860000Y-79070000D01*
X72980000Y-76130000D02*
X72980000Y-79070000D01*
X73100000Y-76130000D02*
X73100000Y-79070000D01*
X77520000Y-76130000D02*
X77520000Y-76460000D01*
X77520000Y-79070000D02*
X77520000Y-78740000D01*
%TO.C,SW5*%
X114458750Y-35877500D02*
X128428750Y-35877500D01*
X114458750Y-49847500D02*
X114458750Y-35877500D01*
X128428750Y-35877500D02*
X128428750Y-49847500D01*
X128428750Y-49847500D02*
X114458750Y-49847500D01*
%TO.C,D3*%
X113050000Y-93905000D02*
X113050000Y-97905000D01*
X113050000Y-93905000D02*
X118650000Y-93905000D01*
X113050000Y-97905000D02*
X118050000Y-97905000D01*
X118650000Y-97305000D02*
X118050000Y-97905000D01*
X118650000Y-97305000D02*
X118650000Y-93905000D01*
%TO.C,D12*%
X49880000Y-76130000D02*
X55320000Y-76130000D01*
X49880000Y-76460000D02*
X49880000Y-76130000D01*
X49880000Y-78740000D02*
X49880000Y-79070000D01*
X49880000Y-79070000D02*
X55320000Y-79070000D01*
X50660000Y-76130000D02*
X50660000Y-79070000D01*
X50780000Y-76130000D02*
X50780000Y-79070000D01*
X50900000Y-76130000D02*
X50900000Y-79070000D01*
X55320000Y-76130000D02*
X55320000Y-76460000D01*
X55320000Y-79070000D02*
X55320000Y-78740000D01*
%TO.C,D10*%
X95253750Y-76130000D02*
X100693750Y-76130000D01*
X95253750Y-76460000D02*
X95253750Y-76130000D01*
X95253750Y-78740000D02*
X95253750Y-79070000D01*
X95253750Y-79070000D02*
X100693750Y-79070000D01*
X96033750Y-76130000D02*
X96033750Y-79070000D01*
X96153750Y-76130000D02*
X96153750Y-79070000D01*
X96273750Y-76130000D02*
X96273750Y-79070000D01*
X100693750Y-76130000D02*
X100693750Y-76460000D01*
X100693750Y-79070000D02*
X100693750Y-78740000D01*
%TO.C,SW9*%
X95408750Y-54927500D02*
X109378750Y-54927500D01*
X95408750Y-68897500D02*
X95408750Y-54927500D01*
X109378750Y-54927500D02*
X109378750Y-68897500D01*
X109378750Y-68897500D02*
X95408750Y-68897500D01*
%TO.C,D11*%
X83170000Y-76330000D02*
X88610000Y-76330000D01*
X83170000Y-76660000D02*
X83170000Y-76330000D01*
X83170000Y-78940000D02*
X83170000Y-79270000D01*
X83170000Y-79270000D02*
X88610000Y-79270000D01*
X83950000Y-76330000D02*
X83950000Y-79270000D01*
X84070000Y-76330000D02*
X84070000Y-79270000D01*
X84190000Y-76330000D02*
X84190000Y-79270000D01*
X88610000Y-76330000D02*
X88610000Y-76660000D01*
X88610000Y-79270000D02*
X88610000Y-78940000D01*
%TO.C,SW2*%
X57308750Y-35877500D02*
X71278750Y-35877500D01*
X57308750Y-49847500D02*
X57308750Y-35877500D01*
X71278750Y-35877500D02*
X71278750Y-49847500D01*
X71278750Y-49847500D02*
X57308750Y-49847500D01*
D12*
%TO.C,J1*%
X58500000Y-86600000D02*
X58500000Y-98600000D01*
X58500000Y-98600000D02*
X96500000Y-98600000D01*
X62000000Y-86600000D02*
X62000000Y-98600000D01*
X91500000Y-86600000D02*
X91500000Y-98600000D01*
X96500000Y-86600000D02*
X58500000Y-86600000D01*
X96500000Y-98600000D02*
X96500000Y-86600000D01*
D11*
%TO.C,D9*%
X119780000Y-76730000D02*
X125220000Y-76730000D01*
X119780000Y-77060000D02*
X119780000Y-76730000D01*
X119780000Y-79340000D02*
X119780000Y-79670000D01*
X119780000Y-79670000D02*
X125220000Y-79670000D01*
X120560000Y-76730000D02*
X120560000Y-79670000D01*
X120680000Y-76730000D02*
X120680000Y-79670000D01*
X120800000Y-76730000D02*
X120800000Y-79670000D01*
X125220000Y-76730000D02*
X125220000Y-77060000D01*
X125220000Y-79670000D02*
X125220000Y-79340000D01*
%TO.C,SW3*%
X76358750Y-35877500D02*
X90328750Y-35877500D01*
X76358750Y-49847500D02*
X76358750Y-35877500D01*
X90328750Y-35877500D02*
X90328750Y-49847500D01*
X90328750Y-49847500D02*
X76358750Y-49847500D01*
%TO.C,SW1*%
X38258750Y-35877500D02*
X52228750Y-35877500D01*
X38258750Y-49847500D02*
X38258750Y-35877500D01*
X52228750Y-35877500D02*
X52228750Y-49847500D01*
X52228750Y-49847500D02*
X38258750Y-49847500D01*
%TO.C,SW7*%
X57308750Y-54927500D02*
X71278750Y-54927500D01*
X57308750Y-68897500D02*
X57308750Y-54927500D01*
X71278750Y-54927500D02*
X71278750Y-68897500D01*
X71278750Y-68897500D02*
X57308750Y-68897500D01*
%TO.C,D2*%
X113050000Y-88785000D02*
X113050000Y-92785000D01*
X113050000Y-88785000D02*
X118650000Y-88785000D01*
X113050000Y-92785000D02*
X118050000Y-92785000D01*
X118650000Y-92185000D02*
X118050000Y-92785000D01*
X118650000Y-92185000D02*
X118650000Y-88785000D01*
%TO.C,D14*%
X101600000Y-83700000D02*
X101600000Y-87700000D01*
X101600000Y-83700000D02*
X107200000Y-83700000D01*
X101600000Y-87700000D02*
X106600000Y-87700000D01*
X107200000Y-87100000D02*
X106600000Y-87700000D01*
X107200000Y-87100000D02*
X107200000Y-83700000D01*
%TO.C,D13*%
X129630000Y-78390000D02*
X129630000Y-83830000D01*
X129630000Y-83830000D02*
X129960000Y-83830000D01*
X129960000Y-78390000D02*
X129630000Y-78390000D01*
X132240000Y-78390000D02*
X132570000Y-78390000D01*
X132570000Y-78390000D02*
X132570000Y-83830000D01*
X132570000Y-79170000D02*
X129630000Y-79170000D01*
X132570000Y-79290000D02*
X129630000Y-79290000D01*
X132570000Y-79410000D02*
X129630000Y-79410000D01*
X132570000Y-83830000D02*
X132240000Y-83830000D01*
%TO.C,D16*%
X101600000Y-99100000D02*
X101600000Y-103100000D01*
X101600000Y-99100000D02*
X107200000Y-99100000D01*
X101600000Y-103100000D02*
X106600000Y-103100000D01*
X107200000Y-102500000D02*
X106600000Y-103100000D01*
X107200000Y-102500000D02*
X107200000Y-99100000D01*
%TO.C,SW4*%
X95408750Y-35877500D02*
X109378750Y-35877500D01*
X95408750Y-49847500D02*
X95408750Y-35877500D01*
X109378750Y-35877500D02*
X109378750Y-49847500D01*
X109378750Y-49847500D02*
X95408750Y-49847500D01*
%TO.C,D15*%
X101650000Y-91105000D02*
X101650000Y-95105000D01*
X101650000Y-91105000D02*
X107250000Y-91105000D01*
X101650000Y-95105000D02*
X106650000Y-95105000D01*
X107250000Y-94505000D02*
X106650000Y-95105000D01*
X107250000Y-94505000D02*
X107250000Y-91105000D01*
%TO.C,SW8*%
X76358750Y-54927500D02*
X90328750Y-54927500D01*
X76358750Y-68897500D02*
X76358750Y-54927500D01*
X90328750Y-54927500D02*
X90328750Y-68897500D01*
X90328750Y-68897500D02*
X76358750Y-68897500D01*
%TO.C,D6*%
X107770000Y-76430000D02*
X113210000Y-76430000D01*
X107770000Y-76760000D02*
X107770000Y-76430000D01*
X107770000Y-79040000D02*
X107770000Y-79370000D01*
X107770000Y-79370000D02*
X113210000Y-79370000D01*
X108550000Y-76430000D02*
X108550000Y-79370000D01*
X108670000Y-76430000D02*
X108670000Y-79370000D01*
X108790000Y-76430000D02*
X108790000Y-79370000D01*
X113210000Y-76430000D02*
X113210000Y-76760000D01*
X113210000Y-79370000D02*
X113210000Y-79040000D01*
%TO.C,D5*%
X38580000Y-76130000D02*
X44020000Y-76130000D01*
X38580000Y-76460000D02*
X38580000Y-76130000D01*
X38580000Y-78740000D02*
X38580000Y-79070000D01*
X38580000Y-79070000D02*
X44020000Y-79070000D01*
X39360000Y-76130000D02*
X39360000Y-79070000D01*
X39480000Y-76130000D02*
X39480000Y-79070000D01*
X39600000Y-76130000D02*
X39600000Y-79070000D01*
X44020000Y-76130000D02*
X44020000Y-76460000D01*
X44020000Y-79070000D02*
X44020000Y-78740000D01*
%TO.C,SW10*%
X39175000Y-88000000D02*
X39775000Y-88000000D01*
X39475000Y-88300000D02*
X39175000Y-88000000D01*
X39775000Y-88000000D02*
X39475000Y-88300000D01*
X40875000Y-86300000D02*
X40875000Y-98000000D01*
X44975000Y-86300000D02*
X40875000Y-86300000D01*
X44975000Y-98000000D02*
X40875000Y-98000000D01*
X46475000Y-92100000D02*
X47475000Y-92100000D01*
X46975000Y-91600000D02*
X46975000Y-92600000D01*
X48975000Y-86200000D02*
X53075000Y-86200000D01*
X53075000Y-86200000D02*
X53075000Y-88800000D01*
X53075000Y-90800000D02*
X53075000Y-93400000D01*
X53075000Y-95400000D02*
X53075000Y-98000000D01*
X53075000Y-98000000D02*
X48975000Y-98000000D01*
X49975000Y-92100000D02*
G75*
G02*
X43975000Y-92100000I-3000000J0D01*
G01*
X43975000Y-92100000D02*
G75*
G02*
X49975000Y-92100000I3000000J0D01*
G01*
%TO.C,D1*%
X113050000Y-83665000D02*
X113050000Y-87665000D01*
X113050000Y-83665000D02*
X118650000Y-83665000D01*
X113050000Y-87665000D02*
X118050000Y-87665000D01*
X118650000Y-87065000D02*
X118050000Y-87665000D01*
X118650000Y-87065000D02*
X118650000Y-83665000D01*
%TO.C,D4*%
X113050000Y-99025000D02*
X113050000Y-103025000D01*
X113050000Y-99025000D02*
X118650000Y-99025000D01*
X113050000Y-103025000D02*
X118050000Y-103025000D01*
X118650000Y-102425000D02*
X118050000Y-103025000D01*
X118650000Y-102425000D02*
X118650000Y-99025000D01*
%TO.C,SW6*%
X38258750Y-54927500D02*
X52228750Y-54927500D01*
X38258750Y-68897500D02*
X38258750Y-54927500D01*
X52228750Y-54927500D02*
X52228750Y-68897500D01*
X52228750Y-68897500D02*
X38258750Y-68897500D01*
%TO.C,D8*%
X60770000Y-76230000D02*
X66210000Y-76230000D01*
X60770000Y-76560000D02*
X60770000Y-76230000D01*
X60770000Y-78840000D02*
X60770000Y-79170000D01*
X60770000Y-79170000D02*
X66210000Y-79170000D01*
X61550000Y-76230000D02*
X61550000Y-79170000D01*
X61670000Y-76230000D02*
X61670000Y-79170000D01*
X61790000Y-76230000D02*
X61790000Y-79170000D01*
X66210000Y-76230000D02*
X66210000Y-76560000D01*
X66210000Y-79170000D02*
X66210000Y-78840000D01*
%TD*%
M02*
