M48
; DRILL file {KiCad 9.0.1} date 2025-05-27T20:30:26-0400
; FORMAT={-:-/ absolute / metric / decimal}
; #@! TF.CreationDate,2025-05-27T20:30:26-04:00
; #@! TF.GenerationSoftware,Kicad,Pcbnew,9.0.1
; #@! TF.FileFunction,NonPlated,1,2,NPTH
FMAT,2
METRIC
; #@! TA.AperFunction,NonPlated,NPTH,ComponentDrill
T1C1.700
; #@! TA.AperFunction,NonPlated,NPTH,ComponentDrill
T2C4.000
%
G90
G05
T1
X40.164Y-42.862
X40.164Y-61.912
X50.324Y-42.862
X50.324Y-61.912
X59.214Y-42.862
X59.214Y-61.912
X69.374Y-42.862
X69.374Y-61.912
X78.264Y-42.862
X78.264Y-61.912
X88.424Y-42.862
X88.424Y-61.912
X97.314Y-42.862
X97.314Y-61.912
X107.474Y-42.862
X107.474Y-61.912
X116.364Y-42.862
X126.524Y-42.862
T2
X45.244Y-42.862
X45.244Y-61.912
X64.294Y-42.862
X64.294Y-61.912
X83.344Y-42.862
X83.344Y-61.912
X102.394Y-42.862
X102.394Y-61.912
X121.444Y-42.862
M30
