%TF.GenerationSoftware,KiCad,Pcbnew,9.0.1*%
%TF.CreationDate,2025-05-27T18:47:11-04:00*%
%TF.ProjectId,hackpad,6861636b-7061-4642-9e6b-696361645f70,rev?*%
%TF.SameCoordinates,Original*%
%TF.FileFunction,Copper,L1,Top*%
%TF.FilePolarity,Positive*%
%FSLAX46Y46*%
G04 Gerber Fmt 4.6, Leading zero omitted, Abs format (unit mm)*
G04 Created by KiCad (PCBNEW 9.0.1) date 2025-05-27 18:47:11*
%MOMM*%
%LPD*%
G01*
G04 APERTURE LIST*
%TA.AperFunction,ComponentPad*%
%ADD10R,1.800000X1.800000*%
%TD*%
%TA.AperFunction,ComponentPad*%
%ADD11O,1.800000X1.800000*%
%TD*%
%TA.AperFunction,ComponentPad*%
%ADD12C,2.200000*%
%TD*%
%TA.AperFunction,SMDPad,CuDef*%
%ADD13R,1.600000X0.850000*%
%TD*%
%TA.AperFunction,ComponentPad*%
%ADD14R,1.700000X1.700000*%
%TD*%
%TA.AperFunction,ComponentPad*%
%ADD15O,1.700000X1.700000*%
%TD*%
%TA.AperFunction,ComponentPad*%
%ADD16C,1.500000*%
%TD*%
%TA.AperFunction,ComponentPad*%
%ADD17R,2.000000X2.000000*%
%TD*%
%TA.AperFunction,ComponentPad*%
%ADD18C,2.000000*%
%TD*%
%TA.AperFunction,ComponentPad*%
%ADD19R,3.200000X2.000000*%
%TD*%
%TA.AperFunction,ComponentPad*%
%ADD20C,1.524000*%
%TD*%
%TA.AperFunction,ViaPad*%
%ADD21C,0.600000*%
%TD*%
%TA.AperFunction,Conductor*%
%ADD22C,0.200000*%
%TD*%
%TA.AperFunction,Conductor*%
%ADD23C,1.000000*%
%TD*%
G04 APERTURE END LIST*
D10*
%TO.P,D7,1,K*%
%TO.N,R1*%
X70990000Y-77600000D03*
D11*
%TO.P,D7,2,A*%
%TO.N,Net-(D7-A)*%
X78610000Y-77600000D03*
%TD*%
D12*
%TO.P,SW5,1,1*%
%TO.N,C2*%
X123983750Y-37782500D03*
%TO.P,SW5,2,2*%
%TO.N,Net-(D9-A)*%
X117633750Y-40322500D03*
%TD*%
D13*
%TO.P,D3,1,DOUT*%
%TO.N,Net-(D3-DOUT)*%
X114100000Y-95030000D03*
%TO.P,D3,2,VSS*%
%TO.N,GND*%
X114100000Y-96780000D03*
%TO.P,D3,3,DIN*%
%TO.N,Net-(D2-DOUT)*%
X117600000Y-96780000D03*
%TO.P,D3,4,VDD*%
%TO.N,+5V*%
X117600000Y-95030000D03*
%TD*%
D10*
%TO.P,D12,1,K*%
%TO.N,R3*%
X48790000Y-77600000D03*
D11*
%TO.P,D12,2,A*%
%TO.N,Net-(D12-A)*%
X56410000Y-77600000D03*
%TD*%
D10*
%TO.P,D10,1,K*%
%TO.N,R2*%
X94163750Y-77600000D03*
D11*
%TO.P,D10,2,A*%
%TO.N,Net-(D10-A)*%
X101783750Y-77600000D03*
%TD*%
D12*
%TO.P,SW9,1,1*%
%TO.N,C3*%
X104933750Y-56832500D03*
%TO.P,SW9,2,2*%
%TO.N,Net-(D13-A)*%
X98583750Y-59372500D03*
%TD*%
D10*
%TO.P,D11,1,K*%
%TO.N,R3*%
X82080000Y-77800000D03*
D11*
%TO.P,D11,2,A*%
%TO.N,Net-(D11-A)*%
X89700000Y-77800000D03*
%TD*%
D12*
%TO.P,SW2,1,1*%
%TO.N,C1*%
X66833750Y-37782500D03*
%TO.P,SW2,2,2*%
%TO.N,Net-(D8-A)*%
X60483750Y-40322500D03*
%TD*%
D14*
%TO.P,J1,1,Pin_1*%
%TO.N,GND*%
X95000000Y-88790000D03*
D15*
%TO.P,J1,2,Pin_2*%
%TO.N,+5V*%
X95000000Y-91330000D03*
%TO.P,J1,3,Pin_3*%
%TO.N,Net-(J1-Pin_3)*%
X95000000Y-93870000D03*
%TO.P,J1,4,Pin_4*%
%TO.N,Net-(J1-Pin_4)*%
X95000000Y-96410000D03*
%TD*%
D10*
%TO.P,D9,1,K*%
%TO.N,R2*%
X118690000Y-78200000D03*
D11*
%TO.P,D9,2,A*%
%TO.N,Net-(D9-A)*%
X126310000Y-78200000D03*
%TD*%
D12*
%TO.P,SW3,1,1*%
%TO.N,C1*%
X85883750Y-37782500D03*
%TO.P,SW3,2,2*%
%TO.N,Net-(D11-A)*%
X79533750Y-40322500D03*
%TD*%
%TO.P,SW1,1,1*%
%TO.N,C1*%
X47783750Y-37782500D03*
%TO.P,SW1,2,2*%
%TO.N,Net-(D5-A)*%
X41433750Y-40322500D03*
%TD*%
%TO.P,SW7,1,1*%
%TO.N,C3*%
X66833750Y-56832500D03*
%TO.P,SW7,2,2*%
%TO.N,Net-(D7-A)*%
X60483750Y-59372500D03*
%TD*%
D13*
%TO.P,D2,1,DOUT*%
%TO.N,Net-(D2-DOUT)*%
X114100000Y-89910000D03*
%TO.P,D2,2,VSS*%
%TO.N,GND*%
X114100000Y-91660000D03*
%TO.P,D2,3,DIN*%
%TO.N,Net-(D1-DOUT)*%
X117600000Y-91660000D03*
%TO.P,D2,4,VDD*%
%TO.N,+5V*%
X117600000Y-89910000D03*
%TD*%
%TO.P,D14,1,DOUT*%
%TO.N,Net-(D14-DOUT)*%
X102650000Y-84825000D03*
%TO.P,D14,2,VSS*%
%TO.N,GND*%
X102650000Y-86575000D03*
%TO.P,D14,3,DIN*%
%TO.N,Net-(D14-DIN)*%
X106150000Y-86575000D03*
%TO.P,D14,4,VDD*%
%TO.N,+5V*%
X106150000Y-84825000D03*
%TD*%
D10*
%TO.P,D13,1,K*%
%TO.N,R3*%
X131100000Y-77300000D03*
D11*
%TO.P,D13,2,A*%
%TO.N,Net-(D13-A)*%
X131100000Y-84920000D03*
%TD*%
D13*
%TO.P,D16,1,DOUT*%
%TO.N,unconnected-(D16-DOUT-Pad1)*%
X102650000Y-100225000D03*
%TO.P,D16,2,VSS*%
%TO.N,GND*%
X102650000Y-101975000D03*
%TO.P,D16,3,DIN*%
%TO.N,Net-(D15-DOUT)*%
X106150000Y-101975000D03*
%TO.P,D16,4,VDD*%
%TO.N,+5V*%
X106150000Y-100225000D03*
%TD*%
D12*
%TO.P,SW4,1,1*%
%TO.N,C2*%
X104933750Y-37782500D03*
%TO.P,SW4,2,2*%
%TO.N,Net-(D6-A)*%
X98583750Y-40322500D03*
%TD*%
D13*
%TO.P,D15,1,DOUT*%
%TO.N,Net-(D15-DOUT)*%
X102700000Y-92230000D03*
%TO.P,D15,2,VSS*%
%TO.N,GND*%
X102700000Y-93980000D03*
%TO.P,D15,3,DIN*%
%TO.N,Net-(D14-DOUT)*%
X106200000Y-93980000D03*
%TO.P,D15,4,VDD*%
%TO.N,+5V*%
X106200000Y-92230000D03*
%TD*%
D12*
%TO.P,SW8,1,1*%
%TO.N,C3*%
X85883750Y-56832500D03*
%TO.P,SW8,2,2*%
%TO.N,Net-(D10-A)*%
X79533750Y-59372500D03*
%TD*%
D10*
%TO.P,D6,1,K*%
%TO.N,R1*%
X106680000Y-77900000D03*
D11*
%TO.P,D6,2,A*%
%TO.N,Net-(D6-A)*%
X114300000Y-77900000D03*
%TD*%
D10*
%TO.P,D5,1,K*%
%TO.N,R1*%
X37490000Y-77600000D03*
D11*
%TO.P,D5,2,A*%
%TO.N,Net-(D5-A)*%
X45110000Y-77600000D03*
%TD*%
D16*
%TO.P,SW10,*%
%TO.N,*%
X53975000Y-89600000D03*
X53975000Y-94600000D03*
D17*
%TO.P,SW10,A,A*%
%TO.N,A*%
X39475000Y-89600000D03*
D18*
%TO.P,SW10,B,B*%
%TO.N,B*%
X39475000Y-94600000D03*
%TO.P,SW10,C,C*%
%TO.N,GND*%
X39475000Y-92100000D03*
D19*
%TO.P,SW10,MP*%
%TO.N,N/C*%
X46975000Y-86500000D03*
X46975000Y-97700000D03*
%TD*%
D13*
%TO.P,D1,1,DOUT*%
%TO.N,Net-(D1-DOUT)*%
X114100000Y-84790000D03*
%TO.P,D1,2,VSS*%
%TO.N,GND*%
X114100000Y-86540000D03*
%TO.P,D1,3,DIN*%
%TO.N,Net-(D1-DIN)*%
X117600000Y-86540000D03*
%TO.P,D1,4,VDD*%
%TO.N,+5V*%
X117600000Y-84790000D03*
%TD*%
%TO.P,D4,1,DOUT*%
%TO.N,Net-(D14-DIN)*%
X114100000Y-100150000D03*
%TO.P,D4,2,VSS*%
%TO.N,GND*%
X114100000Y-101900000D03*
%TO.P,D4,3,DIN*%
%TO.N,Net-(D3-DOUT)*%
X117600000Y-101900000D03*
%TO.P,D4,4,VDD*%
%TO.N,+5V*%
X117600000Y-100150000D03*
%TD*%
D12*
%TO.P,SW6,1,1*%
%TO.N,C2*%
X47783750Y-56832500D03*
%TO.P,SW6,2,2*%
%TO.N,Net-(D12-A)*%
X41433750Y-59372500D03*
%TD*%
D10*
%TO.P,D8,1,K*%
%TO.N,R2*%
X59680000Y-77700000D03*
D11*
%TO.P,D8,2,A*%
%TO.N,Net-(D8-A)*%
X67300000Y-77700000D03*
%TD*%
D20*
%TO.P,U1,1,GPIO26/ADC0/A0*%
%TO.N,C1*%
X131445000Y-71913750D03*
%TO.P,U1,2,GPIO27/ADC1/A1*%
%TO.N,C2*%
X128905000Y-71913750D03*
%TO.P,U1,3,GPIO28/ADC2/A2*%
%TO.N,C3*%
X126365000Y-71913750D03*
%TO.P,U1,4,GPIO29/ADC3/A3*%
%TO.N,A*%
X123825000Y-71913750D03*
%TO.P,U1,5,GPIO6/SDA*%
%TO.N,Net-(J1-Pin_4)*%
X121285000Y-71913750D03*
%TO.P,U1,6,GPIO7/SCL*%
%TO.N,Net-(J1-Pin_3)*%
X118745000Y-71913750D03*
%TO.P,U1,7,GPIO0/TX*%
%TO.N,Net-(D1-DIN)*%
X116205000Y-71913750D03*
%TO.P,U1,8,GPIO1/RX*%
%TO.N,R1*%
X116205000Y-56673750D03*
%TO.P,U1,9,GPIO2/SCK*%
%TO.N,R2*%
X118745000Y-56673750D03*
%TO.P,U1,10,GPIO4/MISO*%
%TO.N,B*%
X121285000Y-56673750D03*
%TO.P,U1,11,GPIO3/MOSI*%
%TO.N,R3*%
X123825000Y-56673750D03*
%TO.P,U1,12,3V3*%
%TO.N,unconnected-(U1-3V3-Pad12)*%
X126365000Y-56673750D03*
%TO.P,U1,13,GND*%
%TO.N,GND*%
X128905000Y-56673750D03*
%TO.P,U1,14,VBUS*%
%TO.N,+5V*%
X131445000Y-56673750D03*
%TD*%
D21*
%TO.N,GND*%
X111000000Y-86600000D03*
X111000000Y-91800000D03*
X100000000Y-93800000D03*
X111000000Y-102000000D03*
X99900000Y-86500000D03*
X111000000Y-96900000D03*
X100000000Y-102000000D03*
%TO.N,R3*%
X82400000Y-85700000D03*
X49800000Y-85500000D03*
X80900000Y-70300000D03*
%TO.N,Net-(D13-A)*%
X113300000Y-74265750D03*
X102700000Y-58500000D03*
%TO.N,C1*%
X121600000Y-61500000D03*
%TO.N,C3*%
X90100000Y-58800000D03*
%TD*%
D22*
%TO.N,Net-(D1-DOUT)*%
X115300000Y-85990000D02*
X115300000Y-89360000D01*
X115300000Y-89360000D02*
X117600000Y-91660000D01*
X114100000Y-84790000D02*
X115300000Y-85990000D01*
%TO.N,GND*%
X114100000Y-86540000D02*
X111060000Y-86540000D01*
X111000000Y-91800000D02*
X111140000Y-91660000D01*
X111060000Y-86540000D02*
X111000000Y-86600000D01*
X102650000Y-101975000D02*
X100025000Y-101975000D01*
X111120000Y-96780000D02*
X114100000Y-96780000D01*
X111100000Y-101900000D02*
X114100000Y-101900000D01*
X102700000Y-93980000D02*
X100180000Y-93980000D01*
X111140000Y-91660000D02*
X114100000Y-91660000D01*
X100025000Y-101975000D02*
X100000000Y-102000000D01*
X99975000Y-86575000D02*
X99900000Y-86500000D01*
X102650000Y-86575000D02*
X99975000Y-86575000D01*
X111000000Y-96900000D02*
X111120000Y-96780000D01*
X100180000Y-93980000D02*
X100000000Y-93800000D01*
X111000000Y-102000000D02*
X111100000Y-101900000D01*
D23*
%TO.N,+5V*%
X121984156Y-84790000D02*
X129499000Y-77275156D01*
X132908000Y-58136750D02*
X131445000Y-56673750D01*
X117600000Y-84790000D02*
X121984156Y-84790000D01*
X129499000Y-77275156D02*
X129499000Y-75928745D01*
X132908000Y-72519745D02*
X132908000Y-58136750D01*
X129499000Y-75928745D02*
X132908000Y-72519745D01*
D22*
%TO.N,Net-(D5-A)*%
X41433750Y-40322500D02*
X41433750Y-45766250D01*
X41433750Y-45766250D02*
X38600000Y-48600000D01*
X38600000Y-48600000D02*
X38600000Y-71090000D01*
X38600000Y-71090000D02*
X45110000Y-77600000D01*
%TO.N,R1*%
X106680000Y-78120000D02*
X106680000Y-77900000D01*
X101800000Y-83000000D02*
X106680000Y-78120000D01*
X71000000Y-83000000D02*
X101800000Y-83000000D01*
X42890000Y-83000000D02*
X71000000Y-83000000D01*
X70990000Y-82990000D02*
X71000000Y-83000000D01*
X37490000Y-77600000D02*
X42890000Y-83000000D01*
X70990000Y-77600000D02*
X70990000Y-82990000D01*
%TO.N,Net-(D1-DIN)*%
X116205000Y-85145000D02*
X116205000Y-71913750D01*
X117600000Y-86540000D02*
X116205000Y-85145000D01*
%TO.N,Net-(D2-DOUT)*%
X115201000Y-94381000D02*
X117600000Y-96780000D01*
X115201000Y-91011000D02*
X115201000Y-94381000D01*
X114100000Y-89910000D02*
X115201000Y-91011000D01*
%TO.N,Net-(D3-DOUT)*%
X115200000Y-96130000D02*
X115200000Y-99500000D01*
X114100000Y-95030000D02*
X115200000Y-96130000D01*
X115200000Y-99500000D02*
X117600000Y-101900000D01*
%TO.N,Net-(D14-DIN)*%
X113400057Y-100150000D02*
X114100000Y-100150000D01*
X106150000Y-86575000D02*
X107301000Y-87726000D01*
X107301000Y-87726000D02*
X107301000Y-94050943D01*
X107301000Y-94050943D02*
X113400057Y-100150000D01*
%TO.N,Net-(D6-A)*%
X114300000Y-77900000D02*
X100042750Y-63642750D01*
X100042750Y-41781500D02*
X98583750Y-40322500D01*
X100042750Y-63642750D02*
X100042750Y-41781500D01*
%TO.N,Net-(D7-A)*%
X76656434Y-77600000D02*
X78610000Y-77600000D01*
X60483750Y-59372500D02*
X60483750Y-61427316D01*
X60483750Y-61427316D02*
X76656434Y-77600000D01*
%TO.N,Net-(D8-A)*%
X58012750Y-41237866D02*
X58012750Y-68412750D01*
X58012750Y-68412750D02*
X67300000Y-77700000D01*
X60483750Y-40322500D02*
X58928116Y-40322500D01*
X58928116Y-40322500D02*
X58012750Y-41237866D01*
%TO.N,Net-(D9-A)*%
X122361000Y-65936850D02*
X122600000Y-66175850D01*
X119146342Y-41835092D02*
X119092750Y-41888684D01*
X122361000Y-45213500D02*
X122361000Y-65936850D01*
X117633750Y-40322500D02*
X119146342Y-41835092D01*
X122600000Y-66175850D02*
X122600000Y-66300000D01*
X119092750Y-41888684D02*
X119092750Y-43836316D01*
X120469934Y-45213500D02*
X122361000Y-45213500D01*
X127820685Y-71520685D02*
X127820685Y-76689315D01*
X119092750Y-43836316D02*
X120469934Y-45213500D01*
X127820685Y-76689315D02*
X126310000Y-78200000D01*
X122600000Y-66300000D02*
X127820685Y-71520685D01*
%TO.N,Net-(D10-A)*%
X94499000Y-76399000D02*
X79533750Y-61433750D01*
X100582750Y-76399000D02*
X94499000Y-76399000D01*
X101783750Y-77600000D02*
X100582750Y-76399000D01*
X79533750Y-61433750D02*
X79533750Y-59372500D01*
%TO.N,Net-(D11-A)*%
X79533750Y-57391186D02*
X77062750Y-59862186D01*
X77062750Y-65162750D02*
X89700000Y-77800000D01*
X77062750Y-59862186D02*
X77062750Y-65162750D01*
X79533750Y-40322500D02*
X79533750Y-57391186D01*
%TO.N,R3*%
X82200000Y-85500000D02*
X82400000Y-85700000D01*
X131100000Y-77300000D02*
X133709000Y-74691000D01*
X49800000Y-85500000D02*
X82200000Y-85500000D01*
X131885310Y-55610750D02*
X124888000Y-55610750D01*
X133709000Y-74691000D02*
X133709000Y-57434440D01*
X124888000Y-55610750D02*
X123825000Y-56673750D01*
X133709000Y-57434440D02*
X131885310Y-55610750D01*
X80900000Y-70300000D02*
X82080000Y-71480000D01*
X82080000Y-71480000D02*
X82080000Y-77800000D01*
%TO.N,Net-(D12-A)*%
X41433750Y-59372500D02*
X41433750Y-62623750D01*
X41433750Y-62623750D02*
X56410000Y-77600000D01*
%TO.N,Net-(D13-A)*%
X113300000Y-71400000D02*
X104744750Y-62844750D01*
X102700000Y-58893934D02*
X102700000Y-58500000D01*
X104744750Y-62844750D02*
X104744750Y-60938684D01*
X104744750Y-60938684D02*
X102700000Y-58893934D01*
X113300000Y-74265750D02*
X113300000Y-71400000D01*
%TO.N,C1*%
X100695280Y-37782500D02*
X117682000Y-54769220D01*
X117682000Y-57582000D02*
X121600000Y-61500000D01*
X85883750Y-37782500D02*
X100695280Y-37782500D01*
X117682000Y-54769220D02*
X117682000Y-57582000D01*
%TO.N,C2*%
X47783750Y-56832500D02*
X47783750Y-50899766D01*
X122762000Y-44869066D02*
X123983750Y-43647316D01*
X62302016Y-36381500D02*
X103532750Y-36381500D01*
X128905000Y-71913750D02*
X122762000Y-65770750D01*
X47783750Y-50899766D02*
X62302016Y-36381500D01*
X122762000Y-65770750D02*
X122762000Y-44869066D01*
X103532750Y-36381500D02*
X104933750Y-37782500D01*
X123983750Y-43647316D02*
X123983750Y-37782500D01*
%TO.N,C3*%
X111283750Y-56832500D02*
X104933750Y-56832500D01*
X126365000Y-71913750D02*
X111283750Y-56832500D01*
%TO.N,A*%
X44976000Y-84099000D02*
X39475000Y-89600000D01*
X115501000Y-78397471D02*
X109799471Y-84099000D01*
X114797471Y-71817969D02*
X114797471Y-76699000D01*
X115501000Y-77402529D02*
X115501000Y-78397471D01*
X109799471Y-84099000D02*
X44976000Y-84099000D01*
X122762000Y-70850750D02*
X115764690Y-70850750D01*
X115764690Y-70850750D02*
X114797471Y-71817969D01*
X114797471Y-76699000D02*
X115501000Y-77402529D01*
X123825000Y-71913750D02*
X122762000Y-70850750D01*
%TO.N,Net-(D14-DOUT)*%
X104301000Y-86476000D02*
X104301000Y-92081000D01*
X104301000Y-92081000D02*
X106200000Y-93980000D01*
X102650000Y-84825000D02*
X104301000Y-86476000D01*
%TO.N,Net-(D15-DOUT)*%
X102700000Y-92230000D02*
X103900000Y-93430000D01*
X103900000Y-99725000D02*
X106150000Y-101975000D01*
X103900000Y-93430000D02*
X103900000Y-99725000D01*
%TD*%
%TA.AperFunction,Conductor*%
%TO.N,+5V*%
G36*
X125642882Y-81920049D02*
G01*
X125688973Y-81972560D01*
X125700509Y-82024283D01*
X125792086Y-104369324D01*
X125772676Y-104436443D01*
X125720060Y-104482414D01*
X125668877Y-104493829D01*
X94524790Y-104692199D01*
X94457626Y-104672942D01*
X94411536Y-104620431D01*
X94400000Y-104568202D01*
X94400000Y-97805718D01*
X94419685Y-97738679D01*
X94472489Y-97692924D01*
X94541647Y-97682980D01*
X94562305Y-97687783D01*
X94683757Y-97727246D01*
X94893713Y-97760500D01*
X94893714Y-97760500D01*
X95106286Y-97760500D01*
X95106287Y-97760500D01*
X95316243Y-97727246D01*
X95518412Y-97661557D01*
X95707816Y-97565051D01*
X95754879Y-97530858D01*
X95879786Y-97440109D01*
X95879788Y-97440106D01*
X95879792Y-97440104D01*
X96030104Y-97289792D01*
X96030106Y-97289788D01*
X96030109Y-97289786D01*
X96155048Y-97117820D01*
X96155047Y-97117820D01*
X96155051Y-97117816D01*
X96251557Y-96928412D01*
X96317246Y-96726243D01*
X96350500Y-96516287D01*
X96350500Y-96303713D01*
X96317246Y-96093757D01*
X96251557Y-95891588D01*
X96155051Y-95702184D01*
X96155049Y-95702181D01*
X96155048Y-95702179D01*
X96030109Y-95530213D01*
X95879786Y-95379890D01*
X95707820Y-95254951D01*
X95707115Y-95254591D01*
X95699054Y-95250485D01*
X95648259Y-95202512D01*
X95631463Y-95134692D01*
X95653999Y-95068556D01*
X95699054Y-95029515D01*
X95707816Y-95025051D01*
X95729789Y-95009086D01*
X95879786Y-94900109D01*
X95879788Y-94900106D01*
X95879792Y-94900104D01*
X96030104Y-94749792D01*
X96030106Y-94749788D01*
X96030109Y-94749786D01*
X96155048Y-94577820D01*
X96155047Y-94577820D01*
X96155051Y-94577816D01*
X96251557Y-94388412D01*
X96317246Y-94186243D01*
X96350500Y-93976287D01*
X96350500Y-93763713D01*
X96317246Y-93553757D01*
X96251557Y-93351588D01*
X96155051Y-93162184D01*
X96155049Y-93162181D01*
X96155048Y-93162179D01*
X96030109Y-92990213D01*
X95879786Y-92839890D01*
X95707817Y-92714949D01*
X95698504Y-92710204D01*
X95647707Y-92662230D01*
X95630912Y-92594409D01*
X95653449Y-92528274D01*
X95698507Y-92489232D01*
X95707558Y-92484620D01*
X95879459Y-92359727D01*
X95879464Y-92359723D01*
X96029723Y-92209464D01*
X96029727Y-92209459D01*
X96154620Y-92037557D01*
X96251095Y-91848217D01*
X96316757Y-91646129D01*
X96316757Y-91646126D01*
X96327231Y-91580000D01*
X95433012Y-91580000D01*
X95465925Y-91522993D01*
X95500000Y-91395826D01*
X95500000Y-91264174D01*
X95465925Y-91137007D01*
X95433012Y-91080000D01*
X96327231Y-91080000D01*
X96316757Y-91013873D01*
X96316757Y-91013870D01*
X96251095Y-90811782D01*
X96154620Y-90622442D01*
X96029727Y-90450540D01*
X96029723Y-90450535D01*
X95916053Y-90336865D01*
X95882568Y-90275542D01*
X95887552Y-90205850D01*
X95929424Y-90149917D01*
X95960400Y-90133002D01*
X96092331Y-90083796D01*
X96207546Y-89997546D01*
X96293796Y-89882331D01*
X96344091Y-89747483D01*
X96350500Y-89687873D01*
X96350499Y-87892128D01*
X96344091Y-87832517D01*
X96333849Y-87805058D01*
X96293797Y-87697671D01*
X96293793Y-87697664D01*
X96207547Y-87582455D01*
X96207544Y-87582452D01*
X96092335Y-87496206D01*
X96092328Y-87496202D01*
X95957482Y-87445908D01*
X95957483Y-87445908D01*
X95897883Y-87439501D01*
X95897881Y-87439500D01*
X95897873Y-87439500D01*
X95897865Y-87439500D01*
X94524000Y-87439500D01*
X94456961Y-87419815D01*
X94411206Y-87367011D01*
X94400000Y-87315500D01*
X94400000Y-84823500D01*
X94419685Y-84756461D01*
X94472489Y-84710706D01*
X94524000Y-84699500D01*
X101225500Y-84699500D01*
X101292539Y-84719185D01*
X101338294Y-84771989D01*
X101349500Y-84823500D01*
X101349500Y-85297870D01*
X101349501Y-85297876D01*
X101355908Y-85357483D01*
X101406202Y-85492328D01*
X101406206Y-85492335D01*
X101492452Y-85607544D01*
X101497227Y-85612319D01*
X101497324Y-85612497D01*
X101497504Y-85612596D01*
X101514123Y-85643263D01*
X101530712Y-85673642D01*
X101530697Y-85673845D01*
X101530795Y-85674025D01*
X101528208Y-85708649D01*
X101525728Y-85743334D01*
X101525599Y-85743567D01*
X101525590Y-85743701D01*
X101525169Y-85744353D01*
X101508578Y-85774624D01*
X101498621Y-85787836D01*
X101492454Y-85792454D01*
X101406204Y-85907669D01*
X101404126Y-85913239D01*
X101395171Y-85925124D01*
X101374120Y-85940778D01*
X101355569Y-85959331D01*
X101345830Y-85961816D01*
X101339105Y-85966818D01*
X101321530Y-85968019D01*
X101296139Y-85974500D01*
X100557940Y-85974500D01*
X100490901Y-85954815D01*
X100470263Y-85938185D01*
X100410289Y-85878211D01*
X100410288Y-85878210D01*
X100410287Y-85878209D01*
X100279185Y-85790609D01*
X100279172Y-85790602D01*
X100133501Y-85730264D01*
X100133489Y-85730261D01*
X99978845Y-85699500D01*
X99978842Y-85699500D01*
X99821158Y-85699500D01*
X99821155Y-85699500D01*
X99666510Y-85730261D01*
X99666498Y-85730264D01*
X99520827Y-85790602D01*
X99520814Y-85790609D01*
X99389711Y-85878210D01*
X99389707Y-85878213D01*
X99278213Y-85989707D01*
X99278210Y-85989711D01*
X99190609Y-86120814D01*
X99190602Y-86120827D01*
X99130264Y-86266498D01*
X99130261Y-86266510D01*
X99099500Y-86421153D01*
X99099500Y-86578846D01*
X99130261Y-86733489D01*
X99130264Y-86733501D01*
X99190602Y-86879172D01*
X99190609Y-86879185D01*
X99278210Y-87010288D01*
X99278213Y-87010292D01*
X99389707Y-87121786D01*
X99389711Y-87121789D01*
X99520814Y-87209390D01*
X99520827Y-87209397D01*
X99666498Y-87269735D01*
X99666503Y-87269737D01*
X99821153Y-87300499D01*
X99821156Y-87300500D01*
X99821158Y-87300500D01*
X99978844Y-87300500D01*
X99978845Y-87300499D01*
X100133497Y-87269737D01*
X100279179Y-87209394D01*
X100292613Y-87200418D01*
X100298628Y-87196399D01*
X100365305Y-87175520D01*
X100367520Y-87175500D01*
X101296139Y-87175500D01*
X101363178Y-87195185D01*
X101400637Y-87235418D01*
X101400888Y-87235231D01*
X101402635Y-87237565D01*
X101404973Y-87240076D01*
X101406207Y-87242336D01*
X101492452Y-87357544D01*
X101492455Y-87357547D01*
X101607664Y-87443793D01*
X101607671Y-87443797D01*
X101742517Y-87494091D01*
X101742516Y-87494091D01*
X101749444Y-87494835D01*
X101802127Y-87500500D01*
X103497872Y-87500499D01*
X103557483Y-87494091D01*
X103557484Y-87494090D01*
X103563246Y-87493471D01*
X103632005Y-87505877D01*
X103683142Y-87553488D01*
X103700500Y-87616761D01*
X103700500Y-91182863D01*
X103680815Y-91249902D01*
X103628011Y-91295657D01*
X103563249Y-91306153D01*
X103559105Y-91305707D01*
X103547873Y-91304500D01*
X103547869Y-91304500D01*
X101852129Y-91304500D01*
X101852123Y-91304501D01*
X101792516Y-91310908D01*
X101657671Y-91361202D01*
X101657664Y-91361206D01*
X101542455Y-91447452D01*
X101542452Y-91447455D01*
X101456206Y-91562664D01*
X101456202Y-91562671D01*
X101405908Y-91697517D01*
X101399501Y-91757116D01*
X101399500Y-91757135D01*
X101399500Y-92702870D01*
X101399501Y-92702876D01*
X101405908Y-92762483D01*
X101456202Y-92897328D01*
X101456206Y-92897335D01*
X101542452Y-93012544D01*
X101547227Y-93017319D01*
X101547324Y-93017497D01*
X101547504Y-93017596D01*
X101564123Y-93048263D01*
X101580712Y-93078642D01*
X101580697Y-93078845D01*
X101580795Y-93079025D01*
X101578208Y-93113649D01*
X101575728Y-93148334D01*
X101575599Y-93148567D01*
X101575590Y-93148701D01*
X101575169Y-93149353D01*
X101558578Y-93179624D01*
X101548621Y-93192836D01*
X101542454Y-93197454D01*
X101456204Y-93312669D01*
X101454126Y-93318239D01*
X101445171Y-93330124D01*
X101424120Y-93345778D01*
X101405569Y-93364331D01*
X101395830Y-93366816D01*
X101389105Y-93371818D01*
X101371530Y-93373019D01*
X101346139Y-93379500D01*
X100748064Y-93379500D01*
X100681025Y-93359815D01*
X100644962Y-93324391D01*
X100621789Y-93289711D01*
X100621786Y-93289707D01*
X100510292Y-93178213D01*
X100510288Y-93178210D01*
X100379185Y-93090609D01*
X100379172Y-93090602D01*
X100233501Y-93030264D01*
X100233489Y-93030261D01*
X100078845Y-92999500D01*
X100078842Y-92999500D01*
X99921158Y-92999500D01*
X99921155Y-92999500D01*
X99766510Y-93030261D01*
X99766498Y-93030264D01*
X99620827Y-93090602D01*
X99620814Y-93090609D01*
X99489711Y-93178210D01*
X99489707Y-93178213D01*
X99378213Y-93289707D01*
X99378210Y-93289711D01*
X99290609Y-93420814D01*
X99290602Y-93420827D01*
X99230264Y-93566498D01*
X99230261Y-93566510D01*
X99199500Y-93721153D01*
X99199500Y-93878846D01*
X99230261Y-94033489D01*
X99230264Y-94033501D01*
X99290602Y-94179172D01*
X99290609Y-94179185D01*
X99378210Y-94310288D01*
X99378213Y-94310292D01*
X99489707Y-94421786D01*
X99489711Y-94421789D01*
X99620814Y-94509390D01*
X99620827Y-94509397D01*
X99736127Y-94557155D01*
X99766503Y-94569737D01*
X99919574Y-94600185D01*
X99921153Y-94600499D01*
X99921156Y-94600500D01*
X99921158Y-94600500D01*
X100078843Y-94600500D01*
X100124398Y-94591438D01*
X100167408Y-94582882D01*
X100191599Y-94580500D01*
X101346139Y-94580500D01*
X101413178Y-94600185D01*
X101450637Y-94640418D01*
X101450888Y-94640231D01*
X101452635Y-94642565D01*
X101454973Y-94645076D01*
X101456207Y-94647336D01*
X101542452Y-94762544D01*
X101542455Y-94762547D01*
X101657664Y-94848793D01*
X101657671Y-94848797D01*
X101792517Y-94899091D01*
X101792516Y-94899091D01*
X101799444Y-94899835D01*
X101852127Y-94905500D01*
X103175500Y-94905499D01*
X103242539Y-94925184D01*
X103288294Y-94977987D01*
X103299500Y-95029499D01*
X103299500Y-99175500D01*
X103279815Y-99242539D01*
X103227011Y-99288294D01*
X103175500Y-99299500D01*
X101802129Y-99299500D01*
X101802123Y-99299501D01*
X101742516Y-99305908D01*
X101607671Y-99356202D01*
X101607664Y-99356206D01*
X101492455Y-99442452D01*
X101492452Y-99442455D01*
X101406206Y-99557664D01*
X101406202Y-99557671D01*
X101355908Y-99692517D01*
X101349501Y-99752116D01*
X101349500Y-99752135D01*
X101349500Y-100697870D01*
X101349501Y-100697876D01*
X101355908Y-100757483D01*
X101406202Y-100892328D01*
X101406206Y-100892335D01*
X101492452Y-101007544D01*
X101497227Y-101012319D01*
X101497324Y-101012497D01*
X101497504Y-101012596D01*
X101514123Y-101043263D01*
X101530712Y-101073642D01*
X101530697Y-101073845D01*
X101530795Y-101074025D01*
X101528208Y-101108649D01*
X101525728Y-101143334D01*
X101525599Y-101143567D01*
X101525590Y-101143701D01*
X101525169Y-101144353D01*
X101508578Y-101174624D01*
X101498621Y-101187836D01*
X101492454Y-101192454D01*
X101406204Y-101307669D01*
X101404126Y-101313239D01*
X101395171Y-101325124D01*
X101374120Y-101340778D01*
X101355569Y-101359331D01*
X101345830Y-101361816D01*
X101339105Y-101366818D01*
X101321530Y-101368019D01*
X101296139Y-101374500D01*
X100542350Y-101374500D01*
X100475311Y-101354815D01*
X100473459Y-101353602D01*
X100379184Y-101290609D01*
X100379172Y-101290602D01*
X100233501Y-101230264D01*
X100233489Y-101230261D01*
X100078845Y-101199500D01*
X100078842Y-101199500D01*
X99921158Y-101199500D01*
X99921155Y-101199500D01*
X99766510Y-101230261D01*
X99766498Y-101230264D01*
X99620827Y-101290602D01*
X99620814Y-101290609D01*
X99489711Y-101378210D01*
X99489707Y-101378213D01*
X99378213Y-101489707D01*
X99378210Y-101489711D01*
X99290609Y-101620814D01*
X99290602Y-101620827D01*
X99230264Y-101766498D01*
X99230261Y-101766510D01*
X99199500Y-101921153D01*
X99199500Y-102078846D01*
X99230261Y-102233489D01*
X99230264Y-102233501D01*
X99290602Y-102379172D01*
X99290609Y-102379185D01*
X99378210Y-102510288D01*
X99378213Y-102510292D01*
X99489707Y-102621786D01*
X99489711Y-102621789D01*
X99620814Y-102709390D01*
X99620827Y-102709397D01*
X99766498Y-102769735D01*
X99766503Y-102769737D01*
X99921153Y-102800499D01*
X99921156Y-102800500D01*
X99921158Y-102800500D01*
X100078844Y-102800500D01*
X100078845Y-102800499D01*
X100233497Y-102769737D01*
X100379179Y-102709394D01*
X100510289Y-102621789D01*
X100510292Y-102621786D01*
X100520260Y-102611819D01*
X100581583Y-102578334D01*
X100607941Y-102575500D01*
X101296139Y-102575500D01*
X101363178Y-102595185D01*
X101400637Y-102635418D01*
X101400888Y-102635231D01*
X101402635Y-102637565D01*
X101404973Y-102640076D01*
X101406207Y-102642336D01*
X101492452Y-102757544D01*
X101492455Y-102757547D01*
X101607664Y-102843793D01*
X101607671Y-102843797D01*
X101742517Y-102894091D01*
X101742516Y-102894091D01*
X101749444Y-102894835D01*
X101802127Y-102900500D01*
X103497872Y-102900499D01*
X103557483Y-102894091D01*
X103692331Y-102843796D01*
X103807546Y-102757546D01*
X103893796Y-102642331D01*
X103944091Y-102507483D01*
X103950500Y-102447873D01*
X103950499Y-101502128D01*
X103944091Y-101442517D01*
X103938351Y-101427128D01*
X103893797Y-101307671D01*
X103893793Y-101307664D01*
X103807547Y-101192455D01*
X103802773Y-101187681D01*
X103769288Y-101126358D01*
X103774272Y-101056666D01*
X103802773Y-101012319D01*
X103807542Y-101007548D01*
X103807546Y-101007546D01*
X103893796Y-100892331D01*
X103914466Y-100836910D01*
X103956334Y-100780980D01*
X104021798Y-100756561D01*
X104090071Y-100771411D01*
X104118328Y-100792564D01*
X104813181Y-101487416D01*
X104846666Y-101548739D01*
X104849500Y-101575097D01*
X104849500Y-102447870D01*
X104849501Y-102447876D01*
X104855908Y-102507483D01*
X104906202Y-102642328D01*
X104906206Y-102642335D01*
X104992452Y-102757544D01*
X104992455Y-102757547D01*
X105107664Y-102843793D01*
X105107671Y-102843797D01*
X105242517Y-102894091D01*
X105242516Y-102894091D01*
X105249444Y-102894835D01*
X105302127Y-102900500D01*
X106997872Y-102900499D01*
X107057483Y-102894091D01*
X107192331Y-102843796D01*
X107307546Y-102757546D01*
X107393796Y-102642331D01*
X107444091Y-102507483D01*
X107450500Y-102447873D01*
X107450499Y-101502128D01*
X107444091Y-101442517D01*
X107438351Y-101427128D01*
X107393797Y-101307671D01*
X107393793Y-101307664D01*
X107307547Y-101192455D01*
X107302416Y-101187324D01*
X107268931Y-101126001D01*
X107273915Y-101056309D01*
X107302416Y-101011962D01*
X107307190Y-101007187D01*
X107393350Y-100892093D01*
X107393354Y-100892086D01*
X107443596Y-100757379D01*
X107443598Y-100757372D01*
X107449999Y-100697844D01*
X107450000Y-100697827D01*
X107450000Y-100475000D01*
X106274000Y-100475000D01*
X106206961Y-100455315D01*
X106161206Y-100402511D01*
X106150000Y-100351000D01*
X106150000Y-100225000D01*
X106024000Y-100225000D01*
X105956961Y-100205315D01*
X105911206Y-100152511D01*
X105900000Y-100101000D01*
X105900000Y-99975000D01*
X106400000Y-99975000D01*
X107450000Y-99975000D01*
X107450000Y-99752172D01*
X107449999Y-99752155D01*
X107443598Y-99692627D01*
X107443596Y-99692620D01*
X107393354Y-99557913D01*
X107393350Y-99557906D01*
X107307190Y-99442812D01*
X107307187Y-99442809D01*
X107192093Y-99356649D01*
X107192086Y-99356645D01*
X107057379Y-99306403D01*
X107057372Y-99306401D01*
X106997844Y-99300000D01*
X106400000Y-99300000D01*
X106400000Y-99975000D01*
X105900000Y-99975000D01*
X105900000Y-99300000D01*
X105302155Y-99300000D01*
X105242627Y-99306401D01*
X105242620Y-99306403D01*
X105107913Y-99356645D01*
X105107906Y-99356649D01*
X104992812Y-99442809D01*
X104992809Y-99442812D01*
X104906649Y-99557906D01*
X104906646Y-99557911D01*
X104885922Y-99613476D01*
X104844050Y-99669409D01*
X104778586Y-99693826D01*
X104710313Y-99678974D01*
X104682059Y-99657823D01*
X104536819Y-99512583D01*
X104503334Y-99451260D01*
X104500500Y-99424902D01*
X104500500Y-93429097D01*
X104520185Y-93362058D01*
X104572989Y-93316303D01*
X104642147Y-93306359D01*
X104705703Y-93335384D01*
X104712181Y-93341416D01*
X104863181Y-93492416D01*
X104896666Y-93553739D01*
X104899500Y-93580097D01*
X104899500Y-94452870D01*
X104899501Y-94452876D01*
X104905908Y-94512483D01*
X104956202Y-94647328D01*
X104956206Y-94647335D01*
X105042452Y-94762544D01*
X105042455Y-94762547D01*
X105157664Y-94848793D01*
X105157671Y-94848797D01*
X105292517Y-94899091D01*
X105292516Y-94899091D01*
X105299444Y-94899835D01*
X105352127Y-94905500D01*
X107047872Y-94905499D01*
X107107483Y-94899091D01*
X107172972Y-94874664D01*
X107242663Y-94869680D01*
X107303984Y-94903162D01*
X107303987Y-94903165D01*
X112763181Y-100362359D01*
X112796666Y-100423682D01*
X112799500Y-100450039D01*
X112799500Y-100622869D01*
X112799501Y-100622876D01*
X112805908Y-100682483D01*
X112856202Y-100817328D01*
X112856206Y-100817335D01*
X112942452Y-100932544D01*
X112947227Y-100937319D01*
X112947324Y-100937497D01*
X112947504Y-100937596D01*
X112964123Y-100968263D01*
X112980712Y-100998642D01*
X112980697Y-100998845D01*
X112980795Y-100999025D01*
X112978208Y-101033649D01*
X112975728Y-101068334D01*
X112975599Y-101068567D01*
X112975590Y-101068701D01*
X112975169Y-101069353D01*
X112958578Y-101099624D01*
X112948621Y-101112836D01*
X112942454Y-101117454D01*
X112856204Y-101232669D01*
X112854126Y-101238239D01*
X112845171Y-101250124D01*
X112824120Y-101265778D01*
X112805569Y-101284331D01*
X112795830Y-101286816D01*
X112789105Y-101291818D01*
X112771530Y-101293019D01*
X112746139Y-101299500D01*
X111425316Y-101299500D01*
X111377864Y-101290061D01*
X111233501Y-101230264D01*
X111233489Y-101230261D01*
X111078845Y-101199500D01*
X111078842Y-101199500D01*
X110921158Y-101199500D01*
X110921155Y-101199500D01*
X110766510Y-101230261D01*
X110766498Y-101230264D01*
X110620827Y-101290602D01*
X110620814Y-101290609D01*
X110489711Y-101378210D01*
X110489707Y-101378213D01*
X110378213Y-101489707D01*
X110378210Y-101489711D01*
X110290609Y-101620814D01*
X110290602Y-101620827D01*
X110230264Y-101766498D01*
X110230261Y-101766510D01*
X110199500Y-101921153D01*
X110199500Y-102078846D01*
X110230261Y-102233489D01*
X110230264Y-102233501D01*
X110290602Y-102379172D01*
X110290609Y-102379185D01*
X110378210Y-102510288D01*
X110378213Y-102510292D01*
X110489707Y-102621786D01*
X110489711Y-102621789D01*
X110620814Y-102709390D01*
X110620827Y-102709397D01*
X110766498Y-102769735D01*
X110766503Y-102769737D01*
X110921153Y-102800499D01*
X110921156Y-102800500D01*
X110921158Y-102800500D01*
X111078844Y-102800500D01*
X111078845Y-102800499D01*
X111233497Y-102769737D01*
X111379179Y-102709394D01*
X111510289Y-102621789D01*
X111595260Y-102536817D01*
X111656581Y-102503334D01*
X111682940Y-102500500D01*
X112746139Y-102500500D01*
X112813178Y-102520185D01*
X112850637Y-102560418D01*
X112850888Y-102560231D01*
X112852635Y-102562565D01*
X112854973Y-102565076D01*
X112856207Y-102567336D01*
X112942452Y-102682544D01*
X112942455Y-102682547D01*
X113057664Y-102768793D01*
X113057671Y-102768797D01*
X113192517Y-102819091D01*
X113192516Y-102819091D01*
X113199444Y-102819835D01*
X113252127Y-102825500D01*
X114947872Y-102825499D01*
X115007483Y-102819091D01*
X115142331Y-102768796D01*
X115257546Y-102682546D01*
X115343796Y-102567331D01*
X115394091Y-102432483D01*
X115400500Y-102372873D01*
X115400499Y-101427128D01*
X115394091Y-101367517D01*
X115393830Y-101366818D01*
X115343797Y-101232671D01*
X115343793Y-101232664D01*
X115257547Y-101117455D01*
X115252773Y-101112681D01*
X115219288Y-101051358D01*
X115224272Y-100981666D01*
X115252773Y-100937319D01*
X115257542Y-100932548D01*
X115257546Y-100932546D01*
X115343796Y-100817331D01*
X115364466Y-100761910D01*
X115406334Y-100705980D01*
X115471798Y-100681561D01*
X115540071Y-100696411D01*
X115568328Y-100717564D01*
X116263181Y-101412416D01*
X116296666Y-101473739D01*
X116299500Y-101500097D01*
X116299500Y-102372870D01*
X116299501Y-102372876D01*
X116305908Y-102432483D01*
X116356202Y-102567328D01*
X116356206Y-102567335D01*
X116442452Y-102682544D01*
X116442455Y-102682547D01*
X116557664Y-102768793D01*
X116557671Y-102768797D01*
X116692517Y-102819091D01*
X116692516Y-102819091D01*
X116699444Y-102819835D01*
X116752127Y-102825500D01*
X118447872Y-102825499D01*
X118507483Y-102819091D01*
X118642331Y-102768796D01*
X118757546Y-102682546D01*
X118843796Y-102567331D01*
X118894091Y-102432483D01*
X118900500Y-102372873D01*
X118900499Y-101427128D01*
X118894091Y-101367517D01*
X118893830Y-101366818D01*
X118843797Y-101232671D01*
X118843793Y-101232664D01*
X118757547Y-101117455D01*
X118752416Y-101112324D01*
X118718931Y-101051001D01*
X118723915Y-100981309D01*
X118752416Y-100936962D01*
X118757190Y-100932187D01*
X118843350Y-100817093D01*
X118843354Y-100817086D01*
X118893596Y-100682379D01*
X118893598Y-100682372D01*
X118899999Y-100622844D01*
X118900000Y-100622827D01*
X118900000Y-100400000D01*
X117724000Y-100400000D01*
X117656961Y-100380315D01*
X117611206Y-100327511D01*
X117600000Y-100276000D01*
X117600000Y-100150000D01*
X117474000Y-100150000D01*
X117406961Y-100130315D01*
X117361206Y-100077511D01*
X117350000Y-100026000D01*
X117350000Y-99900000D01*
X117850000Y-99900000D01*
X118900000Y-99900000D01*
X118900000Y-99677172D01*
X118899999Y-99677155D01*
X118893598Y-99617627D01*
X118893596Y-99617620D01*
X118843354Y-99482913D01*
X118843350Y-99482906D01*
X118757190Y-99367812D01*
X118757187Y-99367809D01*
X118642093Y-99281649D01*
X118642086Y-99281645D01*
X118507379Y-99231403D01*
X118507372Y-99231401D01*
X118447844Y-99225000D01*
X117850000Y-99225000D01*
X117850000Y-99900000D01*
X117350000Y-99900000D01*
X117350000Y-99225000D01*
X116752155Y-99225000D01*
X116692627Y-99231401D01*
X116692620Y-99231403D01*
X116557913Y-99281645D01*
X116557906Y-99281649D01*
X116442812Y-99367809D01*
X116442809Y-99367812D01*
X116356649Y-99482906D01*
X116356646Y-99482911D01*
X116335922Y-99538476D01*
X116294050Y-99594409D01*
X116228586Y-99618826D01*
X116160313Y-99603974D01*
X116132059Y-99582823D01*
X115836819Y-99287583D01*
X115803334Y-99226260D01*
X115800500Y-99199902D01*
X115800500Y-96219058D01*
X115800500Y-96209059D01*
X115800501Y-96209057D01*
X115800501Y-96129097D01*
X115820186Y-96062057D01*
X115872991Y-96016303D01*
X115932205Y-96007789D01*
X115942148Y-96006360D01*
X115942149Y-96006360D01*
X115971174Y-96019615D01*
X116005704Y-96035385D01*
X116012182Y-96041417D01*
X116263181Y-96292416D01*
X116296666Y-96353739D01*
X116299500Y-96380097D01*
X116299500Y-97252870D01*
X116299501Y-97252876D01*
X116305908Y-97312483D01*
X116356202Y-97447328D01*
X116356206Y-97447335D01*
X116442452Y-97562544D01*
X116442455Y-97562547D01*
X116557664Y-97648793D01*
X116557671Y-97648797D01*
X116692517Y-97699091D01*
X116692516Y-97699091D01*
X116699444Y-97699835D01*
X116752127Y-97705500D01*
X118447872Y-97705499D01*
X118507483Y-97699091D01*
X118642331Y-97648796D01*
X118757546Y-97562546D01*
X118843796Y-97447331D01*
X118894091Y-97312483D01*
X118900500Y-97252873D01*
X118900499Y-96307128D01*
X118895299Y-96258757D01*
X118894091Y-96247516D01*
X118843797Y-96112671D01*
X118843793Y-96112664D01*
X118757547Y-95997455D01*
X118752416Y-95992324D01*
X118718931Y-95931001D01*
X118723915Y-95861309D01*
X118752416Y-95816962D01*
X118757190Y-95812187D01*
X118843350Y-95697093D01*
X118843354Y-95697086D01*
X118893596Y-95562379D01*
X118893598Y-95562372D01*
X118899999Y-95502844D01*
X118900000Y-95502827D01*
X118900000Y-95280000D01*
X117724000Y-95280000D01*
X117656961Y-95260315D01*
X117611206Y-95207511D01*
X117600000Y-95156000D01*
X117600000Y-95030000D01*
X117474000Y-95030000D01*
X117406961Y-95010315D01*
X117361206Y-94957511D01*
X117350000Y-94906000D01*
X117350000Y-94780000D01*
X117850000Y-94780000D01*
X118900000Y-94780000D01*
X118900000Y-94557172D01*
X118899999Y-94557155D01*
X118893598Y-94497627D01*
X118893596Y-94497620D01*
X118843354Y-94362913D01*
X118843350Y-94362906D01*
X118757190Y-94247812D01*
X118757187Y-94247809D01*
X118642093Y-94161649D01*
X118642086Y-94161645D01*
X118507379Y-94111403D01*
X118507372Y-94111401D01*
X118447844Y-94105000D01*
X117850000Y-94105000D01*
X117850000Y-94780000D01*
X117350000Y-94780000D01*
X117350000Y-94105000D01*
X116752155Y-94105000D01*
X116692627Y-94111401D01*
X116692620Y-94111403D01*
X116557913Y-94161645D01*
X116557906Y-94161649D01*
X116442812Y-94247809D01*
X116442809Y-94247812D01*
X116356649Y-94362906D01*
X116356645Y-94362913D01*
X116335922Y-94418476D01*
X116294051Y-94474410D01*
X116228586Y-94498827D01*
X116160313Y-94483975D01*
X116132059Y-94462824D01*
X115837819Y-94168584D01*
X115804334Y-94107261D01*
X115801500Y-94080903D01*
X115801500Y-91010097D01*
X115821185Y-90943058D01*
X115873989Y-90897303D01*
X115943147Y-90887359D01*
X116006703Y-90916384D01*
X116013181Y-90922416D01*
X116263181Y-91172416D01*
X116296666Y-91233739D01*
X116299500Y-91260097D01*
X116299500Y-92132870D01*
X116299501Y-92132876D01*
X116305908Y-92192483D01*
X116356202Y-92327328D01*
X116356206Y-92327335D01*
X116442452Y-92442544D01*
X116442455Y-92442547D01*
X116557664Y-92528793D01*
X116557671Y-92528797D01*
X116692517Y-92579091D01*
X116692516Y-92579091D01*
X116699444Y-92579835D01*
X116752127Y-92585500D01*
X118447872Y-92585499D01*
X118507483Y-92579091D01*
X118642331Y-92528796D01*
X118757546Y-92442546D01*
X118843796Y-92327331D01*
X118894091Y-92192483D01*
X118900500Y-92132873D01*
X118900499Y-91187128D01*
X118894091Y-91127517D01*
X118880325Y-91090609D01*
X118843797Y-90992671D01*
X118843793Y-90992664D01*
X118757547Y-90877455D01*
X118752416Y-90872324D01*
X118718931Y-90811001D01*
X118723915Y-90741309D01*
X118752416Y-90696962D01*
X118757190Y-90692187D01*
X118843350Y-90577093D01*
X118843354Y-90577086D01*
X118893596Y-90442379D01*
X118893598Y-90442372D01*
X118899999Y-90382844D01*
X118900000Y-90382827D01*
X118900000Y-90160000D01*
X117724000Y-90160000D01*
X117656961Y-90140315D01*
X117611206Y-90087511D01*
X117600000Y-90036000D01*
X117600000Y-89910000D01*
X117474000Y-89910000D01*
X117406961Y-89890315D01*
X117361206Y-89837511D01*
X117350000Y-89786000D01*
X117350000Y-89660000D01*
X117850000Y-89660000D01*
X118900000Y-89660000D01*
X118900000Y-89437172D01*
X118899999Y-89437155D01*
X118893598Y-89377627D01*
X118893596Y-89377620D01*
X118843354Y-89242913D01*
X118843350Y-89242906D01*
X118757190Y-89127812D01*
X118757187Y-89127809D01*
X118642093Y-89041649D01*
X118642086Y-89041645D01*
X118507379Y-88991403D01*
X118507372Y-88991401D01*
X118447844Y-88985000D01*
X117850000Y-88985000D01*
X117850000Y-89660000D01*
X117350000Y-89660000D01*
X117350000Y-88985000D01*
X116752155Y-88985000D01*
X116692627Y-88991401D01*
X116692620Y-88991403D01*
X116557913Y-89041645D01*
X116557906Y-89041649D01*
X116442812Y-89127809D01*
X116442809Y-89127812D01*
X116356649Y-89242906D01*
X116356645Y-89242913D01*
X116335922Y-89298476D01*
X116294051Y-89354410D01*
X116228586Y-89378827D01*
X116160313Y-89363975D01*
X116132059Y-89342824D01*
X115936819Y-89147584D01*
X115903334Y-89086261D01*
X115900500Y-89059903D01*
X115900500Y-85989097D01*
X115906738Y-85967851D01*
X115908318Y-85945763D01*
X115916390Y-85934979D01*
X115920185Y-85922058D01*
X115936918Y-85907558D01*
X115950190Y-85889830D01*
X115962810Y-85885122D01*
X115972989Y-85876303D01*
X115994906Y-85873151D01*
X116015654Y-85865413D01*
X116028814Y-85868275D01*
X116042147Y-85866359D01*
X116062290Y-85875558D01*
X116083927Y-85880265D01*
X116101652Y-85893533D01*
X116105703Y-85895384D01*
X116112181Y-85901416D01*
X116263181Y-86052416D01*
X116296666Y-86113739D01*
X116299500Y-86140097D01*
X116299500Y-87012870D01*
X116299501Y-87012876D01*
X116305908Y-87072483D01*
X116356202Y-87207328D01*
X116356206Y-87207335D01*
X116442452Y-87322544D01*
X116442455Y-87322547D01*
X116557664Y-87408793D01*
X116557671Y-87408797D01*
X116692517Y-87459091D01*
X116692516Y-87459091D01*
X116699444Y-87459835D01*
X116752127Y-87465500D01*
X118447872Y-87465499D01*
X118507483Y-87459091D01*
X118642331Y-87408796D01*
X118757546Y-87322546D01*
X118843796Y-87207331D01*
X118894091Y-87072483D01*
X118900500Y-87012873D01*
X118900499Y-86067128D01*
X118894091Y-86007517D01*
X118894060Y-86007435D01*
X118843797Y-85872671D01*
X118843793Y-85872664D01*
X118757547Y-85757455D01*
X118752416Y-85752324D01*
X118718931Y-85691001D01*
X118723915Y-85621309D01*
X118752416Y-85576962D01*
X118757190Y-85572187D01*
X118843350Y-85457093D01*
X118843354Y-85457086D01*
X118893596Y-85322379D01*
X118893598Y-85322372D01*
X118899999Y-85262844D01*
X118900000Y-85262827D01*
X118900000Y-85040000D01*
X117724000Y-85040000D01*
X117656961Y-85020315D01*
X117611206Y-84967511D01*
X117600000Y-84916000D01*
X117600000Y-84790000D01*
X117474000Y-84790000D01*
X117406961Y-84770315D01*
X117361206Y-84717511D01*
X117350000Y-84666000D01*
X117350000Y-84540000D01*
X117850000Y-84540000D01*
X118900000Y-84540000D01*
X118900000Y-84317172D01*
X118899999Y-84317155D01*
X118893598Y-84257627D01*
X118893596Y-84257620D01*
X118843354Y-84122913D01*
X118843350Y-84122906D01*
X118757190Y-84007812D01*
X118757187Y-84007809D01*
X118642093Y-83921649D01*
X118642086Y-83921645D01*
X118507379Y-83871403D01*
X118507372Y-83871401D01*
X118447844Y-83865000D01*
X117850000Y-83865000D01*
X117850000Y-84540000D01*
X117350000Y-84540000D01*
X117350000Y-83865000D01*
X116929500Y-83865000D01*
X116862461Y-83845315D01*
X116816706Y-83792511D01*
X116805500Y-83741000D01*
X116805500Y-82080042D01*
X116825185Y-82013003D01*
X116877989Y-81967248D01*
X116928700Y-81956046D01*
X125575718Y-81900794D01*
X125642882Y-81920049D01*
G37*
%TD.AperFunction*%
%TA.AperFunction,Conductor*%
G36*
X115546872Y-81984559D02*
G01*
X115592963Y-82037070D01*
X115604500Y-82089301D01*
X115604500Y-84134357D01*
X115584815Y-84201396D01*
X115532011Y-84247151D01*
X115462853Y-84257095D01*
X115399297Y-84228070D01*
X115364318Y-84177690D01*
X115343797Y-84122671D01*
X115343793Y-84122664D01*
X115257547Y-84007455D01*
X115257544Y-84007452D01*
X115142335Y-83921206D01*
X115142328Y-83921202D01*
X115007482Y-83870908D01*
X115007483Y-83870908D01*
X114947883Y-83864501D01*
X114947881Y-83864500D01*
X114947873Y-83864500D01*
X114947864Y-83864500D01*
X113252129Y-83864500D01*
X113252123Y-83864501D01*
X113192516Y-83870908D01*
X113057671Y-83921202D01*
X113057664Y-83921206D01*
X112942455Y-84007452D01*
X112942452Y-84007455D01*
X112856206Y-84122664D01*
X112856202Y-84122671D01*
X112805908Y-84257517D01*
X112799501Y-84317116D01*
X112799500Y-84317135D01*
X112799500Y-85262870D01*
X112799501Y-85262876D01*
X112805908Y-85322483D01*
X112856202Y-85457328D01*
X112856206Y-85457335D01*
X112942452Y-85572544D01*
X112947227Y-85577319D01*
X112947324Y-85577497D01*
X112947504Y-85577596D01*
X112964123Y-85608263D01*
X112980712Y-85638642D01*
X112980697Y-85638845D01*
X112980795Y-85639025D01*
X112978209Y-85673642D01*
X112975728Y-85708334D01*
X112975599Y-85708567D01*
X112975590Y-85708701D01*
X112975169Y-85709353D01*
X112958578Y-85739624D01*
X112948621Y-85752836D01*
X112942454Y-85757454D01*
X112856204Y-85872669D01*
X112854126Y-85878239D01*
X112845171Y-85890124D01*
X112824120Y-85905778D01*
X112805569Y-85924331D01*
X112795830Y-85926816D01*
X112789105Y-85931818D01*
X112771530Y-85933019D01*
X112746139Y-85939500D01*
X111489969Y-85939500D01*
X111422930Y-85919815D01*
X111421123Y-85918632D01*
X111379179Y-85890606D01*
X111379172Y-85890602D01*
X111233501Y-85830264D01*
X111233489Y-85830261D01*
X111078845Y-85799500D01*
X111078842Y-85799500D01*
X110921158Y-85799500D01*
X110921155Y-85799500D01*
X110766510Y-85830261D01*
X110766498Y-85830264D01*
X110620827Y-85890602D01*
X110620814Y-85890609D01*
X110489711Y-85978210D01*
X110489707Y-85978213D01*
X110378213Y-86089707D01*
X110378210Y-86089711D01*
X110290609Y-86220814D01*
X110290602Y-86220827D01*
X110230264Y-86366498D01*
X110230261Y-86366510D01*
X110199500Y-86521153D01*
X110199500Y-86678846D01*
X110230261Y-86833489D01*
X110230264Y-86833501D01*
X110290602Y-86979172D01*
X110290609Y-86979185D01*
X110378210Y-87110288D01*
X110378213Y-87110292D01*
X110489707Y-87221786D01*
X110489711Y-87221789D01*
X110620814Y-87309390D01*
X110620827Y-87309397D01*
X110759922Y-87367011D01*
X110766503Y-87369737D01*
X110921153Y-87400499D01*
X110921156Y-87400500D01*
X110921158Y-87400500D01*
X111078844Y-87400500D01*
X111078845Y-87400499D01*
X111233497Y-87369737D01*
X111379179Y-87309394D01*
X111510289Y-87221789D01*
X111555258Y-87176820D01*
X111616581Y-87143334D01*
X111642940Y-87140500D01*
X112746139Y-87140500D01*
X112813178Y-87160185D01*
X112850637Y-87200418D01*
X112850888Y-87200231D01*
X112852635Y-87202565D01*
X112854973Y-87205076D01*
X112856207Y-87207336D01*
X112942452Y-87322544D01*
X112942455Y-87322547D01*
X113057664Y-87408793D01*
X113057671Y-87408797D01*
X113192517Y-87459091D01*
X113192516Y-87459091D01*
X113199444Y-87459835D01*
X113252127Y-87465500D01*
X114575500Y-87465499D01*
X114642539Y-87485184D01*
X114688294Y-87537987D01*
X114699500Y-87589499D01*
X114699500Y-88860500D01*
X114679815Y-88927539D01*
X114627011Y-88973294D01*
X114575500Y-88984500D01*
X113252129Y-88984500D01*
X113252123Y-88984501D01*
X113192516Y-88990908D01*
X113057671Y-89041202D01*
X113057664Y-89041206D01*
X112942455Y-89127452D01*
X112942452Y-89127455D01*
X112856206Y-89242664D01*
X112856202Y-89242671D01*
X112805908Y-89377517D01*
X112799501Y-89437116D01*
X112799500Y-89437135D01*
X112799500Y-90382870D01*
X112799501Y-90382876D01*
X112805908Y-90442483D01*
X112856202Y-90577328D01*
X112856206Y-90577335D01*
X112942452Y-90692544D01*
X112947227Y-90697319D01*
X112947324Y-90697497D01*
X112947504Y-90697596D01*
X112964123Y-90728263D01*
X112980712Y-90758642D01*
X112980697Y-90758845D01*
X112980795Y-90759025D01*
X112978208Y-90793649D01*
X112975728Y-90828334D01*
X112975599Y-90828567D01*
X112975590Y-90828701D01*
X112975169Y-90829353D01*
X112958578Y-90859624D01*
X112948621Y-90872836D01*
X112942454Y-90877454D01*
X112856204Y-90992669D01*
X112854126Y-90998239D01*
X112845171Y-91010124D01*
X112824120Y-91025778D01*
X112805569Y-91044331D01*
X112795830Y-91046816D01*
X112789105Y-91051818D01*
X112771530Y-91053019D01*
X112746139Y-91059500D01*
X111328746Y-91059500D01*
X111281294Y-91050061D01*
X111233498Y-91030263D01*
X111233488Y-91030260D01*
X111078845Y-90999500D01*
X111078842Y-90999500D01*
X110921158Y-90999500D01*
X110921155Y-90999500D01*
X110766510Y-91030261D01*
X110766498Y-91030264D01*
X110620827Y-91090602D01*
X110620814Y-91090609D01*
X110489711Y-91178210D01*
X110489707Y-91178213D01*
X110378213Y-91289707D01*
X110378210Y-91289711D01*
X110290609Y-91420814D01*
X110290602Y-91420827D01*
X110230264Y-91566498D01*
X110230261Y-91566510D01*
X110199500Y-91721153D01*
X110199500Y-91878846D01*
X110230261Y-92033489D01*
X110230264Y-92033501D01*
X110290602Y-92179172D01*
X110290609Y-92179185D01*
X110378210Y-92310288D01*
X110378213Y-92310292D01*
X110489707Y-92421786D01*
X110489711Y-92421789D01*
X110620814Y-92509390D01*
X110620827Y-92509397D01*
X110725502Y-92552754D01*
X110766503Y-92569737D01*
X110890537Y-92594409D01*
X110921153Y-92600499D01*
X110921156Y-92600500D01*
X110921158Y-92600500D01*
X111078844Y-92600500D01*
X111078845Y-92600499D01*
X111233497Y-92569737D01*
X111379179Y-92509394D01*
X111510289Y-92421789D01*
X111621789Y-92310289D01*
X111621793Y-92310281D01*
X111625445Y-92305834D01*
X111683191Y-92266500D01*
X111721298Y-92260500D01*
X112746139Y-92260500D01*
X112813178Y-92280185D01*
X112850637Y-92320418D01*
X112850888Y-92320231D01*
X112852635Y-92322565D01*
X112854973Y-92325076D01*
X112856207Y-92327336D01*
X112942452Y-92442544D01*
X112942455Y-92442547D01*
X113057664Y-92528793D01*
X113057671Y-92528797D01*
X113192517Y-92579091D01*
X113192516Y-92579091D01*
X113199444Y-92579835D01*
X113252127Y-92585500D01*
X114476500Y-92585499D01*
X114543539Y-92605184D01*
X114589294Y-92657987D01*
X114600500Y-92709499D01*
X114600500Y-93980500D01*
X114580815Y-94047539D01*
X114528011Y-94093294D01*
X114476500Y-94104500D01*
X113252129Y-94104500D01*
X113252123Y-94104501D01*
X113192516Y-94110908D01*
X113057671Y-94161202D01*
X113057664Y-94161206D01*
X112942455Y-94247452D01*
X112942452Y-94247455D01*
X112856206Y-94362664D01*
X112856202Y-94362671D01*
X112805908Y-94497517D01*
X112799501Y-94557116D01*
X112799500Y-94557135D01*
X112799500Y-95502870D01*
X112799501Y-95502876D01*
X112805908Y-95562483D01*
X112856202Y-95697328D01*
X112856206Y-95697335D01*
X112942452Y-95812544D01*
X112947227Y-95817319D01*
X112947324Y-95817497D01*
X112947504Y-95817596D01*
X112964123Y-95848263D01*
X112980712Y-95878642D01*
X112980697Y-95878845D01*
X112980795Y-95879025D01*
X112978208Y-95913649D01*
X112975728Y-95948334D01*
X112975599Y-95948567D01*
X112975590Y-95948701D01*
X112975169Y-95949353D01*
X112958578Y-95979624D01*
X112948621Y-95992836D01*
X112942454Y-95997454D01*
X112856204Y-96112669D01*
X112854126Y-96118239D01*
X112845171Y-96130124D01*
X112824120Y-96145778D01*
X112805569Y-96164331D01*
X112795830Y-96166816D01*
X112789105Y-96171818D01*
X112771530Y-96173019D01*
X112746139Y-96179500D01*
X111377031Y-96179500D01*
X111329579Y-96170061D01*
X111233498Y-96130263D01*
X111233488Y-96130260D01*
X111078845Y-96099500D01*
X111078842Y-96099500D01*
X110921158Y-96099500D01*
X110921155Y-96099500D01*
X110766510Y-96130261D01*
X110766498Y-96130264D01*
X110620827Y-96190602D01*
X110620816Y-96190608D01*
X110507059Y-96266618D01*
X110440382Y-96287495D01*
X110373002Y-96269010D01*
X110350488Y-96251196D01*
X107937819Y-93838527D01*
X107904334Y-93777204D01*
X107901500Y-93750846D01*
X107901500Y-87815060D01*
X107901501Y-87815047D01*
X107901501Y-87646945D01*
X107901501Y-87646943D01*
X107860577Y-87494215D01*
X107811260Y-87408796D01*
X107781520Y-87357284D01*
X107669716Y-87245480D01*
X107669715Y-87245479D01*
X107665385Y-87241149D01*
X107665374Y-87241139D01*
X107486818Y-87062583D01*
X107453333Y-87001260D01*
X107450499Y-86974902D01*
X107450499Y-86102129D01*
X107450498Y-86102123D01*
X107449163Y-86089707D01*
X107444091Y-86042517D01*
X107431036Y-86007516D01*
X107393797Y-85907671D01*
X107393793Y-85907664D01*
X107307547Y-85792455D01*
X107302416Y-85787324D01*
X107268931Y-85726001D01*
X107273915Y-85656309D01*
X107302416Y-85611962D01*
X107307190Y-85607187D01*
X107393350Y-85492093D01*
X107393354Y-85492086D01*
X107443596Y-85357379D01*
X107443598Y-85357372D01*
X107449999Y-85297844D01*
X107450000Y-85297827D01*
X107450000Y-85075000D01*
X104850000Y-85075000D01*
X104850000Y-85297844D01*
X104856401Y-85357372D01*
X104856403Y-85357379D01*
X104906645Y-85492086D01*
X104906649Y-85492093D01*
X104992809Y-85607187D01*
X104997584Y-85611962D01*
X105031069Y-85673285D01*
X105026085Y-85742977D01*
X104997584Y-85787324D01*
X104992452Y-85792455D01*
X104906206Y-85907664D01*
X104906202Y-85907671D01*
X104885534Y-85963087D01*
X104843663Y-86019021D01*
X104778199Y-86043438D01*
X104709926Y-86028586D01*
X104681671Y-86007435D01*
X103986818Y-85312582D01*
X103953333Y-85251259D01*
X103950499Y-85224901D01*
X103950499Y-84823500D01*
X103970184Y-84756461D01*
X104022988Y-84710706D01*
X104074499Y-84699500D01*
X109712802Y-84699500D01*
X109712818Y-84699501D01*
X109720414Y-84699501D01*
X109878525Y-84699501D01*
X109878528Y-84699501D01*
X110031256Y-84658577D01*
X110081375Y-84629639D01*
X110168187Y-84579520D01*
X110279991Y-84467716D01*
X110279991Y-84467714D01*
X110290199Y-84457507D01*
X110290200Y-84457504D01*
X112729066Y-82018639D01*
X112790386Y-81985156D01*
X112815940Y-81982326D01*
X115479712Y-81965305D01*
X115546872Y-81984559D01*
G37*
%TD.AperFunction*%
%TA.AperFunction,Conductor*%
G36*
X105099813Y-87437915D02*
G01*
X105107667Y-87443795D01*
X105107671Y-87443797D01*
X105242517Y-87494091D01*
X105242516Y-87494091D01*
X105249444Y-87494835D01*
X105302127Y-87500500D01*
X106174902Y-87500499D01*
X106241941Y-87520183D01*
X106262583Y-87536818D01*
X106664181Y-87938416D01*
X106697666Y-87999739D01*
X106700500Y-88026097D01*
X106700500Y-91181000D01*
X106680815Y-91248039D01*
X106628011Y-91293794D01*
X106576500Y-91305000D01*
X106450000Y-91305000D01*
X106450000Y-92106000D01*
X106430315Y-92173039D01*
X106377511Y-92218794D01*
X106326000Y-92230000D01*
X106074000Y-92230000D01*
X106006961Y-92210315D01*
X105961206Y-92157511D01*
X105950000Y-92106000D01*
X105950000Y-91305000D01*
X105352155Y-91305000D01*
X105292627Y-91311401D01*
X105292620Y-91311403D01*
X105157913Y-91361645D01*
X105157906Y-91361649D01*
X105099811Y-91405140D01*
X105034347Y-91429558D01*
X104966074Y-91414707D01*
X104916668Y-91365302D01*
X104901500Y-91305874D01*
X104901500Y-87537180D01*
X104921185Y-87470141D01*
X104973989Y-87424386D01*
X105043147Y-87414442D01*
X105099813Y-87437915D01*
G37*
%TD.AperFunction*%
%TD*%
%TA.AperFunction,Conductor*%
%TO.N,C3*%
G36*
X78813811Y-53342200D02*
G01*
X78880077Y-53364334D01*
X78923861Y-53418783D01*
X78933250Y-53466115D01*
X78933250Y-57091088D01*
X78913565Y-57158127D01*
X78896931Y-57178769D01*
X76582231Y-59493468D01*
X76582229Y-59493471D01*
X76532111Y-59580280D01*
X76532109Y-59580282D01*
X76503175Y-59630395D01*
X76503174Y-59630396D01*
X76487294Y-59689658D01*
X76462249Y-59783129D01*
X76462249Y-59783131D01*
X76462249Y-59951232D01*
X76462250Y-59951245D01*
X76462250Y-65076080D01*
X76462249Y-65076098D01*
X76462249Y-65241804D01*
X76462248Y-65241804D01*
X76503173Y-65394535D01*
X76532108Y-65444650D01*
X76532109Y-65444654D01*
X76532110Y-65444654D01*
X76582229Y-65531464D01*
X76582231Y-65531467D01*
X76701099Y-65650335D01*
X76701105Y-65650340D01*
X80486245Y-69435480D01*
X80519730Y-69496803D01*
X80514746Y-69566495D01*
X80472874Y-69622428D01*
X80467455Y-69626263D01*
X80389711Y-69678210D01*
X80389707Y-69678213D01*
X80278213Y-69789707D01*
X80278210Y-69789711D01*
X80190609Y-69920814D01*
X80190602Y-69920827D01*
X80130264Y-70066498D01*
X80130261Y-70066510D01*
X80099500Y-70221153D01*
X80099500Y-70378846D01*
X80130261Y-70533489D01*
X80130264Y-70533501D01*
X80190602Y-70679172D01*
X80190609Y-70679185D01*
X80278210Y-70810288D01*
X80278213Y-70810292D01*
X80389707Y-70921786D01*
X80389711Y-70921789D01*
X80516301Y-71006374D01*
X80561106Y-71059986D01*
X80569813Y-71129311D01*
X80539659Y-71192338D01*
X80480216Y-71229058D01*
X80449204Y-71233463D01*
X71324361Y-71365523D01*
X71257044Y-71346811D01*
X71234886Y-71329217D01*
X64280350Y-64374681D01*
X64246865Y-64313358D01*
X64251849Y-64243666D01*
X64293721Y-64187733D01*
X64359185Y-64163316D01*
X64368031Y-64163000D01*
X64441249Y-64163000D01*
X64441256Y-64163000D01*
X64733743Y-64124493D01*
X65018702Y-64048139D01*
X65291257Y-63935243D01*
X65546744Y-63787738D01*
X65780792Y-63608146D01*
X65989396Y-63399542D01*
X66168988Y-63165494D01*
X66316493Y-62910007D01*
X66429389Y-62637452D01*
X66505743Y-62352493D01*
X66544250Y-62060006D01*
X66544250Y-61825889D01*
X68273250Y-61825889D01*
X68273250Y-61999110D01*
X68298217Y-62156751D01*
X68300348Y-62170201D01*
X68353877Y-62334945D01*
X68432518Y-62489288D01*
X68534336Y-62629428D01*
X68656822Y-62751914D01*
X68796962Y-62853732D01*
X68951305Y-62932373D01*
X69116049Y-62985902D01*
X69287139Y-63013000D01*
X69287140Y-63013000D01*
X69460360Y-63013000D01*
X69460361Y-63013000D01*
X69631451Y-62985902D01*
X69796195Y-62932373D01*
X69950538Y-62853732D01*
X70090678Y-62751914D01*
X70213164Y-62629428D01*
X70314982Y-62489288D01*
X70393623Y-62334945D01*
X70447152Y-62170201D01*
X70474250Y-61999111D01*
X70474250Y-61825889D01*
X70447152Y-61654799D01*
X70393623Y-61490055D01*
X70314982Y-61335712D01*
X70213164Y-61195572D01*
X70090678Y-61073086D01*
X69950538Y-60971268D01*
X69796195Y-60892627D01*
X69631451Y-60839098D01*
X69631449Y-60839097D01*
X69631448Y-60839097D01*
X69500021Y-60818281D01*
X69460361Y-60812000D01*
X69287139Y-60812000D01*
X69247478Y-60818281D01*
X69116052Y-60839097D01*
X68951302Y-60892628D01*
X68796961Y-60971268D01*
X68740039Y-61012625D01*
X68656822Y-61073086D01*
X68656820Y-61073088D01*
X68656819Y-61073088D01*
X68534338Y-61195569D01*
X68534338Y-61195570D01*
X68534336Y-61195572D01*
X68490609Y-61255756D01*
X68432518Y-61335711D01*
X68353878Y-61490052D01*
X68300347Y-61654802D01*
X68273250Y-61825889D01*
X66544250Y-61825889D01*
X66544250Y-61764994D01*
X66505743Y-61472507D01*
X66429389Y-61187548D01*
X66428339Y-61185014D01*
X66367704Y-61038627D01*
X66316493Y-60914993D01*
X66261059Y-60818979D01*
X66168988Y-60659506D01*
X65989397Y-60425459D01*
X65989391Y-60425452D01*
X65780797Y-60216858D01*
X65780790Y-60216852D01*
X65546743Y-60037261D01*
X65291260Y-59889758D01*
X65291250Y-59889754D01*
X65018711Y-59776864D01*
X65018704Y-59776862D01*
X65018702Y-59776861D01*
X64733743Y-59700507D01*
X64684863Y-59694071D01*
X64441263Y-59662000D01*
X64441256Y-59662000D01*
X64146244Y-59662000D01*
X64146236Y-59662000D01*
X63867835Y-59698653D01*
X63853757Y-59700507D01*
X63679178Y-59747285D01*
X63568798Y-59776861D01*
X63568788Y-59776864D01*
X63296249Y-59889754D01*
X63296239Y-59889758D01*
X63040756Y-60037261D01*
X62806709Y-60216852D01*
X62806702Y-60216858D01*
X62598108Y-60425452D01*
X62598102Y-60425459D01*
X62418511Y-60659506D01*
X62271008Y-60914989D01*
X62271004Y-60914999D01*
X62158114Y-61187538D01*
X62158111Y-61187548D01*
X62081758Y-61472504D01*
X62081756Y-61472515D01*
X62043250Y-61764986D01*
X62043250Y-61838219D01*
X62023565Y-61905258D01*
X61970761Y-61951013D01*
X61901603Y-61960957D01*
X61838047Y-61931932D01*
X61831569Y-61925900D01*
X61120569Y-61214900D01*
X61105865Y-61187972D01*
X61089273Y-61162154D01*
X61088381Y-61155953D01*
X61087084Y-61153577D01*
X61084250Y-61127219D01*
X61084250Y-60938800D01*
X61103935Y-60871761D01*
X61151954Y-60828315D01*
X61322595Y-60741370D01*
X61526406Y-60593293D01*
X61704543Y-60415156D01*
X61852620Y-60211345D01*
X61966991Y-59986879D01*
X62044840Y-59747285D01*
X62084250Y-59498462D01*
X62084250Y-59246538D01*
X62044840Y-58997715D01*
X61966991Y-58758121D01*
X61966989Y-58758118D01*
X61966989Y-58758116D01*
X61925497Y-58676684D01*
X61852620Y-58533655D01*
X61779127Y-58432500D01*
X61704548Y-58329850D01*
X61704544Y-58329845D01*
X61526404Y-58151705D01*
X61526399Y-58151701D01*
X61322598Y-58003632D01*
X61322597Y-58003631D01*
X61322595Y-58003630D01*
X61252497Y-57967913D01*
X61098133Y-57889260D01*
X60858535Y-57811410D01*
X60857803Y-57811294D01*
X60609712Y-57772000D01*
X60357788Y-57772000D01*
X60240341Y-57790602D01*
X60108964Y-57811410D01*
X59869366Y-57889260D01*
X59644901Y-58003632D01*
X59441100Y-58151701D01*
X59441095Y-58151705D01*
X59262955Y-58329845D01*
X59262951Y-58329850D01*
X59114882Y-58533651D01*
X59000510Y-58758116D01*
X58922660Y-58997714D01*
X58902386Y-59125719D01*
X58883250Y-59246538D01*
X58883250Y-59498462D01*
X58904147Y-59630401D01*
X58922660Y-59747285D01*
X59000510Y-59986883D01*
X59055723Y-60095243D01*
X59099392Y-60180949D01*
X59114882Y-60211348D01*
X59262951Y-60415149D01*
X59262955Y-60415154D01*
X59262957Y-60415156D01*
X59441094Y-60593293D01*
X59441095Y-60593294D01*
X59441094Y-60593294D01*
X59447411Y-60597883D01*
X59490077Y-60653214D01*
X59496055Y-60722827D01*
X59463449Y-60784622D01*
X59402610Y-60818979D01*
X59355128Y-60820674D01*
X59300361Y-60812000D01*
X59127139Y-60812000D01*
X59087478Y-60818281D01*
X58956052Y-60839097D01*
X58791297Y-60892629D01*
X58786796Y-60894494D01*
X58786128Y-60892883D01*
X58724852Y-60904379D01*
X58660116Y-60878090D01*
X58619870Y-60820975D01*
X58613250Y-60781000D01*
X58613250Y-56706571D01*
X65233750Y-56706571D01*
X65233750Y-56958428D01*
X65273147Y-57207169D01*
X65350969Y-57446684D01*
X65465307Y-57671083D01*
X65539498Y-57773197D01*
X65539498Y-57773198D01*
X66156171Y-57156524D01*
X66169109Y-57187758D01*
X66251187Y-57310597D01*
X66355653Y-57415063D01*
X66478492Y-57497141D01*
X66509724Y-57510077D01*
X65893050Y-58126750D01*
X65995166Y-58200942D01*
X66219565Y-58315280D01*
X66459080Y-58393102D01*
X66707822Y-58432500D01*
X66959678Y-58432500D01*
X67208419Y-58393102D01*
X67447934Y-58315280D01*
X67672325Y-58200946D01*
X67672331Y-58200942D01*
X67774447Y-58126750D01*
X67774448Y-58126750D01*
X67157775Y-57510078D01*
X67189008Y-57497141D01*
X67311847Y-57415063D01*
X67416313Y-57310597D01*
X67498391Y-57187758D01*
X67511327Y-57156525D01*
X68128000Y-57773198D01*
X68128000Y-57773197D01*
X68202192Y-57671081D01*
X68202196Y-57671075D01*
X68316530Y-57446684D01*
X68394352Y-57207169D01*
X68433750Y-56958428D01*
X68433750Y-56706571D01*
X68394352Y-56457830D01*
X68316530Y-56218315D01*
X68202192Y-55993916D01*
X68128000Y-55891801D01*
X68128000Y-55891800D01*
X67511327Y-56508473D01*
X67498391Y-56477242D01*
X67416313Y-56354403D01*
X67311847Y-56249937D01*
X67189008Y-56167859D01*
X67157774Y-56154921D01*
X67774448Y-55538248D01*
X67672333Y-55464057D01*
X67447934Y-55349719D01*
X67208419Y-55271897D01*
X66959678Y-55232500D01*
X66707822Y-55232500D01*
X66459080Y-55271897D01*
X66219565Y-55349719D01*
X65995163Y-55464059D01*
X65893051Y-55538247D01*
X65893050Y-55538248D01*
X66509724Y-56154921D01*
X66478492Y-56167859D01*
X66355653Y-56249937D01*
X66251187Y-56354403D01*
X66169109Y-56477242D01*
X66156171Y-56508474D01*
X65539498Y-55891800D01*
X65539497Y-55891801D01*
X65465309Y-55993913D01*
X65350969Y-56218315D01*
X65273147Y-56457830D01*
X65233750Y-56706571D01*
X58613250Y-56706571D01*
X58613250Y-52728035D01*
X58632935Y-52660996D01*
X58685739Y-52615241D01*
X58741804Y-52604119D01*
X78813811Y-53342200D01*
G37*
%TD.AperFunction*%
%TA.AperFunction,Conductor*%
G36*
X99322811Y-54096350D02*
G01*
X99389077Y-54118484D01*
X99432861Y-54172933D01*
X99442250Y-54220265D01*
X99442250Y-57811294D01*
X99422565Y-57878333D01*
X99369761Y-57924088D01*
X99300603Y-57934032D01*
X99261956Y-57921779D01*
X99198136Y-57889261D01*
X98958535Y-57811410D01*
X98957803Y-57811294D01*
X98709712Y-57772000D01*
X98457788Y-57772000D01*
X98340341Y-57790602D01*
X98208964Y-57811410D01*
X97969366Y-57889260D01*
X97744901Y-58003632D01*
X97541100Y-58151701D01*
X97541095Y-58151705D01*
X97362955Y-58329845D01*
X97362951Y-58329850D01*
X97214882Y-58533651D01*
X97100510Y-58758116D01*
X97022660Y-58997714D01*
X97002386Y-59125719D01*
X96983250Y-59246538D01*
X96983250Y-59498462D01*
X97004147Y-59630401D01*
X97022660Y-59747285D01*
X97100510Y-59986883D01*
X97155723Y-60095243D01*
X97199392Y-60180949D01*
X97214882Y-60211348D01*
X97362951Y-60415149D01*
X97362955Y-60415154D01*
X97362957Y-60415156D01*
X97541094Y-60593293D01*
X97541095Y-60593294D01*
X97541094Y-60593294D01*
X97547411Y-60597883D01*
X97590077Y-60653214D01*
X97596055Y-60722827D01*
X97563449Y-60784622D01*
X97502610Y-60818979D01*
X97455128Y-60820674D01*
X97400361Y-60812000D01*
X97227139Y-60812000D01*
X97187478Y-60818281D01*
X97056052Y-60839097D01*
X96891302Y-60892628D01*
X96736961Y-60971268D01*
X96680039Y-61012625D01*
X96596822Y-61073086D01*
X96596820Y-61073088D01*
X96596819Y-61073088D01*
X96474338Y-61195569D01*
X96474338Y-61195570D01*
X96474336Y-61195572D01*
X96430609Y-61255756D01*
X96372518Y-61335711D01*
X96293878Y-61490052D01*
X96240347Y-61654802D01*
X96213250Y-61825889D01*
X96213250Y-61999110D01*
X96238217Y-62156751D01*
X96240348Y-62170201D01*
X96293877Y-62334945D01*
X96372518Y-62489288D01*
X96474336Y-62629428D01*
X96596822Y-62751914D01*
X96736962Y-62853732D01*
X96891305Y-62932373D01*
X97056049Y-62985902D01*
X97227139Y-63013000D01*
X97227140Y-63013000D01*
X97400360Y-63013000D01*
X97400361Y-63013000D01*
X97571451Y-62985902D01*
X97736195Y-62932373D01*
X97890538Y-62853732D01*
X98030678Y-62751914D01*
X98153164Y-62629428D01*
X98254982Y-62489288D01*
X98333623Y-62334945D01*
X98387152Y-62170201D01*
X98414250Y-61999111D01*
X98414250Y-61825889D01*
X98387152Y-61654799D01*
X98333623Y-61490055D01*
X98254982Y-61335712D01*
X98153164Y-61195572D01*
X98101232Y-61143640D01*
X98067747Y-61082317D01*
X98072731Y-61012625D01*
X98114603Y-60956692D01*
X98180067Y-60932275D01*
X98208311Y-60933486D01*
X98208962Y-60933589D01*
X98208965Y-60933590D01*
X98457788Y-60973000D01*
X98457789Y-60973000D01*
X98709711Y-60973000D01*
X98709712Y-60973000D01*
X98958535Y-60933590D01*
X99198129Y-60855741D01*
X99261955Y-60823219D01*
X99330624Y-60810324D01*
X99395365Y-60836600D01*
X99435622Y-60893707D01*
X99442250Y-60933705D01*
X99442250Y-63556080D01*
X99442249Y-63556098D01*
X99442249Y-63721804D01*
X99442248Y-63721804D01*
X99483173Y-63874535D01*
X99512108Y-63924650D01*
X99512109Y-63924654D01*
X99512110Y-63924654D01*
X99562229Y-64011464D01*
X99562231Y-64011467D01*
X99681099Y-64130335D01*
X99681105Y-64130340D01*
X106201107Y-70650342D01*
X106234592Y-70711665D01*
X106229608Y-70781357D01*
X106187736Y-70837290D01*
X106122272Y-70861707D01*
X106115220Y-70862010D01*
X90096251Y-71093846D01*
X90028934Y-71075134D01*
X90006776Y-71057540D01*
X83323916Y-64374681D01*
X83290431Y-64313358D01*
X83295415Y-64243666D01*
X83337287Y-64187733D01*
X83402751Y-64163316D01*
X83411597Y-64163000D01*
X83491249Y-64163000D01*
X83491256Y-64163000D01*
X83783743Y-64124493D01*
X84068702Y-64048139D01*
X84341257Y-63935243D01*
X84596744Y-63787738D01*
X84830792Y-63608146D01*
X85039396Y-63399542D01*
X85218988Y-63165494D01*
X85366493Y-62910007D01*
X85479389Y-62637452D01*
X85555743Y-62352493D01*
X85594250Y-62060006D01*
X85594250Y-61825889D01*
X87323250Y-61825889D01*
X87323250Y-61999110D01*
X87348217Y-62156751D01*
X87350348Y-62170201D01*
X87403877Y-62334945D01*
X87482518Y-62489288D01*
X87584336Y-62629428D01*
X87706822Y-62751914D01*
X87846962Y-62853732D01*
X88001305Y-62932373D01*
X88166049Y-62985902D01*
X88337139Y-63013000D01*
X88337140Y-63013000D01*
X88510360Y-63013000D01*
X88510361Y-63013000D01*
X88681451Y-62985902D01*
X88846195Y-62932373D01*
X89000538Y-62853732D01*
X89140678Y-62751914D01*
X89263164Y-62629428D01*
X89364982Y-62489288D01*
X89443623Y-62334945D01*
X89497152Y-62170201D01*
X89524250Y-61999111D01*
X89524250Y-61825889D01*
X89497152Y-61654799D01*
X89443623Y-61490055D01*
X89364982Y-61335712D01*
X89263164Y-61195572D01*
X89140678Y-61073086D01*
X89000538Y-60971268D01*
X88846195Y-60892627D01*
X88681451Y-60839098D01*
X88681449Y-60839097D01*
X88681448Y-60839097D01*
X88550021Y-60818281D01*
X88510361Y-60812000D01*
X88337139Y-60812000D01*
X88297478Y-60818281D01*
X88166052Y-60839097D01*
X88001302Y-60892628D01*
X87846961Y-60971268D01*
X87790039Y-61012625D01*
X87706822Y-61073086D01*
X87706820Y-61073088D01*
X87706819Y-61073088D01*
X87584338Y-61195569D01*
X87584338Y-61195570D01*
X87584336Y-61195572D01*
X87540609Y-61255756D01*
X87482518Y-61335711D01*
X87403878Y-61490052D01*
X87350347Y-61654802D01*
X87323250Y-61825889D01*
X85594250Y-61825889D01*
X85594250Y-61764994D01*
X85555743Y-61472507D01*
X85479389Y-61187548D01*
X85478339Y-61185014D01*
X85417704Y-61038627D01*
X85366493Y-60914993D01*
X85311059Y-60818979D01*
X85218988Y-60659506D01*
X85039397Y-60425459D01*
X85039391Y-60425452D01*
X84830797Y-60216858D01*
X84830790Y-60216852D01*
X84596743Y-60037261D01*
X84341260Y-59889758D01*
X84341250Y-59889754D01*
X84068711Y-59776864D01*
X84068704Y-59776862D01*
X84068702Y-59776861D01*
X83783743Y-59700507D01*
X83734863Y-59694071D01*
X83491263Y-59662000D01*
X83491256Y-59662000D01*
X83196244Y-59662000D01*
X83196236Y-59662000D01*
X82917835Y-59698653D01*
X82903757Y-59700507D01*
X82729178Y-59747285D01*
X82618798Y-59776861D01*
X82618788Y-59776864D01*
X82346249Y-59889754D01*
X82346239Y-59889758D01*
X82090756Y-60037261D01*
X81856709Y-60216852D01*
X81856702Y-60216858D01*
X81648108Y-60425452D01*
X81648102Y-60425459D01*
X81468511Y-60659506D01*
X81321008Y-60914989D01*
X81321004Y-60914999D01*
X81208114Y-61187538D01*
X81208111Y-61187548D01*
X81131758Y-61472504D01*
X81131756Y-61472515D01*
X81093250Y-61764986D01*
X81093250Y-61844652D01*
X81073565Y-61911691D01*
X81020761Y-61957446D01*
X80951603Y-61967390D01*
X80888047Y-61938365D01*
X80881569Y-61932333D01*
X80170569Y-61221333D01*
X80155865Y-61194405D01*
X80139273Y-61168587D01*
X80138381Y-61162386D01*
X80137084Y-61160010D01*
X80134250Y-61133652D01*
X80134250Y-60938800D01*
X80153935Y-60871761D01*
X80201954Y-60828315D01*
X80372595Y-60741370D01*
X80576406Y-60593293D01*
X80754543Y-60415156D01*
X80902620Y-60211345D01*
X81016991Y-59986879D01*
X81094840Y-59747285D01*
X81134250Y-59498462D01*
X81134250Y-59246538D01*
X81094840Y-58997715D01*
X81016991Y-58758121D01*
X81016989Y-58758118D01*
X81016989Y-58758116D01*
X80975497Y-58676684D01*
X80902620Y-58533655D01*
X80829127Y-58432500D01*
X80754548Y-58329850D01*
X80754544Y-58329845D01*
X80576404Y-58151705D01*
X80576399Y-58151701D01*
X80372598Y-58003632D01*
X80372597Y-58003631D01*
X80372595Y-58003630D01*
X80216485Y-57924088D01*
X80148134Y-57889261D01*
X80148131Y-57889260D01*
X80148129Y-57889259D01*
X80118155Y-57879519D01*
X80060482Y-57840082D01*
X80033285Y-57775723D01*
X80045200Y-57706877D01*
X80049079Y-57699609D01*
X80093327Y-57622970D01*
X80134251Y-57470243D01*
X80134251Y-57312128D01*
X80134251Y-57304533D01*
X80134250Y-57304515D01*
X80134250Y-56706571D01*
X84283750Y-56706571D01*
X84283750Y-56958428D01*
X84323147Y-57207169D01*
X84400969Y-57446684D01*
X84515307Y-57671083D01*
X84589498Y-57773197D01*
X84589498Y-57773198D01*
X85206171Y-57156524D01*
X85219109Y-57187758D01*
X85301187Y-57310597D01*
X85405653Y-57415063D01*
X85528492Y-57497141D01*
X85559724Y-57510077D01*
X84943050Y-58126750D01*
X85045166Y-58200942D01*
X85269565Y-58315280D01*
X85509080Y-58393102D01*
X85757822Y-58432500D01*
X86009678Y-58432500D01*
X86258419Y-58393102D01*
X86497934Y-58315280D01*
X86722325Y-58200946D01*
X86722331Y-58200942D01*
X86824447Y-58126750D01*
X86824448Y-58126750D01*
X86207775Y-57510078D01*
X86239008Y-57497141D01*
X86361847Y-57415063D01*
X86466313Y-57310597D01*
X86548391Y-57187758D01*
X86561327Y-57156525D01*
X87178000Y-57773198D01*
X87178000Y-57773197D01*
X87252192Y-57671081D01*
X87252196Y-57671075D01*
X87366530Y-57446684D01*
X87444352Y-57207169D01*
X87483750Y-56958428D01*
X87483750Y-56706571D01*
X87444352Y-56457830D01*
X87366530Y-56218315D01*
X87252192Y-55993916D01*
X87178000Y-55891801D01*
X87178000Y-55891800D01*
X86561327Y-56508473D01*
X86548391Y-56477242D01*
X86466313Y-56354403D01*
X86361847Y-56249937D01*
X86239008Y-56167859D01*
X86207774Y-56154921D01*
X86824448Y-55538248D01*
X86722333Y-55464057D01*
X86497934Y-55349719D01*
X86258419Y-55271897D01*
X86009678Y-55232500D01*
X85757822Y-55232500D01*
X85509080Y-55271897D01*
X85269565Y-55349719D01*
X85045163Y-55464059D01*
X84943051Y-55538247D01*
X84943050Y-55538248D01*
X85559724Y-56154921D01*
X85528492Y-56167859D01*
X85405653Y-56249937D01*
X85301187Y-56354403D01*
X85219109Y-56477242D01*
X85206171Y-56508474D01*
X84589498Y-55891800D01*
X84589497Y-55891801D01*
X84515309Y-55993913D01*
X84400969Y-56218315D01*
X84323147Y-56457830D01*
X84283750Y-56706571D01*
X80134250Y-56706571D01*
X80134250Y-53519398D01*
X80153935Y-53452359D01*
X80206739Y-53406604D01*
X80262804Y-53395482D01*
X99322811Y-54096350D01*
G37*
%TD.AperFunction*%
%TA.AperFunction,Conductor*%
G36*
X110181289Y-54495634D02*
G01*
X110247557Y-54517769D01*
X110291341Y-54572218D01*
X110300728Y-54618789D01*
X110378707Y-67329350D01*
X110359434Y-67396509D01*
X110306911Y-67442587D01*
X110237815Y-67452955D01*
X110174083Y-67424320D01*
X110167028Y-67417792D01*
X105381569Y-62632333D01*
X105348084Y-62571010D01*
X105345250Y-62544652D01*
X105345250Y-61825889D01*
X106373250Y-61825889D01*
X106373250Y-61999110D01*
X106398217Y-62156751D01*
X106400348Y-62170201D01*
X106453877Y-62334945D01*
X106532518Y-62489288D01*
X106634336Y-62629428D01*
X106756822Y-62751914D01*
X106896962Y-62853732D01*
X107051305Y-62932373D01*
X107216049Y-62985902D01*
X107387139Y-63013000D01*
X107387140Y-63013000D01*
X107560360Y-63013000D01*
X107560361Y-63013000D01*
X107731451Y-62985902D01*
X107896195Y-62932373D01*
X108050538Y-62853732D01*
X108190678Y-62751914D01*
X108313164Y-62629428D01*
X108414982Y-62489288D01*
X108493623Y-62334945D01*
X108547152Y-62170201D01*
X108574250Y-61999111D01*
X108574250Y-61825889D01*
X108547152Y-61654799D01*
X108493623Y-61490055D01*
X108414982Y-61335712D01*
X108313164Y-61195572D01*
X108190678Y-61073086D01*
X108050538Y-60971268D01*
X107896195Y-60892627D01*
X107731451Y-60839098D01*
X107731449Y-60839097D01*
X107731448Y-60839097D01*
X107600021Y-60818281D01*
X107560361Y-60812000D01*
X107387139Y-60812000D01*
X107347478Y-60818281D01*
X107216052Y-60839097D01*
X107051302Y-60892628D01*
X106896961Y-60971268D01*
X106840039Y-61012625D01*
X106756822Y-61073086D01*
X106756820Y-61073088D01*
X106756819Y-61073088D01*
X106634338Y-61195569D01*
X106634338Y-61195570D01*
X106634336Y-61195572D01*
X106590609Y-61255756D01*
X106532518Y-61335711D01*
X106453878Y-61490052D01*
X106400347Y-61654802D01*
X106373250Y-61825889D01*
X105345250Y-61825889D01*
X105345250Y-60859629D01*
X105345250Y-60859627D01*
X105304327Y-60706900D01*
X105304327Y-60706899D01*
X105304327Y-60706898D01*
X105275389Y-60656779D01*
X105275387Y-60656776D01*
X105238739Y-60593298D01*
X105225270Y-60569968D01*
X105113466Y-60458164D01*
X105113465Y-60458163D01*
X105109135Y-60453833D01*
X105109124Y-60453823D01*
X103503175Y-58847874D01*
X103469690Y-58786551D01*
X103469239Y-58736001D01*
X103500500Y-58578844D01*
X103500500Y-58421155D01*
X103500499Y-58421153D01*
X103494919Y-58393102D01*
X103469737Y-58266503D01*
X103409394Y-58120821D01*
X103409391Y-58120816D01*
X103409390Y-58120814D01*
X103321789Y-57989711D01*
X103321786Y-57989707D01*
X103210292Y-57878213D01*
X103210288Y-57878210D01*
X103079185Y-57790609D01*
X103079172Y-57790602D01*
X102933501Y-57730264D01*
X102933489Y-57730261D01*
X102778845Y-57699500D01*
X102778842Y-57699500D01*
X102621158Y-57699500D01*
X102621155Y-57699500D01*
X102466510Y-57730261D01*
X102466498Y-57730264D01*
X102320827Y-57790602D01*
X102320814Y-57790609D01*
X102189711Y-57878210D01*
X102189707Y-57878213D01*
X102078213Y-57989707D01*
X102078210Y-57989711D01*
X101990609Y-58120814D01*
X101990602Y-58120827D01*
X101930264Y-58266498D01*
X101930261Y-58266510D01*
X101899500Y-58421153D01*
X101899500Y-58578846D01*
X101930261Y-58733489D01*
X101930264Y-58733501D01*
X101990602Y-58879172D01*
X101990609Y-58879185D01*
X102078210Y-59010288D01*
X102078213Y-59010292D01*
X102097448Y-59029527D01*
X102123567Y-59067958D01*
X102127186Y-59076321D01*
X102140423Y-59125719D01*
X102169360Y-59175838D01*
X102172934Y-59182028D01*
X102219479Y-59262648D01*
X102219481Y-59262651D01*
X102338349Y-59381519D01*
X102338355Y-59381524D01*
X102407150Y-59450319D01*
X102440635Y-59511642D01*
X102435651Y-59581334D01*
X102393779Y-59637267D01*
X102328315Y-59661684D01*
X102319469Y-59662000D01*
X102246236Y-59662000D01*
X101967835Y-59698653D01*
X101953757Y-59700507D01*
X101779178Y-59747285D01*
X101668798Y-59776861D01*
X101668788Y-59776864D01*
X101396249Y-59889754D01*
X101396239Y-59889758D01*
X101140756Y-60037261D01*
X100906709Y-60216852D01*
X100906702Y-60216858D01*
X100854931Y-60268630D01*
X100793608Y-60302115D01*
X100723916Y-60297131D01*
X100667983Y-60255259D01*
X100643566Y-60189795D01*
X100643250Y-60180949D01*
X100643250Y-56706571D01*
X103333750Y-56706571D01*
X103333750Y-56958428D01*
X103373147Y-57207169D01*
X103450969Y-57446684D01*
X103565307Y-57671083D01*
X103639498Y-57773197D01*
X103639498Y-57773198D01*
X104256171Y-57156524D01*
X104269109Y-57187758D01*
X104351187Y-57310597D01*
X104455653Y-57415063D01*
X104578492Y-57497141D01*
X104609724Y-57510077D01*
X103993050Y-58126750D01*
X104095166Y-58200942D01*
X104319565Y-58315280D01*
X104559080Y-58393102D01*
X104807822Y-58432500D01*
X105059678Y-58432500D01*
X105308419Y-58393102D01*
X105547934Y-58315280D01*
X105772325Y-58200946D01*
X105772331Y-58200942D01*
X105874447Y-58126750D01*
X105874448Y-58126750D01*
X105257775Y-57510078D01*
X105289008Y-57497141D01*
X105411847Y-57415063D01*
X105516313Y-57310597D01*
X105598391Y-57187758D01*
X105611327Y-57156525D01*
X106228000Y-57773198D01*
X106228000Y-57773197D01*
X106302192Y-57671081D01*
X106302196Y-57671075D01*
X106416530Y-57446684D01*
X106494352Y-57207169D01*
X106533750Y-56958428D01*
X106533750Y-56706571D01*
X106494352Y-56457830D01*
X106416530Y-56218315D01*
X106302192Y-55993916D01*
X106228000Y-55891801D01*
X106228000Y-55891800D01*
X105611327Y-56508473D01*
X105598391Y-56477242D01*
X105516313Y-56354403D01*
X105411847Y-56249937D01*
X105289008Y-56167859D01*
X105257774Y-56154921D01*
X105874448Y-55538248D01*
X105772333Y-55464057D01*
X105547934Y-55349719D01*
X105308419Y-55271897D01*
X105059678Y-55232500D01*
X104807822Y-55232500D01*
X104559080Y-55271897D01*
X104319565Y-55349719D01*
X104095163Y-55464059D01*
X103993051Y-55538247D01*
X103993050Y-55538248D01*
X104609724Y-56154921D01*
X104578492Y-56167859D01*
X104455653Y-56249937D01*
X104351187Y-56354403D01*
X104269109Y-56477242D01*
X104256171Y-56508474D01*
X103639498Y-55891800D01*
X103639497Y-55891801D01*
X103565309Y-55993913D01*
X103450969Y-56218315D01*
X103373147Y-56457830D01*
X103333750Y-56706571D01*
X100643250Y-56706571D01*
X100643250Y-54273548D01*
X100662935Y-54206509D01*
X100715739Y-54160754D01*
X100771804Y-54149632D01*
X110181289Y-54495634D01*
G37*
%TD.AperFunction*%
%TD*%
%TA.AperFunction,Conductor*%
%TO.N,C2*%
G36*
X47798739Y-52453514D02*
G01*
X47865743Y-52473317D01*
X47911404Y-52526202D01*
X47916224Y-52538509D01*
X47935176Y-52595702D01*
X47935178Y-52595705D01*
X47935179Y-52595707D01*
X48012754Y-52716883D01*
X48012758Y-52716889D01*
X48058402Y-52769752D01*
X48058417Y-52769768D01*
X48058428Y-52769778D01*
X48166991Y-52864181D01*
X48297763Y-52924179D01*
X48297762Y-52924179D01*
X48329905Y-52933678D01*
X48340385Y-52940433D01*
X48379222Y-52946086D01*
X48507148Y-52964707D01*
X54356346Y-52974950D01*
X54423351Y-52994752D01*
X54469013Y-53047636D01*
X54480129Y-53099276D01*
X54478221Y-53824478D01*
X54431815Y-71458716D01*
X54431764Y-71477915D01*
X54411903Y-71544903D01*
X54358978Y-71590519D01*
X54307547Y-71601589D01*
X51306713Y-71596333D01*
X51239708Y-71576531D01*
X51219249Y-71560014D01*
X42070569Y-62411334D01*
X42037084Y-62350011D01*
X42034250Y-62323653D01*
X42034250Y-61764986D01*
X42993250Y-61764986D01*
X42993250Y-62060013D01*
X43008857Y-62178555D01*
X43031757Y-62352493D01*
X43105962Y-62629430D01*
X43108111Y-62637451D01*
X43108114Y-62637461D01*
X43221004Y-62910000D01*
X43221008Y-62910010D01*
X43368511Y-63165493D01*
X43548102Y-63399540D01*
X43548108Y-63399547D01*
X43756702Y-63608141D01*
X43756709Y-63608147D01*
X43990756Y-63787738D01*
X44246239Y-63935241D01*
X44246240Y-63935241D01*
X44246243Y-63935243D01*
X44518798Y-64048139D01*
X44803757Y-64124493D01*
X45096244Y-64163000D01*
X45096251Y-64163000D01*
X45391249Y-64163000D01*
X45391256Y-64163000D01*
X45683743Y-64124493D01*
X45968702Y-64048139D01*
X46241257Y-63935243D01*
X46496744Y-63787738D01*
X46730792Y-63608146D01*
X46939396Y-63399542D01*
X47118988Y-63165494D01*
X47266493Y-62910007D01*
X47379389Y-62637452D01*
X47455743Y-62352493D01*
X47494250Y-62060006D01*
X47494250Y-61825889D01*
X49223250Y-61825889D01*
X49223250Y-61999111D01*
X49250348Y-62170201D01*
X49303259Y-62333044D01*
X49303878Y-62334947D01*
X49332821Y-62391751D01*
X49382518Y-62489288D01*
X49484336Y-62629428D01*
X49606822Y-62751914D01*
X49746962Y-62853732D01*
X49901305Y-62932373D01*
X50066049Y-62985902D01*
X50237139Y-63013000D01*
X50237140Y-63013000D01*
X50410360Y-63013000D01*
X50410361Y-63013000D01*
X50581451Y-62985902D01*
X50746195Y-62932373D01*
X50900538Y-62853732D01*
X51040678Y-62751914D01*
X51163164Y-62629428D01*
X51264982Y-62489288D01*
X51343623Y-62334945D01*
X51397152Y-62170201D01*
X51424250Y-61999111D01*
X51424250Y-61825889D01*
X51397152Y-61654799D01*
X51343623Y-61490055D01*
X51264982Y-61335712D01*
X51163164Y-61195572D01*
X51040678Y-61073086D01*
X50900538Y-60971268D01*
X50746195Y-60892627D01*
X50581451Y-60839098D01*
X50581449Y-60839097D01*
X50581448Y-60839097D01*
X50450021Y-60818281D01*
X50410361Y-60812000D01*
X50237139Y-60812000D01*
X50197478Y-60818281D01*
X50066052Y-60839097D01*
X49901302Y-60892628D01*
X49746961Y-60971268D01*
X49667650Y-61028892D01*
X49606822Y-61073086D01*
X49606820Y-61073088D01*
X49606819Y-61073088D01*
X49484338Y-61195569D01*
X49484338Y-61195570D01*
X49484336Y-61195572D01*
X49440609Y-61255756D01*
X49382518Y-61335711D01*
X49303878Y-61490052D01*
X49250347Y-61654802D01*
X49225687Y-61810505D01*
X49223250Y-61825889D01*
X47494250Y-61825889D01*
X47494250Y-61764994D01*
X47455743Y-61472507D01*
X47379389Y-61187548D01*
X47266493Y-60914993D01*
X47236814Y-60863588D01*
X47118988Y-60659506D01*
X46939397Y-60425459D01*
X46939391Y-60425452D01*
X46730797Y-60216858D01*
X46730790Y-60216852D01*
X46496743Y-60037261D01*
X46241260Y-59889758D01*
X46241250Y-59889754D01*
X45968711Y-59776864D01*
X45968704Y-59776862D01*
X45968702Y-59776861D01*
X45683743Y-59700507D01*
X45634863Y-59694071D01*
X45391263Y-59662000D01*
X45391256Y-59662000D01*
X45096244Y-59662000D01*
X45096236Y-59662000D01*
X44817835Y-59698653D01*
X44803757Y-59700507D01*
X44741577Y-59717168D01*
X44518798Y-59776861D01*
X44518788Y-59776864D01*
X44246249Y-59889754D01*
X44246239Y-59889758D01*
X43990756Y-60037261D01*
X43756709Y-60216852D01*
X43756702Y-60216858D01*
X43548108Y-60425452D01*
X43548102Y-60425459D01*
X43368511Y-60659506D01*
X43221008Y-60914989D01*
X43221004Y-60914999D01*
X43108114Y-61187538D01*
X43108111Y-61187548D01*
X43035467Y-61458663D01*
X43031758Y-61472504D01*
X43031756Y-61472515D01*
X42993250Y-61764986D01*
X42034250Y-61764986D01*
X42034250Y-60938800D01*
X42053935Y-60871761D01*
X42101954Y-60828315D01*
X42272595Y-60741370D01*
X42476406Y-60593293D01*
X42654543Y-60415156D01*
X42802620Y-60211345D01*
X42916991Y-59986879D01*
X42994840Y-59747285D01*
X43034250Y-59498462D01*
X43034250Y-59246538D01*
X42994840Y-58997715D01*
X42916991Y-58758121D01*
X42916989Y-58758118D01*
X42916989Y-58758116D01*
X42855471Y-58637381D01*
X42802620Y-58533655D01*
X42729127Y-58432500D01*
X42654548Y-58329850D01*
X42654544Y-58329845D01*
X42476404Y-58151705D01*
X42476399Y-58151701D01*
X42272598Y-58003632D01*
X42272597Y-58003631D01*
X42272595Y-58003630D01*
X42202497Y-57967913D01*
X42048133Y-57889260D01*
X41808535Y-57811410D01*
X41807803Y-57811294D01*
X41559712Y-57772000D01*
X41307788Y-57772000D01*
X41183376Y-57791705D01*
X41058964Y-57811410D01*
X40819366Y-57889260D01*
X40594901Y-58003632D01*
X40391100Y-58151701D01*
X40391095Y-58151705D01*
X40212955Y-58329845D01*
X40212951Y-58329850D01*
X40064882Y-58533651D01*
X39950510Y-58758116D01*
X39872660Y-58997714D01*
X39833250Y-59246538D01*
X39833250Y-59498461D01*
X39872660Y-59747285D01*
X39950510Y-59986883D01*
X40013698Y-60110895D01*
X40063031Y-60207717D01*
X40064882Y-60211348D01*
X40212951Y-60415149D01*
X40212955Y-60415154D01*
X40212957Y-60415156D01*
X40391094Y-60593293D01*
X40391095Y-60593294D01*
X40391094Y-60593294D01*
X40397411Y-60597883D01*
X40440077Y-60653214D01*
X40446055Y-60722827D01*
X40413449Y-60784622D01*
X40352610Y-60818979D01*
X40305128Y-60820674D01*
X40250361Y-60812000D01*
X40077139Y-60812000D01*
X40037478Y-60818281D01*
X39906052Y-60839097D01*
X39741302Y-60892628D01*
X39586961Y-60971268D01*
X39507650Y-61028892D01*
X39446822Y-61073086D01*
X39446820Y-61073088D01*
X39446819Y-61073088D01*
X39412181Y-61107727D01*
X39350858Y-61141212D01*
X39281166Y-61136228D01*
X39225233Y-61094356D01*
X39200816Y-61028892D01*
X39200500Y-61020046D01*
X39200500Y-56706571D01*
X46183750Y-56706571D01*
X46183750Y-56958428D01*
X46223147Y-57207169D01*
X46300969Y-57446684D01*
X46415307Y-57671083D01*
X46489498Y-57773197D01*
X46489498Y-57773198D01*
X47106171Y-57156524D01*
X47119109Y-57187758D01*
X47201187Y-57310597D01*
X47305653Y-57415063D01*
X47428492Y-57497141D01*
X47459724Y-57510077D01*
X46843050Y-58126750D01*
X46945166Y-58200942D01*
X47169565Y-58315280D01*
X47409080Y-58393102D01*
X47657822Y-58432500D01*
X47909678Y-58432500D01*
X48158419Y-58393102D01*
X48397934Y-58315280D01*
X48622325Y-58200946D01*
X48622331Y-58200942D01*
X48724447Y-58126750D01*
X48724448Y-58126750D01*
X48107775Y-57510078D01*
X48139008Y-57497141D01*
X48261847Y-57415063D01*
X48366313Y-57310597D01*
X48448391Y-57187758D01*
X48461327Y-57156525D01*
X49078000Y-57773198D01*
X49078000Y-57773197D01*
X49152192Y-57671081D01*
X49152196Y-57671075D01*
X49266530Y-57446684D01*
X49344352Y-57207169D01*
X49383750Y-56958428D01*
X49383750Y-56706571D01*
X49344352Y-56457830D01*
X49266530Y-56218315D01*
X49152192Y-55993916D01*
X49078000Y-55891801D01*
X49078000Y-55891800D01*
X48461327Y-56508473D01*
X48448391Y-56477242D01*
X48366313Y-56354403D01*
X48261847Y-56249937D01*
X48139008Y-56167859D01*
X48107774Y-56154921D01*
X48724448Y-55538248D01*
X48622333Y-55464057D01*
X48397934Y-55349719D01*
X48158419Y-55271897D01*
X47909678Y-55232500D01*
X47657822Y-55232500D01*
X47409080Y-55271897D01*
X47169565Y-55349719D01*
X46945163Y-55464059D01*
X46843051Y-55538247D01*
X46843050Y-55538248D01*
X47459724Y-56154921D01*
X47428492Y-56167859D01*
X47305653Y-56249937D01*
X47201187Y-56354403D01*
X47119109Y-56477242D01*
X47106171Y-56508474D01*
X46489498Y-55891800D01*
X46489497Y-55891801D01*
X46415309Y-55993913D01*
X46300969Y-56218315D01*
X46223147Y-56457830D01*
X46183750Y-56706571D01*
X39200500Y-56706571D01*
X39200500Y-53072625D01*
X39220185Y-53005586D01*
X39272989Y-52959831D01*
X39324715Y-52948625D01*
X46929256Y-52961943D01*
X47058145Y-52962169D01*
X47058145Y-52962168D01*
X47058148Y-52962169D01*
X47166059Y-52950710D01*
X47217787Y-52939504D01*
X47320754Y-52905283D01*
X47441793Y-52827495D01*
X47494597Y-52781740D01*
X47588817Y-52673006D01*
X47648588Y-52542129D01*
X47648589Y-52542127D01*
X47650134Y-52537985D01*
X47651152Y-52538364D01*
X47686224Y-52483764D01*
X47749774Y-52454725D01*
X47767648Y-52453460D01*
X47798739Y-52453514D01*
G37*
%TD.AperFunction*%
%TD*%
%TA.AperFunction,Conductor*%
%TO.N,C1*%
G36*
X65310591Y-37001685D02*
G01*
X65356346Y-37054489D01*
X65366290Y-37123647D01*
X65354038Y-37162293D01*
X65350969Y-37168315D01*
X65273147Y-37407830D01*
X65233750Y-37656571D01*
X65233750Y-37908428D01*
X65273147Y-38157169D01*
X65350969Y-38396684D01*
X65465307Y-38621083D01*
X65539498Y-38723197D01*
X65539498Y-38723198D01*
X66156171Y-38106524D01*
X66169109Y-38137758D01*
X66251187Y-38260597D01*
X66355653Y-38365063D01*
X66478492Y-38447141D01*
X66509724Y-38460077D01*
X65893050Y-39076750D01*
X65995166Y-39150942D01*
X66219565Y-39265280D01*
X66459080Y-39343102D01*
X66707822Y-39382500D01*
X66959678Y-39382500D01*
X67208419Y-39343102D01*
X67447934Y-39265280D01*
X67672325Y-39150946D01*
X67672331Y-39150942D01*
X67774447Y-39076750D01*
X67774448Y-39076750D01*
X67157775Y-38460078D01*
X67189008Y-38447141D01*
X67311847Y-38365063D01*
X67416313Y-38260597D01*
X67498391Y-38137758D01*
X67511328Y-38106525D01*
X68128000Y-38723198D01*
X68128000Y-38723197D01*
X68202192Y-38621081D01*
X68202196Y-38621075D01*
X68316530Y-38396684D01*
X68394352Y-38157169D01*
X68433750Y-37908428D01*
X68433750Y-37656571D01*
X68394352Y-37407830D01*
X68316530Y-37168315D01*
X68313462Y-37162293D01*
X68300567Y-37093624D01*
X68326844Y-37028884D01*
X68383951Y-36988628D01*
X68423948Y-36982000D01*
X84293552Y-36982000D01*
X84360591Y-37001685D01*
X84406346Y-37054489D01*
X84416290Y-37123647D01*
X84404038Y-37162293D01*
X84400969Y-37168315D01*
X84323147Y-37407830D01*
X84283750Y-37656571D01*
X84283750Y-37908428D01*
X84323147Y-38157169D01*
X84400969Y-38396684D01*
X84515307Y-38621083D01*
X84589498Y-38723197D01*
X84589498Y-38723198D01*
X85206171Y-38106524D01*
X85219109Y-38137758D01*
X85301187Y-38260597D01*
X85405653Y-38365063D01*
X85528492Y-38447141D01*
X85559724Y-38460077D01*
X84943050Y-39076750D01*
X85045166Y-39150942D01*
X85269565Y-39265280D01*
X85509080Y-39343102D01*
X85757822Y-39382500D01*
X86009678Y-39382500D01*
X86258419Y-39343102D01*
X86497934Y-39265280D01*
X86722325Y-39150946D01*
X86722331Y-39150942D01*
X86824447Y-39076750D01*
X86824448Y-39076750D01*
X86207775Y-38460078D01*
X86239008Y-38447141D01*
X86361847Y-38365063D01*
X86466313Y-38260597D01*
X86548391Y-38137758D01*
X86561328Y-38106525D01*
X87178000Y-38723198D01*
X87178000Y-38723197D01*
X87252192Y-38621081D01*
X87252196Y-38621075D01*
X87366530Y-38396684D01*
X87444352Y-38157169D01*
X87483750Y-37908428D01*
X87483750Y-37656571D01*
X87444352Y-37407830D01*
X87366530Y-37168315D01*
X87363462Y-37162293D01*
X87350567Y-37093624D01*
X87376844Y-37028884D01*
X87433951Y-36988628D01*
X87473948Y-36982000D01*
X92355473Y-36982000D01*
X92422512Y-37001685D01*
X92468267Y-37054489D01*
X92478522Y-37090681D01*
X92482626Y-37123647D01*
X92488858Y-37173724D01*
X92500033Y-37222467D01*
X92532930Y-37319500D01*
X92532933Y-37319506D01*
X92610716Y-37440537D01*
X92610724Y-37440548D01*
X92656468Y-37493340D01*
X92656471Y-37493343D01*
X92656475Y-37493347D01*
X92765209Y-37587567D01*
X92816132Y-37610823D01*
X92829726Y-37622602D01*
X92846069Y-37630118D01*
X92855582Y-37645007D01*
X92868936Y-37656578D01*
X92874003Y-37673836D01*
X92883689Y-37688995D01*
X92888531Y-37723315D01*
X92888620Y-37723617D01*
X92888620Y-37723943D01*
X92888267Y-37858139D01*
X92868406Y-37925127D01*
X92833615Y-37960608D01*
X92744365Y-38020817D01*
X92744364Y-38020817D01*
X92692590Y-38067741D01*
X92692586Y-38067744D01*
X92600814Y-38178551D01*
X92600813Y-38178553D01*
X92543980Y-38310715D01*
X92543977Y-38310725D01*
X92525790Y-38378186D01*
X92508491Y-38521029D01*
X92604194Y-42815673D01*
X92817990Y-52409828D01*
X92799804Y-52477290D01*
X92748033Y-52524210D01*
X92693804Y-52536591D01*
X80258033Y-52514812D01*
X80191028Y-52495010D01*
X80145366Y-52442126D01*
X80134250Y-52390812D01*
X80134250Y-42714986D01*
X81093250Y-42714986D01*
X81093250Y-43010013D01*
X81114886Y-43174349D01*
X81131757Y-43302493D01*
X81205962Y-43579430D01*
X81208111Y-43587451D01*
X81208114Y-43587461D01*
X81321004Y-43860000D01*
X81321008Y-43860010D01*
X81468511Y-44115493D01*
X81648102Y-44349540D01*
X81648108Y-44349547D01*
X81856702Y-44558141D01*
X81856709Y-44558147D01*
X82090756Y-44737738D01*
X82346239Y-44885241D01*
X82346240Y-44885241D01*
X82346243Y-44885243D01*
X82618798Y-44998139D01*
X82903757Y-45074493D01*
X83196244Y-45113000D01*
X83196251Y-45113000D01*
X83491249Y-45113000D01*
X83491256Y-45113000D01*
X83783743Y-45074493D01*
X84068702Y-44998139D01*
X84341257Y-44885243D01*
X84596744Y-44737738D01*
X84830792Y-44558146D01*
X85039396Y-44349542D01*
X85218988Y-44115494D01*
X85366493Y-43860007D01*
X85479389Y-43587452D01*
X85555743Y-43302493D01*
X85594250Y-43010006D01*
X85594250Y-42775889D01*
X87323250Y-42775889D01*
X87323250Y-42949111D01*
X87350348Y-43120201D01*
X87403877Y-43284945D01*
X87482518Y-43439288D01*
X87584336Y-43579428D01*
X87706822Y-43701914D01*
X87846962Y-43803732D01*
X88001305Y-43882373D01*
X88166049Y-43935902D01*
X88337139Y-43963000D01*
X88337140Y-43963000D01*
X88510360Y-43963000D01*
X88510361Y-43963000D01*
X88681451Y-43935902D01*
X88846195Y-43882373D01*
X89000538Y-43803732D01*
X89140678Y-43701914D01*
X89263164Y-43579428D01*
X89364982Y-43439288D01*
X89443623Y-43284945D01*
X89497152Y-43120201D01*
X89524250Y-42949111D01*
X89524250Y-42775889D01*
X89497152Y-42604799D01*
X89443623Y-42440055D01*
X89364982Y-42285712D01*
X89263164Y-42145572D01*
X89140678Y-42023086D01*
X89000538Y-41921268D01*
X88846195Y-41842627D01*
X88681451Y-41789098D01*
X88681449Y-41789097D01*
X88681448Y-41789097D01*
X88550021Y-41768281D01*
X88510361Y-41762000D01*
X88337139Y-41762000D01*
X88297478Y-41768281D01*
X88166052Y-41789097D01*
X88001302Y-41842628D01*
X87846961Y-41921268D01*
X87790039Y-41962625D01*
X87706822Y-42023086D01*
X87706820Y-42023088D01*
X87706819Y-42023088D01*
X87584338Y-42145569D01*
X87584338Y-42145570D01*
X87584336Y-42145572D01*
X87540609Y-42205756D01*
X87482518Y-42285711D01*
X87403878Y-42440052D01*
X87350347Y-42604802D01*
X87325828Y-42759612D01*
X87323250Y-42775889D01*
X85594250Y-42775889D01*
X85594250Y-42714994D01*
X85555743Y-42422507D01*
X85479389Y-42137548D01*
X85366493Y-41864993D01*
X85363809Y-41860345D01*
X85218988Y-41609506D01*
X85039397Y-41375459D01*
X85039391Y-41375452D01*
X84830797Y-41166858D01*
X84830790Y-41166852D01*
X84596743Y-40987261D01*
X84341260Y-40839758D01*
X84341250Y-40839754D01*
X84068711Y-40726864D01*
X84068704Y-40726862D01*
X84068702Y-40726861D01*
X83783743Y-40650507D01*
X83734863Y-40644071D01*
X83491263Y-40612000D01*
X83491256Y-40612000D01*
X83196244Y-40612000D01*
X83196236Y-40612000D01*
X82917835Y-40648653D01*
X82903757Y-40650507D01*
X82729178Y-40697285D01*
X82618798Y-40726861D01*
X82618788Y-40726864D01*
X82346249Y-40839754D01*
X82346239Y-40839758D01*
X82090756Y-40987261D01*
X81856709Y-41166852D01*
X81856702Y-41166858D01*
X81648108Y-41375452D01*
X81648102Y-41375459D01*
X81468511Y-41609506D01*
X81321008Y-41864989D01*
X81321004Y-41864999D01*
X81208114Y-42137538D01*
X81208111Y-42137548D01*
X81132466Y-42419863D01*
X81131758Y-42422504D01*
X81131756Y-42422515D01*
X81093250Y-42714986D01*
X80134250Y-42714986D01*
X80134250Y-41888800D01*
X80153935Y-41821761D01*
X80201954Y-41778315D01*
X80372595Y-41691370D01*
X80576406Y-41543293D01*
X80754543Y-41365156D01*
X80902620Y-41161345D01*
X81016991Y-40936879D01*
X81094840Y-40697285D01*
X81134250Y-40448462D01*
X81134250Y-40196538D01*
X81094840Y-39947715D01*
X81016991Y-39708121D01*
X81016989Y-39708118D01*
X81016989Y-39708116D01*
X80966563Y-39609150D01*
X80902620Y-39483655D01*
X80774799Y-39307724D01*
X80754548Y-39279850D01*
X80754544Y-39279845D01*
X80576404Y-39101705D01*
X80576399Y-39101701D01*
X80372598Y-38953632D01*
X80372597Y-38953631D01*
X80372595Y-38953630D01*
X80302497Y-38917913D01*
X80148133Y-38839260D01*
X79908535Y-38761410D01*
X79833263Y-38749488D01*
X79659712Y-38722000D01*
X79407788Y-38722000D01*
X79283376Y-38741705D01*
X79158964Y-38761410D01*
X78919366Y-38839260D01*
X78694901Y-38953632D01*
X78491100Y-39101701D01*
X78491095Y-39101705D01*
X78312955Y-39279845D01*
X78312951Y-39279850D01*
X78164882Y-39483651D01*
X78050510Y-39708116D01*
X77972660Y-39947714D01*
X77933250Y-40196538D01*
X77933250Y-40448461D01*
X77972660Y-40697285D01*
X78050510Y-40936883D01*
X78113698Y-41060895D01*
X78160572Y-41152891D01*
X78164882Y-41161348D01*
X78312951Y-41365149D01*
X78312955Y-41365154D01*
X78312957Y-41365156D01*
X78491094Y-41543293D01*
X78491095Y-41543294D01*
X78491094Y-41543294D01*
X78497411Y-41547883D01*
X78540077Y-41603214D01*
X78546055Y-41672827D01*
X78513449Y-41734622D01*
X78452610Y-41768979D01*
X78405128Y-41770674D01*
X78350361Y-41762000D01*
X78177139Y-41762000D01*
X78137478Y-41768281D01*
X78006052Y-41789097D01*
X77841302Y-41842628D01*
X77686961Y-41921268D01*
X77630039Y-41962625D01*
X77546822Y-42023086D01*
X77546820Y-42023088D01*
X77546819Y-42023088D01*
X77424338Y-42145569D01*
X77424338Y-42145570D01*
X77424336Y-42145572D01*
X77380609Y-42205756D01*
X77322518Y-42285711D01*
X77243878Y-42440052D01*
X77190347Y-42604802D01*
X77165828Y-42759612D01*
X77163250Y-42775889D01*
X77163250Y-42949111D01*
X77190348Y-43120201D01*
X77243877Y-43284945D01*
X77322518Y-43439288D01*
X77424336Y-43579428D01*
X77546822Y-43701914D01*
X77686962Y-43803732D01*
X77841305Y-43882373D01*
X78006049Y-43935902D01*
X78177139Y-43963000D01*
X78177140Y-43963000D01*
X78350360Y-43963000D01*
X78350361Y-43963000D01*
X78521451Y-43935902D01*
X78686195Y-43882373D01*
X78752956Y-43848356D01*
X78821624Y-43835461D01*
X78886365Y-43861737D01*
X78926622Y-43918844D01*
X78933250Y-43958842D01*
X78933250Y-52388275D01*
X78913565Y-52455314D01*
X78860761Y-52501069D01*
X78809033Y-52512275D01*
X69562088Y-52496080D01*
X69557748Y-52495996D01*
X58760384Y-52098959D01*
X58760380Y-52098959D01*
X58747096Y-52100018D01*
X58678706Y-52085719D01*
X58628902Y-52036715D01*
X58613250Y-51976410D01*
X58613250Y-43993999D01*
X58632935Y-43926960D01*
X58685739Y-43881205D01*
X58754897Y-43871261D01*
X58786476Y-43881276D01*
X58786796Y-43880506D01*
X58791297Y-43882370D01*
X58791302Y-43882371D01*
X58791305Y-43882373D01*
X58956049Y-43935902D01*
X59127139Y-43963000D01*
X59127140Y-43963000D01*
X59300360Y-43963000D01*
X59300361Y-43963000D01*
X59471451Y-43935902D01*
X59636195Y-43882373D01*
X59790538Y-43803732D01*
X59930678Y-43701914D01*
X60053164Y-43579428D01*
X60154982Y-43439288D01*
X60233623Y-43284945D01*
X60287152Y-43120201D01*
X60314250Y-42949111D01*
X60314250Y-42775889D01*
X60304604Y-42714986D01*
X62043250Y-42714986D01*
X62043250Y-43010013D01*
X62064886Y-43174349D01*
X62081757Y-43302493D01*
X62155962Y-43579430D01*
X62158111Y-43587451D01*
X62158114Y-43587461D01*
X62271004Y-43860000D01*
X62271008Y-43860010D01*
X62418511Y-44115493D01*
X62598102Y-44349540D01*
X62598108Y-44349547D01*
X62806702Y-44558141D01*
X62806709Y-44558147D01*
X63040756Y-44737738D01*
X63296239Y-44885241D01*
X63296240Y-44885241D01*
X63296243Y-44885243D01*
X63568798Y-44998139D01*
X63853757Y-45074493D01*
X64146244Y-45113000D01*
X64146251Y-45113000D01*
X64441249Y-45113000D01*
X64441256Y-45113000D01*
X64733743Y-45074493D01*
X65018702Y-44998139D01*
X65291257Y-44885243D01*
X65546744Y-44737738D01*
X65780792Y-44558146D01*
X65989396Y-44349542D01*
X66168988Y-44115494D01*
X66316493Y-43860007D01*
X66429389Y-43587452D01*
X66505743Y-43302493D01*
X66544250Y-43010006D01*
X66544250Y-42775889D01*
X68273250Y-42775889D01*
X68273250Y-42949111D01*
X68300348Y-43120201D01*
X68353877Y-43284945D01*
X68432518Y-43439288D01*
X68534336Y-43579428D01*
X68656822Y-43701914D01*
X68796962Y-43803732D01*
X68951305Y-43882373D01*
X69116049Y-43935902D01*
X69287139Y-43963000D01*
X69287140Y-43963000D01*
X69460360Y-43963000D01*
X69460361Y-43963000D01*
X69631451Y-43935902D01*
X69796195Y-43882373D01*
X69950538Y-43803732D01*
X70090678Y-43701914D01*
X70213164Y-43579428D01*
X70314982Y-43439288D01*
X70393623Y-43284945D01*
X70447152Y-43120201D01*
X70474250Y-42949111D01*
X70474250Y-42775889D01*
X70447152Y-42604799D01*
X70393623Y-42440055D01*
X70314982Y-42285712D01*
X70213164Y-42145572D01*
X70090678Y-42023086D01*
X69950538Y-41921268D01*
X69796195Y-41842627D01*
X69631451Y-41789098D01*
X69631449Y-41789097D01*
X69631448Y-41789097D01*
X69500021Y-41768281D01*
X69460361Y-41762000D01*
X69287139Y-41762000D01*
X69247478Y-41768281D01*
X69116052Y-41789097D01*
X68951302Y-41842628D01*
X68796961Y-41921268D01*
X68740039Y-41962625D01*
X68656822Y-42023086D01*
X68656820Y-42023088D01*
X68656819Y-42023088D01*
X68534338Y-42145569D01*
X68534338Y-42145570D01*
X68534336Y-42145572D01*
X68490609Y-42205756D01*
X68432518Y-42285711D01*
X68353878Y-42440052D01*
X68300347Y-42604802D01*
X68275828Y-42759612D01*
X68273250Y-42775889D01*
X66544250Y-42775889D01*
X66544250Y-42714994D01*
X66505743Y-42422507D01*
X66429389Y-42137548D01*
X66316493Y-41864993D01*
X66313809Y-41860345D01*
X66168988Y-41609506D01*
X65989397Y-41375459D01*
X65989391Y-41375452D01*
X65780797Y-41166858D01*
X65780790Y-41166852D01*
X65546743Y-40987261D01*
X65291260Y-40839758D01*
X65291250Y-40839754D01*
X65018711Y-40726864D01*
X65018704Y-40726862D01*
X65018702Y-40726861D01*
X64733743Y-40650507D01*
X64684863Y-40644071D01*
X64441263Y-40612000D01*
X64441256Y-40612000D01*
X64146244Y-40612000D01*
X64146236Y-40612000D01*
X63867835Y-40648653D01*
X63853757Y-40650507D01*
X63679178Y-40697285D01*
X63568798Y-40726861D01*
X63568788Y-40726864D01*
X63296249Y-40839754D01*
X63296239Y-40839758D01*
X63040756Y-40987261D01*
X62806709Y-41166852D01*
X62806702Y-41166858D01*
X62598108Y-41375452D01*
X62598102Y-41375459D01*
X62418511Y-41609506D01*
X62271008Y-41864989D01*
X62271004Y-41864999D01*
X62158114Y-42137538D01*
X62158111Y-42137548D01*
X62082466Y-42419863D01*
X62081758Y-42422504D01*
X62081756Y-42422515D01*
X62043250Y-42714986D01*
X60304604Y-42714986D01*
X60287152Y-42604799D01*
X60233623Y-42440055D01*
X60154982Y-42285712D01*
X60053164Y-42145572D01*
X60001232Y-42093640D01*
X59967747Y-42032317D01*
X59972731Y-41962625D01*
X60014603Y-41906692D01*
X60080067Y-41882275D01*
X60108311Y-41883486D01*
X60108962Y-41883589D01*
X60108965Y-41883590D01*
X60357788Y-41923000D01*
X60357789Y-41923000D01*
X60609711Y-41923000D01*
X60609712Y-41923000D01*
X60858535Y-41883590D01*
X61098129Y-41805741D01*
X61322595Y-41691370D01*
X61526406Y-41543293D01*
X61704543Y-41365156D01*
X61852620Y-41161345D01*
X61966991Y-40936879D01*
X62044840Y-40697285D01*
X62084250Y-40448462D01*
X62084250Y-40196538D01*
X62044840Y-39947715D01*
X61966991Y-39708121D01*
X61966989Y-39708118D01*
X61966989Y-39708116D01*
X61916563Y-39609150D01*
X61852620Y-39483655D01*
X61724799Y-39307724D01*
X61704548Y-39279850D01*
X61704544Y-39279845D01*
X61526404Y-39101705D01*
X61526399Y-39101701D01*
X61322598Y-38953632D01*
X61322597Y-38953631D01*
X61322595Y-38953630D01*
X61098129Y-38839259D01*
X60985168Y-38802555D01*
X60927493Y-38763118D01*
X60900295Y-38698760D01*
X60912210Y-38629913D01*
X60935803Y-38596947D01*
X62514433Y-37018319D01*
X62575756Y-36984834D01*
X62602114Y-36982000D01*
X65243552Y-36982000D01*
X65310591Y-37001685D01*
G37*
%TD.AperFunction*%
%TA.AperFunction,Conductor*%
G36*
X92274591Y-33398908D02*
G01*
X92341595Y-33418710D01*
X92387258Y-33471593D01*
X92396823Y-33533562D01*
X92397667Y-33533604D01*
X92397464Y-33537715D01*
X92397477Y-33537795D01*
X92397449Y-33538019D01*
X92397449Y-33538023D01*
X92444607Y-35654237D01*
X92426421Y-35721699D01*
X92374650Y-35768619D01*
X92320638Y-35781000D01*
X62388686Y-35781000D01*
X62388670Y-35780999D01*
X62381074Y-35780999D01*
X62222959Y-35780999D01*
X62146595Y-35801461D01*
X62070230Y-35821923D01*
X62070225Y-35821926D01*
X61933306Y-35900975D01*
X61933298Y-35900981D01*
X47303231Y-50531048D01*
X47303229Y-50531051D01*
X47253111Y-50617860D01*
X47253109Y-50617862D01*
X47224175Y-50667975D01*
X47224174Y-50667976D01*
X47224173Y-50667981D01*
X47183249Y-50820709D01*
X47183249Y-50820711D01*
X47183249Y-50988812D01*
X47183250Y-50988825D01*
X47183250Y-52332670D01*
X47163565Y-52399709D01*
X47110761Y-52445464D01*
X47059033Y-52456670D01*
X39324283Y-52443124D01*
X39257278Y-52423322D01*
X39211616Y-52370438D01*
X39200500Y-52319124D01*
X39200500Y-48900097D01*
X39220185Y-48833058D01*
X39236819Y-48812416D01*
X39929757Y-48119478D01*
X41914270Y-46134966D01*
X41993327Y-45998034D01*
X42034251Y-45845307D01*
X42034251Y-45687192D01*
X42034251Y-45679597D01*
X42034250Y-45679579D01*
X42034250Y-42714986D01*
X42993250Y-42714986D01*
X42993250Y-43010013D01*
X43014886Y-43174349D01*
X43031757Y-43302493D01*
X43105962Y-43579430D01*
X43108111Y-43587451D01*
X43108114Y-43587461D01*
X43221004Y-43860000D01*
X43221008Y-43860010D01*
X43368511Y-44115493D01*
X43548102Y-44349540D01*
X43548108Y-44349547D01*
X43756702Y-44558141D01*
X43756709Y-44558147D01*
X43990756Y-44737738D01*
X44246239Y-44885241D01*
X44246240Y-44885241D01*
X44246243Y-44885243D01*
X44518798Y-44998139D01*
X44803757Y-45074493D01*
X45096244Y-45113000D01*
X45096251Y-45113000D01*
X45391249Y-45113000D01*
X45391256Y-45113000D01*
X45683743Y-45074493D01*
X45968702Y-44998139D01*
X46241257Y-44885243D01*
X46496744Y-44737738D01*
X46730792Y-44558146D01*
X46939396Y-44349542D01*
X47118988Y-44115494D01*
X47266493Y-43860007D01*
X47379389Y-43587452D01*
X47455743Y-43302493D01*
X47494250Y-43010006D01*
X47494250Y-42775889D01*
X49223250Y-42775889D01*
X49223250Y-42949111D01*
X49250348Y-43120201D01*
X49303877Y-43284945D01*
X49382518Y-43439288D01*
X49484336Y-43579428D01*
X49606822Y-43701914D01*
X49746962Y-43803732D01*
X49901305Y-43882373D01*
X50066049Y-43935902D01*
X50237139Y-43963000D01*
X50237140Y-43963000D01*
X50410360Y-43963000D01*
X50410361Y-43963000D01*
X50581451Y-43935902D01*
X50746195Y-43882373D01*
X50900538Y-43803732D01*
X51040678Y-43701914D01*
X51163164Y-43579428D01*
X51264982Y-43439288D01*
X51343623Y-43284945D01*
X51397152Y-43120201D01*
X51424250Y-42949111D01*
X51424250Y-42775889D01*
X51397152Y-42604799D01*
X51343623Y-42440055D01*
X51264982Y-42285712D01*
X51163164Y-42145572D01*
X51040678Y-42023086D01*
X50900538Y-41921268D01*
X50746195Y-41842627D01*
X50581451Y-41789098D01*
X50581449Y-41789097D01*
X50581448Y-41789097D01*
X50450021Y-41768281D01*
X50410361Y-41762000D01*
X50237139Y-41762000D01*
X50197478Y-41768281D01*
X50066052Y-41789097D01*
X49901302Y-41842628D01*
X49746961Y-41921268D01*
X49690039Y-41962625D01*
X49606822Y-42023086D01*
X49606820Y-42023088D01*
X49606819Y-42023088D01*
X49484338Y-42145569D01*
X49484338Y-42145570D01*
X49484336Y-42145572D01*
X49440609Y-42205756D01*
X49382518Y-42285711D01*
X49303878Y-42440052D01*
X49250347Y-42604802D01*
X49225828Y-42759612D01*
X49223250Y-42775889D01*
X47494250Y-42775889D01*
X47494250Y-42714994D01*
X47455743Y-42422507D01*
X47379389Y-42137548D01*
X47266493Y-41864993D01*
X47263809Y-41860345D01*
X47118988Y-41609506D01*
X46939397Y-41375459D01*
X46939391Y-41375452D01*
X46730797Y-41166858D01*
X46730790Y-41166852D01*
X46496743Y-40987261D01*
X46241260Y-40839758D01*
X46241250Y-40839754D01*
X45968711Y-40726864D01*
X45968704Y-40726862D01*
X45968702Y-40726861D01*
X45683743Y-40650507D01*
X45634863Y-40644071D01*
X45391263Y-40612000D01*
X45391256Y-40612000D01*
X45096244Y-40612000D01*
X45096236Y-40612000D01*
X44817835Y-40648653D01*
X44803757Y-40650507D01*
X44629178Y-40697285D01*
X44518798Y-40726861D01*
X44518788Y-40726864D01*
X44246249Y-40839754D01*
X44246239Y-40839758D01*
X43990756Y-40987261D01*
X43756709Y-41166852D01*
X43756702Y-41166858D01*
X43548108Y-41375452D01*
X43548102Y-41375459D01*
X43368511Y-41609506D01*
X43221008Y-41864989D01*
X43221004Y-41864999D01*
X43108114Y-42137538D01*
X43108111Y-42137548D01*
X43032466Y-42419863D01*
X43031758Y-42422504D01*
X43031756Y-42422515D01*
X42993250Y-42714986D01*
X42034250Y-42714986D01*
X42034250Y-41888800D01*
X42053935Y-41821761D01*
X42101954Y-41778315D01*
X42272595Y-41691370D01*
X42476406Y-41543293D01*
X42654543Y-41365156D01*
X42802620Y-41161345D01*
X42916991Y-40936879D01*
X42994840Y-40697285D01*
X43034250Y-40448462D01*
X43034250Y-40196538D01*
X42994840Y-39947715D01*
X42916991Y-39708121D01*
X42916989Y-39708118D01*
X42916989Y-39708116D01*
X42866563Y-39609150D01*
X42802620Y-39483655D01*
X42674799Y-39307724D01*
X42654548Y-39279850D01*
X42654544Y-39279845D01*
X42476404Y-39101705D01*
X42476399Y-39101701D01*
X42272598Y-38953632D01*
X42272597Y-38953631D01*
X42272595Y-38953630D01*
X42202497Y-38917913D01*
X42048133Y-38839260D01*
X41808535Y-38761410D01*
X41733263Y-38749488D01*
X41559712Y-38722000D01*
X41307788Y-38722000D01*
X41183376Y-38741705D01*
X41058964Y-38761410D01*
X40819366Y-38839260D01*
X40594901Y-38953632D01*
X40391100Y-39101701D01*
X40391095Y-39101705D01*
X40212955Y-39279845D01*
X40212951Y-39279850D01*
X40064882Y-39483651D01*
X39950510Y-39708116D01*
X39872660Y-39947714D01*
X39833250Y-40196538D01*
X39833250Y-40448461D01*
X39872660Y-40697285D01*
X39950510Y-40936883D01*
X40013698Y-41060895D01*
X40060572Y-41152891D01*
X40064882Y-41161348D01*
X40212951Y-41365149D01*
X40212955Y-41365154D01*
X40212957Y-41365156D01*
X40391094Y-41543293D01*
X40391095Y-41543294D01*
X40391094Y-41543294D01*
X40397411Y-41547883D01*
X40440077Y-41603214D01*
X40446055Y-41672827D01*
X40413449Y-41734622D01*
X40352610Y-41768979D01*
X40305128Y-41770674D01*
X40250361Y-41762000D01*
X40077139Y-41762000D01*
X40037478Y-41768281D01*
X39906052Y-41789097D01*
X39741302Y-41842628D01*
X39586961Y-41921268D01*
X39530039Y-41962625D01*
X39446822Y-42023086D01*
X39446820Y-42023088D01*
X39446819Y-42023088D01*
X39324338Y-42145569D01*
X39324338Y-42145570D01*
X39324336Y-42145572D01*
X39280609Y-42205756D01*
X39222518Y-42285711D01*
X39143878Y-42440052D01*
X39090347Y-42604802D01*
X39065828Y-42759612D01*
X39063250Y-42775889D01*
X39063250Y-42949111D01*
X39090348Y-43120201D01*
X39143877Y-43284945D01*
X39222518Y-43439288D01*
X39324336Y-43579428D01*
X39446822Y-43701914D01*
X39586962Y-43803732D01*
X39741305Y-43882373D01*
X39906049Y-43935902D01*
X40077139Y-43963000D01*
X40077140Y-43963000D01*
X40250360Y-43963000D01*
X40250361Y-43963000D01*
X40421451Y-43935902D01*
X40586195Y-43882373D01*
X40652956Y-43848356D01*
X40721624Y-43835461D01*
X40786365Y-43861737D01*
X40826622Y-43918844D01*
X40833250Y-43958842D01*
X40833250Y-45466152D01*
X40813565Y-45533191D01*
X40796931Y-45553833D01*
X38119481Y-48231282D01*
X38119479Y-48231285D01*
X38069361Y-48318094D01*
X38069359Y-48318096D01*
X38040425Y-48368209D01*
X38040424Y-48368210D01*
X38040423Y-48368215D01*
X37999499Y-48520943D01*
X37999499Y-48520945D01*
X37999499Y-48689046D01*
X37999500Y-48689059D01*
X37999500Y-52316587D01*
X37979815Y-52383626D01*
X37927011Y-52429381D01*
X37875283Y-52440587D01*
X35824283Y-52436994D01*
X35757278Y-52417192D01*
X35711616Y-52364308D01*
X35700500Y-52312994D01*
X35700500Y-37656571D01*
X46183750Y-37656571D01*
X46183750Y-37908428D01*
X46223147Y-38157169D01*
X46300969Y-38396684D01*
X46415307Y-38621083D01*
X46489498Y-38723197D01*
X46489498Y-38723198D01*
X47106171Y-38106524D01*
X47119109Y-38137758D01*
X47201187Y-38260597D01*
X47305653Y-38365063D01*
X47428492Y-38447141D01*
X47459724Y-38460077D01*
X46843050Y-39076750D01*
X46945166Y-39150942D01*
X47169565Y-39265280D01*
X47409080Y-39343102D01*
X47657822Y-39382500D01*
X47909678Y-39382500D01*
X48158419Y-39343102D01*
X48397934Y-39265280D01*
X48622325Y-39150946D01*
X48622331Y-39150942D01*
X48724447Y-39076750D01*
X48724448Y-39076750D01*
X48107775Y-38460078D01*
X48139008Y-38447141D01*
X48261847Y-38365063D01*
X48366313Y-38260597D01*
X48448391Y-38137758D01*
X48461327Y-38106525D01*
X49078000Y-38723198D01*
X49078000Y-38723197D01*
X49152192Y-38621081D01*
X49152196Y-38621075D01*
X49266530Y-38396684D01*
X49344352Y-38157169D01*
X49383750Y-37908428D01*
X49383750Y-37656571D01*
X49344352Y-37407830D01*
X49266530Y-37168315D01*
X49152192Y-36943916D01*
X49078000Y-36841801D01*
X49078000Y-36841800D01*
X48461327Y-37458473D01*
X48448391Y-37427242D01*
X48366313Y-37304403D01*
X48261847Y-37199937D01*
X48139008Y-37117859D01*
X48107774Y-37104921D01*
X48724448Y-36488248D01*
X48622333Y-36414057D01*
X48397934Y-36299719D01*
X48158419Y-36221897D01*
X47909678Y-36182500D01*
X47657822Y-36182500D01*
X47409080Y-36221897D01*
X47169565Y-36299719D01*
X46945163Y-36414059D01*
X46843051Y-36488247D01*
X46843050Y-36488248D01*
X47459724Y-37104921D01*
X47428492Y-37117859D01*
X47305653Y-37199937D01*
X47201187Y-37304403D01*
X47119109Y-37427242D01*
X47106171Y-37458474D01*
X46489498Y-36841800D01*
X46489497Y-36841801D01*
X46415309Y-36943913D01*
X46300969Y-37168315D01*
X46223147Y-37407830D01*
X46183750Y-37656571D01*
X35700500Y-37656571D01*
X35700500Y-33424391D01*
X35720185Y-33357352D01*
X35772989Y-33311597D01*
X35824710Y-33300392D01*
X92274591Y-33398908D01*
G37*
%TD.AperFunction*%
%TD*%
%TA.AperFunction,Conductor*%
%TO.N,C2*%
G36*
X133642539Y-33419685D02*
G01*
X133688294Y-33472489D01*
X133699500Y-33524000D01*
X133699500Y-53776298D01*
X133679815Y-53843337D01*
X133627011Y-53889092D01*
X133575571Y-53900298D01*
X123085571Y-53906294D01*
X123018520Y-53886648D01*
X122972735Y-53833870D01*
X122961500Y-53782294D01*
X122961500Y-45134445D01*
X122961500Y-45134443D01*
X122920577Y-44981716D01*
X122864878Y-44885241D01*
X122841524Y-44844790D01*
X122841518Y-44844782D01*
X122818073Y-44821337D01*
X122784588Y-44760014D01*
X122789572Y-44690322D01*
X122830267Y-44635281D01*
X122930792Y-44558146D01*
X123139396Y-44349542D01*
X123318988Y-44115494D01*
X123466493Y-43860007D01*
X123579389Y-43587452D01*
X123655743Y-43302493D01*
X123694250Y-43010006D01*
X123694250Y-42775889D01*
X125423250Y-42775889D01*
X125423250Y-42949111D01*
X125450348Y-43120201D01*
X125503877Y-43284945D01*
X125582518Y-43439288D01*
X125684336Y-43579428D01*
X125806822Y-43701914D01*
X125946962Y-43803732D01*
X126101305Y-43882373D01*
X126266049Y-43935902D01*
X126437139Y-43963000D01*
X126437140Y-43963000D01*
X126610360Y-43963000D01*
X126610361Y-43963000D01*
X126781451Y-43935902D01*
X126946195Y-43882373D01*
X127100538Y-43803732D01*
X127240678Y-43701914D01*
X127363164Y-43579428D01*
X127464982Y-43439288D01*
X127543623Y-43284945D01*
X127597152Y-43120201D01*
X127624250Y-42949111D01*
X127624250Y-42775889D01*
X127597152Y-42604799D01*
X127543623Y-42440055D01*
X127464982Y-42285712D01*
X127363164Y-42145572D01*
X127240678Y-42023086D01*
X127100538Y-41921268D01*
X126946195Y-41842627D01*
X126781451Y-41789098D01*
X126781449Y-41789097D01*
X126781448Y-41789097D01*
X126650021Y-41768281D01*
X126610361Y-41762000D01*
X126437139Y-41762000D01*
X126397478Y-41768281D01*
X126266052Y-41789097D01*
X126101302Y-41842628D01*
X125946961Y-41921268D01*
X125890039Y-41962625D01*
X125806822Y-42023086D01*
X125806820Y-42023088D01*
X125806819Y-42023088D01*
X125684338Y-42145569D01*
X125684338Y-42145570D01*
X125684336Y-42145572D01*
X125640609Y-42205756D01*
X125582518Y-42285711D01*
X125503878Y-42440052D01*
X125450347Y-42604802D01*
X125445763Y-42633747D01*
X125423250Y-42775889D01*
X123694250Y-42775889D01*
X123694250Y-42714994D01*
X123655743Y-42422507D01*
X123579389Y-42137548D01*
X123466493Y-41864993D01*
X123443061Y-41824408D01*
X123318988Y-41609506D01*
X123139397Y-41375459D01*
X123139391Y-41375452D01*
X122930797Y-41166858D01*
X122930790Y-41166852D01*
X122696743Y-40987261D01*
X122441260Y-40839758D01*
X122441250Y-40839754D01*
X122168711Y-40726864D01*
X122168704Y-40726862D01*
X122168702Y-40726861D01*
X121883743Y-40650507D01*
X121834863Y-40644071D01*
X121591263Y-40612000D01*
X121591256Y-40612000D01*
X121296244Y-40612000D01*
X121296236Y-40612000D01*
X121017835Y-40648653D01*
X121003757Y-40650507D01*
X120829178Y-40697285D01*
X120718798Y-40726861D01*
X120718788Y-40726864D01*
X120446249Y-40839754D01*
X120446239Y-40839758D01*
X120190756Y-40987261D01*
X119956709Y-41166852D01*
X119956703Y-41166857D01*
X119748109Y-41375452D01*
X119748101Y-41375461D01*
X119742059Y-41383335D01*
X119728248Y-41393417D01*
X119718001Y-41407107D01*
X119700614Y-41413592D01*
X119685628Y-41424533D01*
X119668558Y-41425548D01*
X119652536Y-41431525D01*
X119634404Y-41427580D01*
X119615882Y-41428683D01*
X119600625Y-41420233D01*
X119584263Y-41416674D01*
X119556011Y-41395524D01*
X119556009Y-41395523D01*
X119535938Y-41375452D01*
X119515058Y-41354572D01*
X119515055Y-41354570D01*
X119165908Y-41005423D01*
X119132423Y-40944100D01*
X119135657Y-40879428D01*
X119194840Y-40697285D01*
X119234250Y-40448462D01*
X119234250Y-40196538D01*
X119194840Y-39947715D01*
X119116991Y-39708121D01*
X119116989Y-39708118D01*
X119116989Y-39708116D01*
X119075497Y-39626684D01*
X119002620Y-39483655D01*
X118900503Y-39343102D01*
X118854548Y-39279850D01*
X118854544Y-39279845D01*
X118676404Y-39101705D01*
X118676399Y-39101701D01*
X118472598Y-38953632D01*
X118472597Y-38953631D01*
X118472595Y-38953630D01*
X118402497Y-38917913D01*
X118248133Y-38839260D01*
X118008535Y-38761410D01*
X117759712Y-38722000D01*
X117507788Y-38722000D01*
X117383376Y-38741705D01*
X117258964Y-38761410D01*
X117019366Y-38839260D01*
X116794901Y-38953632D01*
X116591100Y-39101701D01*
X116591095Y-39101705D01*
X116412955Y-39279845D01*
X116412951Y-39279850D01*
X116264882Y-39483651D01*
X116150510Y-39708116D01*
X116072660Y-39947714D01*
X116033250Y-40196538D01*
X116033250Y-40448461D01*
X116072660Y-40697285D01*
X116150510Y-40936883D01*
X116264882Y-41161348D01*
X116412951Y-41365149D01*
X116412955Y-41365154D01*
X116412957Y-41365156D01*
X116591094Y-41543293D01*
X116591095Y-41543294D01*
X116591094Y-41543294D01*
X116597411Y-41547883D01*
X116640077Y-41603214D01*
X116646055Y-41672827D01*
X116613449Y-41734622D01*
X116552610Y-41768979D01*
X116505128Y-41770674D01*
X116450361Y-41762000D01*
X116277139Y-41762000D01*
X116237478Y-41768281D01*
X116106052Y-41789097D01*
X115941302Y-41842628D01*
X115786961Y-41921268D01*
X115730039Y-41962625D01*
X115646822Y-42023086D01*
X115646820Y-42023088D01*
X115646819Y-42023088D01*
X115524338Y-42145569D01*
X115524338Y-42145570D01*
X115524336Y-42145572D01*
X115480609Y-42205756D01*
X115422518Y-42285711D01*
X115343878Y-42440052D01*
X115290347Y-42604802D01*
X115285763Y-42633747D01*
X115263250Y-42775889D01*
X115263250Y-42949111D01*
X115290348Y-43120201D01*
X115343877Y-43284945D01*
X115422518Y-43439288D01*
X115524336Y-43579428D01*
X115646822Y-43701914D01*
X115786962Y-43803732D01*
X115941305Y-43882373D01*
X116106049Y-43935902D01*
X116277139Y-43963000D01*
X116277140Y-43963000D01*
X116450360Y-43963000D01*
X116450361Y-43963000D01*
X116621451Y-43935902D01*
X116786195Y-43882373D01*
X116940538Y-43803732D01*
X117080678Y-43701914D01*
X117203164Y-43579428D01*
X117304982Y-43439288D01*
X117383623Y-43284945D01*
X117437152Y-43120201D01*
X117464250Y-42949111D01*
X117464250Y-42775889D01*
X117437152Y-42604799D01*
X117383623Y-42440055D01*
X117304982Y-42285712D01*
X117203164Y-42145572D01*
X117151232Y-42093640D01*
X117117747Y-42032317D01*
X117122731Y-41962625D01*
X117164603Y-41906692D01*
X117230067Y-41882275D01*
X117258311Y-41883486D01*
X117258962Y-41883589D01*
X117258965Y-41883590D01*
X117507788Y-41923000D01*
X117507789Y-41923000D01*
X117759711Y-41923000D01*
X117759712Y-41923000D01*
X118008535Y-41883590D01*
X118190678Y-41824407D01*
X118205887Y-41823973D01*
X118220146Y-41818655D01*
X118240098Y-41822995D01*
X118260514Y-41822412D01*
X118274602Y-41830501D01*
X118288419Y-41833507D01*
X118316673Y-41854658D01*
X118455931Y-41993916D01*
X118489416Y-42055239D01*
X118492250Y-42081597D01*
X118492250Y-43749646D01*
X118492249Y-43749664D01*
X118492249Y-43915370D01*
X118492248Y-43915370D01*
X118533173Y-44068100D01*
X118533173Y-44068101D01*
X118560536Y-44115495D01*
X118560536Y-44115496D01*
X118612225Y-44205025D01*
X118612231Y-44205033D01*
X118731099Y-44323901D01*
X118731105Y-44323906D01*
X119985073Y-45577874D01*
X119985083Y-45577885D01*
X119989413Y-45582215D01*
X119989414Y-45582216D01*
X120101218Y-45694020D01*
X120188029Y-45744139D01*
X120188031Y-45744141D01*
X120238147Y-45773076D01*
X120238149Y-45773077D01*
X120390876Y-45814000D01*
X120390877Y-45814000D01*
X121636500Y-45814000D01*
X121703539Y-45833685D01*
X121749294Y-45886489D01*
X121760500Y-45938000D01*
X121760500Y-53783121D01*
X121740815Y-53850160D01*
X121688011Y-53895915D01*
X121636571Y-53907121D01*
X117722807Y-53909358D01*
X117655756Y-53889712D01*
X117635055Y-53873039D01*
X107849222Y-44087207D01*
X107815737Y-44025884D01*
X107820721Y-43956192D01*
X107862593Y-43900259D01*
X107892022Y-43885006D01*
X107891702Y-43884234D01*
X107896185Y-43882376D01*
X107896195Y-43882373D01*
X108050538Y-43803732D01*
X108190678Y-43701914D01*
X108313164Y-43579428D01*
X108414982Y-43439288D01*
X108493623Y-43284945D01*
X108547152Y-43120201D01*
X108574250Y-42949111D01*
X108574250Y-42775889D01*
X108547152Y-42604799D01*
X108493623Y-42440055D01*
X108414982Y-42285712D01*
X108313164Y-42145572D01*
X108190678Y-42023086D01*
X108050538Y-41921268D01*
X107896195Y-41842627D01*
X107731451Y-41789098D01*
X107731449Y-41789097D01*
X107731448Y-41789097D01*
X107600021Y-41768281D01*
X107560361Y-41762000D01*
X107387139Y-41762000D01*
X107347478Y-41768281D01*
X107216052Y-41789097D01*
X107051302Y-41842628D01*
X106896961Y-41921268D01*
X106840039Y-41962625D01*
X106756822Y-42023086D01*
X106756820Y-42023088D01*
X106756819Y-42023088D01*
X106634338Y-42145569D01*
X106634338Y-42145570D01*
X106634336Y-42145572D01*
X106590609Y-42205756D01*
X106532518Y-42285711D01*
X106453876Y-42440056D01*
X106452016Y-42444548D01*
X106450405Y-42443881D01*
X106415209Y-42495346D01*
X106350848Y-42522539D01*
X106282002Y-42510619D01*
X106249042Y-42487027D01*
X101418586Y-37656571D01*
X103333750Y-37656571D01*
X103333750Y-37908428D01*
X103373147Y-38157169D01*
X103450969Y-38396684D01*
X103565307Y-38621083D01*
X103639498Y-38723197D01*
X103639498Y-38723198D01*
X104256171Y-38106524D01*
X104269109Y-38137758D01*
X104351187Y-38260597D01*
X104455653Y-38365063D01*
X104578492Y-38447141D01*
X104609724Y-38460077D01*
X103993050Y-39076750D01*
X104095166Y-39150942D01*
X104319565Y-39265280D01*
X104559080Y-39343102D01*
X104807822Y-39382500D01*
X105059678Y-39382500D01*
X105308419Y-39343102D01*
X105547934Y-39265280D01*
X105772325Y-39150946D01*
X105772331Y-39150942D01*
X105874447Y-39076750D01*
X105874448Y-39076750D01*
X105257775Y-38460078D01*
X105289008Y-38447141D01*
X105411847Y-38365063D01*
X105516313Y-38260597D01*
X105598391Y-38137758D01*
X105611327Y-38106525D01*
X106228000Y-38723198D01*
X106228000Y-38723197D01*
X106302192Y-38621081D01*
X106302196Y-38621075D01*
X106416530Y-38396684D01*
X106494352Y-38157169D01*
X106533750Y-37908428D01*
X106533750Y-37656571D01*
X122383750Y-37656571D01*
X122383750Y-37908428D01*
X122423147Y-38157169D01*
X122500969Y-38396684D01*
X122615307Y-38621083D01*
X122689498Y-38723197D01*
X122689498Y-38723198D01*
X123306171Y-38106524D01*
X123319109Y-38137758D01*
X123401187Y-38260597D01*
X123505653Y-38365063D01*
X123628492Y-38447141D01*
X123659724Y-38460077D01*
X123043050Y-39076750D01*
X123145166Y-39150942D01*
X123369565Y-39265280D01*
X123609080Y-39343102D01*
X123857822Y-39382500D01*
X124109678Y-39382500D01*
X124358419Y-39343102D01*
X124597934Y-39265280D01*
X124822325Y-39150946D01*
X124822331Y-39150942D01*
X124924447Y-39076750D01*
X124924448Y-39076750D01*
X124307775Y-38460078D01*
X124339008Y-38447141D01*
X124461847Y-38365063D01*
X124566313Y-38260597D01*
X124648391Y-38137758D01*
X124661327Y-38106525D01*
X125278000Y-38723198D01*
X125278000Y-38723197D01*
X125352192Y-38621081D01*
X125352196Y-38621075D01*
X125466530Y-38396684D01*
X125544352Y-38157169D01*
X125583750Y-37908428D01*
X125583750Y-37656571D01*
X125544352Y-37407830D01*
X125466530Y-37168315D01*
X125352192Y-36943916D01*
X125278000Y-36841801D01*
X125278000Y-36841800D01*
X124661327Y-37458473D01*
X124648391Y-37427242D01*
X124566313Y-37304403D01*
X124461847Y-37199937D01*
X124339008Y-37117859D01*
X124307774Y-37104921D01*
X124924448Y-36488248D01*
X124822333Y-36414057D01*
X124597934Y-36299719D01*
X124358419Y-36221897D01*
X124109678Y-36182500D01*
X123857822Y-36182500D01*
X123609080Y-36221897D01*
X123369565Y-36299719D01*
X123145163Y-36414059D01*
X123043051Y-36488247D01*
X123043050Y-36488248D01*
X123659724Y-37104921D01*
X123628492Y-37117859D01*
X123505653Y-37199937D01*
X123401187Y-37304403D01*
X123319109Y-37427242D01*
X123306171Y-37458474D01*
X122689498Y-36841800D01*
X122689497Y-36841801D01*
X122615309Y-36943913D01*
X122500969Y-37168315D01*
X122423147Y-37407830D01*
X122383750Y-37656571D01*
X106533750Y-37656571D01*
X106494352Y-37407830D01*
X106416530Y-37168315D01*
X106302192Y-36943916D01*
X106228000Y-36841801D01*
X106228000Y-36841800D01*
X105611327Y-37458473D01*
X105598391Y-37427242D01*
X105516313Y-37304403D01*
X105411847Y-37199937D01*
X105289008Y-37117859D01*
X105257774Y-37104921D01*
X105874448Y-36488248D01*
X105772333Y-36414057D01*
X105547934Y-36299719D01*
X105308419Y-36221897D01*
X105059678Y-36182500D01*
X104807822Y-36182500D01*
X104559080Y-36221897D01*
X104319565Y-36299719D01*
X104095163Y-36414059D01*
X103993051Y-36488247D01*
X103993050Y-36488248D01*
X104609724Y-37104921D01*
X104578492Y-37117859D01*
X104455653Y-37199937D01*
X104351187Y-37304403D01*
X104269109Y-37427242D01*
X104256171Y-37458474D01*
X103639498Y-36841800D01*
X103639497Y-36841801D01*
X103565309Y-36943913D01*
X103450969Y-37168315D01*
X103373147Y-37407830D01*
X103333750Y-37656571D01*
X101418586Y-37656571D01*
X101182870Y-37420855D01*
X101182868Y-37420852D01*
X101063997Y-37301981D01*
X101063996Y-37301980D01*
X100977184Y-37251860D01*
X100977184Y-37251859D01*
X100977180Y-37251858D01*
X100927065Y-37222923D01*
X100774337Y-37181999D01*
X100616223Y-37181999D01*
X100608627Y-37181999D01*
X100608611Y-37182000D01*
X93105545Y-37182000D01*
X93038506Y-37162315D01*
X92992751Y-37109511D01*
X92981576Y-37060765D01*
X92902825Y-33526763D01*
X92921011Y-33459301D01*
X92972782Y-33412381D01*
X93026794Y-33400000D01*
X133575500Y-33400000D01*
X133642539Y-33419685D01*
G37*
%TD.AperFunction*%
%TD*%
M02*
