%TF.GenerationSoftware,KiCad,Pcbnew,9.0.1*%
%TF.CreationDate,2025-05-27T18:47:11-04:00*%
%TF.ProjectId,hackpad,6861636b-7061-4642-9e6b-696361645f70,rev?*%
%TF.SameCoordinates,Original*%
%TF.FileFunction,Soldermask,Bot*%
%TF.FilePolarity,Negative*%
%FSLAX46Y46*%
G04 Gerber Fmt 4.6, Leading zero omitted, Abs format (unit mm)*
G04 Created by KiCad (PCBNEW 9.0.1) date 2025-05-27 18:47:11*
%MOMM*%
%LPD*%
G01*
G04 APERTURE LIST*
G04 Aperture macros list*
%AMRoundRect*
0 Rectangle with rounded corners*
0 $1 Rounding radius*
0 $2 $3 $4 $5 $6 $7 $8 $9 X,Y pos of 4 corners*
0 Add a 4 corners polygon primitive as box body*
4,1,4,$2,$3,$4,$5,$6,$7,$8,$9,$2,$3,0*
0 Add four circle primitives for the rounded corners*
1,1,$1+$1,$2,$3*
1,1,$1+$1,$4,$5*
1,1,$1+$1,$6,$7*
1,1,$1+$1,$8,$9*
0 Add four rect primitives between the rounded corners*
20,1,$1+$1,$2,$3,$4,$5,0*
20,1,$1+$1,$4,$5,$6,$7,0*
20,1,$1+$1,$6,$7,$8,$9,0*
20,1,$1+$1,$8,$9,$2,$3,0*%
G04 Aperture macros list end*
%ADD10R,1.800000X1.800000*%
%ADD11O,1.800000X1.800000*%
%ADD12C,1.700000*%
%ADD13C,4.000000*%
%ADD14C,2.200000*%
%ADD15R,1.700000X1.700000*%
%ADD16O,1.700000X1.700000*%
%ADD17C,1.500000*%
%ADD18R,2.000000X2.000000*%
%ADD19C,2.000000*%
%ADD20R,3.200000X2.000000*%
%ADD21RoundRect,0.152400X-0.609600X1.063600X-0.609600X-1.063600X0.609600X-1.063600X0.609600X1.063600X0*%
%ADD22C,1.524000*%
%ADD23RoundRect,0.152400X0.609600X-1.063600X0.609600X1.063600X-0.609600X1.063600X-0.609600X-1.063600X0*%
G04 APERTURE END LIST*
D10*
%TO.C,D7*%
X70990000Y-77600000D03*
D11*
X78610000Y-77600000D03*
%TD*%
D12*
%TO.C,SW5*%
X116363750Y-42862500D03*
D13*
X121443750Y-42862500D03*
D12*
X126523750Y-42862500D03*
D14*
X123983750Y-37782500D03*
X117633750Y-40322500D03*
%TD*%
D10*
%TO.C,D12*%
X48790000Y-77600000D03*
D11*
X56410000Y-77600000D03*
%TD*%
D10*
%TO.C,D10*%
X94163750Y-77600000D03*
D11*
X101783750Y-77600000D03*
%TD*%
D12*
%TO.C,SW9*%
X97313750Y-61912500D03*
D13*
X102393750Y-61912500D03*
D12*
X107473750Y-61912500D03*
D14*
X104933750Y-56832500D03*
X98583750Y-59372500D03*
%TD*%
D10*
%TO.C,D11*%
X82080000Y-77800000D03*
D11*
X89700000Y-77800000D03*
%TD*%
D12*
%TO.C,SW2*%
X59213750Y-42862500D03*
D13*
X64293750Y-42862500D03*
D12*
X69373750Y-42862500D03*
D14*
X66833750Y-37782500D03*
X60483750Y-40322500D03*
%TD*%
D15*
%TO.C,J1*%
X95000000Y-88790000D03*
D16*
X95000000Y-91330000D03*
X95000000Y-93870000D03*
X95000000Y-96410000D03*
%TD*%
D10*
%TO.C,D9*%
X118690000Y-78200000D03*
D11*
X126310000Y-78200000D03*
%TD*%
D12*
%TO.C,SW3*%
X78263750Y-42862500D03*
D13*
X83343750Y-42862500D03*
D12*
X88423750Y-42862500D03*
D14*
X85883750Y-37782500D03*
X79533750Y-40322500D03*
%TD*%
D12*
%TO.C,SW1*%
X40163750Y-42862500D03*
D13*
X45243750Y-42862500D03*
D12*
X50323750Y-42862500D03*
D14*
X47783750Y-37782500D03*
X41433750Y-40322500D03*
%TD*%
D12*
%TO.C,SW7*%
X59213750Y-61912500D03*
D13*
X64293750Y-61912500D03*
D12*
X69373750Y-61912500D03*
D14*
X66833750Y-56832500D03*
X60483750Y-59372500D03*
%TD*%
D10*
%TO.C,D13*%
X131100000Y-77300000D03*
D11*
X131100000Y-84920000D03*
%TD*%
D12*
%TO.C,SW4*%
X97313750Y-42862500D03*
D13*
X102393750Y-42862500D03*
D12*
X107473750Y-42862500D03*
D14*
X104933750Y-37782500D03*
X98583750Y-40322500D03*
%TD*%
D12*
%TO.C,SW8*%
X78263750Y-61912500D03*
D13*
X83343750Y-61912500D03*
D12*
X88423750Y-61912500D03*
D14*
X85883750Y-56832500D03*
X79533750Y-59372500D03*
%TD*%
D10*
%TO.C,D6*%
X106680000Y-77900000D03*
D11*
X114300000Y-77900000D03*
%TD*%
D10*
%TO.C,D5*%
X37490000Y-77600000D03*
D11*
X45110000Y-77600000D03*
%TD*%
D17*
%TO.C,SW10*%
X53975000Y-89600000D03*
X53975000Y-94600000D03*
D18*
X39475000Y-89600000D03*
D19*
X39475000Y-94600000D03*
X39475000Y-92100000D03*
D20*
X46975000Y-86500000D03*
X46975000Y-97700000D03*
%TD*%
D12*
%TO.C,SW6*%
X40163750Y-61912500D03*
D13*
X45243750Y-61912500D03*
D12*
X50323750Y-61912500D03*
D14*
X47783750Y-56832500D03*
X41433750Y-59372500D03*
%TD*%
D10*
%TO.C,D8*%
X59680000Y-77700000D03*
D11*
X67300000Y-77700000D03*
%TD*%
D21*
%TO.C,U1*%
X131445000Y-72748750D03*
D22*
X131445000Y-71913750D03*
D21*
X128905000Y-72748750D03*
D22*
X128905000Y-71913750D03*
D21*
X126365000Y-72748750D03*
D22*
X126365000Y-71913750D03*
D21*
X123825000Y-72748750D03*
D22*
X123825000Y-71913750D03*
D21*
X121285000Y-72748750D03*
D22*
X121285000Y-71913750D03*
D21*
X118745000Y-72748750D03*
D22*
X118745000Y-71913750D03*
D21*
X116205000Y-72748750D03*
D22*
X116205000Y-71913750D03*
X116205000Y-56673750D03*
D23*
X116205000Y-55838750D03*
D22*
X118745000Y-56673750D03*
D23*
X118745000Y-55838750D03*
D22*
X121285000Y-56673750D03*
D23*
X121285000Y-55838750D03*
D22*
X123825000Y-56673750D03*
D23*
X123825000Y-55838750D03*
D22*
X126365000Y-56673750D03*
D23*
X126365000Y-55838750D03*
D22*
X128905000Y-56673750D03*
D23*
X128905000Y-55838750D03*
D22*
X131445000Y-56673750D03*
D23*
X131445000Y-55838750D03*
%TD*%
M02*
